<?xml version="1.0" standalone="no"?>
<!DOCTYPE svg PUBLIC "-//W3C//DTD SVG 1.1//EN" "http://www.w3.org/Graphics/SVG/1.1/DTD/svg11.dtd" >
<svg>
<metadata>
Created by FontForge 20090622 at Tue Sep 22 11:08:34 2015
 By deploy user
Copyright &#194;&#169; 2011 ParaType Inc., ParaType Ltd. All rights reserved.
</metadata>
<defs>
<font id="Circe-ExtraLight" horiz-adv-x="586" >
  <font-face 
    font-family="Circe Extra Light"
    font-weight="300"
    font-stretch="normal"
    units-per-em="1000"
    panose-1="2 11 3 2 2 2 3 2 2 3"
    ascent="773"
    descent="-227"
    x-height="450"
    cap-height="700"
    bbox="-500 -346 1689 994"
    underline-thickness="50"
    underline-position="-50"
    unicode-range="U+0020-U+FB02"
  />
<missing-glyph horiz-adv-x="243" 
 />
    <glyph glyph-name="uniF350.var.accented" unicode="&#xf350;`" horiz-adv-x="560" 
d="M21 0l248 530h22l248 -530h-32l-88 189h-280l-88 -189h-30zM279 491l-128 -275h255zM378 731l-116 -137l-16 15l114 142z" />
    <glyph glyph-name="uniF355.var.accented" unicode="&#xf355;`" horiz-adv-x="474" 
d="M93 0v525h311v-28h-282v-216h258v-28h-258v-225h290v-28h-319zM353 731l-116 -137l-16 15l114 142z" />
    <glyph glyph-name="uniF358.var.accented" unicode="&#xf358;`" horiz-adv-x="645" 
d="M120 0h-27v525h29v-479l403 479h27v-525h-29v479zM410 731l-116 -137l-16 15l114 142z" />
    <glyph glyph-name="uniF35E.var.accented" unicode="&#xf35e;`" horiz-adv-x="647" 
d="M46 263q0 114 79.5 191t197.5 77q119 0 198.5 -76.5t79.5 -191.5t-79.5 -192.5t-198.5 -77.5q-118 0 -197.5 77t-79.5 193zM77 263q0 -103 71 -172.5t175 -69.5q107 0 177 69t70 173q0 103 -71 171.5t-176 68.5t-175.5 -68.5t-70.5 -171.5zM425 731l-116 -137l-16 15
l114 142z" />
    <glyph glyph-name="uniF363.var.accented" unicode="&#xf363;`" horiz-adv-x="517" 
d="M502 525l-198 -407q-30 -62 -58.5 -90t-65.5 -28q-35 0 -58 16l11 25q23 -14 47 -14q47 0 85 75l12 22l-262 401h36l241 -372l179 372h31zM360 731l-116 -137l-16 15l114 142z" />
    <glyph glyph-name="uniF36B.var.accented" unicode="&#xf36b;`" horiz-adv-x="662" 
d="M539 0v525h30v-525h-30zM214 287q-36 0 -92 -3v-256q12 0 41 -1t47 -1q90 0 137 35t47 102q0 59 -46 91.5t-134 32.5zM122 525v-213q37 3 92 3q105 0 158 -40t53 -113q0 -80 -58 -122t-160 -42q-23 0 -61 1t-53 1v525h29zM400 731l-116 -137l-16 15l114 142z" />
    <glyph glyph-name="uniF36D.var.accented" unicode="&#xf36d;`" horiz-adv-x="551" 
d="M163 254v28h311q-5 103 -73 162t-180 59q-100 0 -160 -44l-13 21q64 52 174 52q129 0 206 -72.5t77 -195.5q0 -117 -78 -194t-204 -77q-106 0 -187 55l14 24q77 -50 175 -50q110 0 178 65t72 167h-312zM340 731l-116 -137l-16 15l114 142z" />
    <glyph glyph-name="uniF36E.var.accented" unicode="&#xf36e;`" horiz-adv-x="862" 
d="M93 0v525h29v-243h157q7 108 81 179t186 71q119 0 194.5 -76t75.5 -193q0 -116 -76 -193t-194 -77q-114 0 -189 73.5t-78 187.5h-157v-254h-29zM310 263q0 -104 66.5 -172.5t170.5 -68.5q105 0 171.5 68.5t66.5 172.5t-67 172t-171 68t-170.5 -68t-66.5 -172zM451 731
l-116 -137l-16 15l114 142z" />
    <glyph glyph-name="uniF36F.var.accented" unicode="&#xf36f;`" horiz-adv-x="497" 
d="M375 0v210h-142l-169 -210h-36l173 214q-52 14 -89.5 54t-37.5 94q0 73 52.5 119t151.5 46q23 0 67 -1t59 -1v-525h-29zM228 238h147v259q-11 0 -45 1t-55 1q-84 0 -127 -38.5t-43 -97.5q0 -47 37 -82.5t86 -42.5zM370 731l-116 -137l-16 15l114 142z" />
    <glyph glyph-name="uniF371.var.accented" unicode="&#xf371;`" horiz-adv-x="474" 
d="M93 0v525h311v-28h-282v-216h258v-28h-258v-225h290v-28h-319zM137 667q0 8 6.5 14t15.5 6q8 0 14 -6t6 -14q0 -9 -6 -15.5t-14 -6.5q-9 0 -15.5 6t-6.5 16zM312 667q0 8 6.5 14t15.5 6q8 0 14 -6t6 -14q0 -9 -6 -15.5t-14 -6.5q-9 0 -15.5 6t-6.5 16zM310 731l-116 -137
l-16 15l114 142z" />
    <glyph glyph-name="afii10017.var.accented" unicode="&#x410;`" horiz-adv-x="690" 
d="M26 0l308 707h22l308 -707h-32l-113 260h-350l-112 -260h-31zM344 663l-163 -375h326zM488 829l-167 -89l-9 18l165 94z" />
    <glyph glyph-name="afii10022.var.accented" unicode="&#x415;`" horiz-adv-x="575" 
d="M116 0v700h380v-28h-350v-302h320v-28h-320v-314h360v-28h-390zM423 829l-167 -89l-9 18l165 94z" />
    <glyph glyph-name="afii10026.var.accented" unicode="&#x418;`" horiz-adv-x="799" 
d="M143 0h-27v700h30v-653l510 653h27v-700h-30v652zM513 829l-167 -89l-9 18l165 94z" />
    <glyph glyph-name="afii10032.var.accented" unicode="&#x41e;`" horiz-adv-x="807" 
d="M57 350q0 152 99 255.5t247 103.5q147 0 246.5 -102.5t99.5 -256.5q0 -153 -99.5 -256t-246.5 -103t-246.5 102.5t-99.5 256.5zM88 350q0 -141 90.5 -235.5t224.5 -94.5q135 0 225 94.5t90 235.5t-90.5 235.5t-224.5 94.5t-224.5 -94.5t-90.5 -235.5zM523 829l-167 -89
l-9 18l165 94z" />
    <glyph glyph-name="afii10037.var.accented" unicode="&#x423;`" horiz-adv-x="640" 
d="M621 700l-246 -544q-37 -83 -71.5 -119.5t-79.5 -36.5q-43 0 -70 21l10 25q28 -19 59 -19q61 0 110 103l15 30l-329 540h33l310 -511l229 511h30zM465 829l-167 -89l-9 18l165 94z" />
    <glyph glyph-name="afii10045.var.accented" unicode="&#x42b;`" horiz-adv-x="815" 
d="M670 0v700h29v-700h-29zM262 387q-60 0 -116 -6v-353q15 0 51 -1t61 -1q114 0 174.5 48t60.5 141q0 82 -59 127t-172 45zM146 700v-290q59 5 116 5q130 0 195.5 -53t65.5 -148q0 -106 -71 -161t-197 -55q-27 0 -73.5 1t-65.5 1v700h30zM516 829l-167 -89l-9 18l165 94z
" />
    <glyph glyph-name="afii10047.var.accented" unicode="&#x42d;`" horiz-adv-x="683" 
d="M203 343v28h392q-6 143 -93.5 226t-231.5 83q-118 0 -195 -60l-13 21q77 68 213 68q160 0 255 -96.5t95 -259.5q0 -156 -96 -259t-251 -103q-132 0 -232 73l15 24q97 -68 215 -68q140 0 227.5 91.5t91.5 231.5h-392zM418 829l-167 -89l-9 18l165 94z" />
    <glyph glyph-name="afii10048.var.accented" unicode="&#x42e;`" horiz-adv-x="1074" 
d="M116 0v700h30v-329h200q8 146 101 242t233 96q146 0 241 -102t95 -257q0 -154 -95 -256.5t-241 -102.5q-143 0 -237.5 99.5t-96.5 252.5h-200v-343h-30zM376 350q0 -142 86.5 -236t218.5 -94q134 0 219 93.5t85 236.5q0 142 -85.5 236t-218.5 94q-132 0 -218.5 -94
t-86.5 -236zM673 829l-167 -89l-9 18l165 94z" />
    <glyph glyph-name="afii10049.var.accented" unicode="&#x42f;`" horiz-adv-x="608" 
d="M463 0v286h-177l-214 -286h-36l220 290q-67 16 -115.5 69.5t-48.5 126.5q0 96 65.5 156t187.5 60q26 0 77 -1t70 -1v-700h-29zM280 314h183v358q-15 0 -57 1t-66 1q-107 0 -162 -53t-55 -135q0 -64 47.5 -113.5t109.5 -58.5zM489 829l-167 -89l-9 18l165 94z" />
    <glyph glyph-name="afii10023.var.accented" unicode="&#x401;`" horiz-adv-x="575" 
d="M164 796q0 9 6 15t15 6q8 0 13.5 -6t5.5 -15q0 -10 -5.5 -16t-13.5 -6q-9 0 -15 6t-6 16zM410 796q0 9 6.5 15t14.5 6t13.5 -6t5.5 -15q0 -10 -5.5 -16t-13.5 -6q-9 0 -15 6t-6 16zM408 841l-151 -99l-11 9l141 101zM116 0v700h380v-28h-350v-302h320v-28h-320v-314h360
v-28h-390z" />
    <glyph glyph-name="afii10065.var.accented" unicode="&#x430;`" horiz-adv-x="457" 
d="M91 394l-9 24q65 41 138 41q87 0 124.5 -45t37.5 -133v-281h-28v78q-61 -83 -167 -83q-63 0 -101.5 35.5t-38.5 93.5q0 65 47.5 101t123.5 36q84 0 136 -37q0 37 -1 59t-5 49.5t-13 43t-24 30t-38.5 20.5t-55.5 6q-61 0 -126 -38zM193 22q42 0 76 14.5t50 30.5t35 40v90
q-56 40 -134 40q-58 0 -100.5 -28t-42.5 -83q0 -48 33 -76t83 -28zM334 693l-112 -141l-18 12l109 146z" />
    <glyph glyph-name="afii10070.var.accented" unicode="&#x435;`" horiz-adv-x="527" 
d="M441 80l11 -21q-28 -33 -72.5 -50.5t-91.5 -17.5q-104 0 -170 64t-66 170q0 103 58 168.5t165 65.5q88 0 144.5 -55.5t56.5 -146.5q0 -13 -2 -31h-391q1 -96 57 -152t149 -56q95 0 152 62zM271 432q-84 0 -134 -50.5t-56 -131.5h366q1 84 -47 133t-129 49zM368 693
l-112 -141l-18 12l109 146z" />
    <glyph glyph-name="afii10074.var.accented" unicode="&#x438;`" horiz-adv-x="561" 
d="M114 0h-29v450h29v-409l334 409h28v-450h-28v409zM374 693l-112 -141l-18 12l109 146z" />
    <glyph glyph-name="afii10080.var.accented" unicode="&#x43e;`" horiz-adv-x="569" 
d="M52 225q0 102 65 168t167 66t167.5 -66t65.5 -168t-65.5 -168t-167.5 -66t-167 66t-65 168zM81 225q0 -91 57 -149t146 -58t146 58t57 149t-57 149t-146 58t-146 -58t-57 -149zM379 693l-112 -141l-18 12l109 146z" />
    <glyph glyph-name="afii10085.var.accented" unicode="&#x443;`" horiz-adv-x="472" 
d="M455 450l-184 -450q-48 -117 -84.5 -158.5t-82.5 -41.5q-32 0 -70 19l10 22q33 -15 56 -15q39 0 70 35t64 115l10 24l-227 450h33l173 -345q19 -36 35 -73q9 25 29 75l136 343h32zM353 693l-112 -141l-18 12l109 146z" />
    <glyph glyph-name="afii10093.var.accented" unicode="&#x44b;`" horiz-adv-x="603" 
d="M85 0v450h29v-165h81q178 0 178 -142q0 -143 -183 -143h-105zM191 258h-77v-231h76q83 0 118.5 29.5t35.5 86.5q0 115 -153 115zM490 0v450h28v-450h-28zM388 693l-112 -141l-18 12l109 146z" />
    <glyph glyph-name="afii10095.var.accented" unicode="&#x44d;`" horiz-adv-x="491" 
d="M160 217v25h250q-5 88 -62 139t-144 51q-94 0 -152 -63l-13 20q28 33 73 51.5t92 18.5q104 0 169.5 -64t65.5 -170q0 -98 -63.5 -166t-156.5 -68q-115 0 -173 55l14 22q56 -50 156 -50q80 0 136 56.5t59 142.5h-251zM316 693l-112 -141l-18 12l109 146z" />
    <glyph glyph-name="afii10096.var.accented" unicode="&#x44e;`" horiz-adv-x="742" 
d="M85 0v450h30v-206h128q6 95 67.5 155t155.5 60q99 0 161.5 -66t62.5 -168t-63 -168t-161 -66q-96 0 -158 63t-65 162h-128v-216h-30zM274 225q0 -91 53.5 -148t138.5 -57t139 57t54 148q0 90 -53.5 147.5t-139.5 57.5q-85 0 -138.5 -57.5t-53.5 -147.5zM467 693
l-112 -141l-18 12l109 146z" />
    <glyph glyph-name="afii10097.var.accented" unicode="&#x44f;`" horiz-adv-x="473" 
d="M260 450h128v-450h-28v183h-133l-145 -183h-36l152 189q-47 6 -82 40t-35 85q0 61 42 98.5t137 37.5zM110 314q0 -46 35.5 -75t73.5 -29h141v213h-105q-74 0 -109.5 -30t-35.5 -79zM381 693l-112 -141l-18 12l109 146z" />
    <glyph glyph-name="afii10071.var.accented" unicode="&#x451;`" horiz-adv-x="527" 
d="M133 624q0 8 6 13.5t14 5.5q7 0 13 -6t6 -13q0 -9 -6 -15t-13 -6q-8 0 -14 6t-6 15zM360 624q0 8 6 13.5t14 5.5t13.5 -5.5t5.5 -13.5q0 -9 -5.5 -15t-13.5 -6t-14 6t-6 15zM339 693l-112 -141l-16 10l110 146zM441 80l11 -21q-28 -33 -72.5 -50.5t-91.5 -17.5
q-104 0 -170 64t-66 170q0 103 58 168.5t165 65.5q88 0 144.5 -55.5t56.5 -146.5q0 -13 -2 -31h-391q1 -96 57 -152t149 -56q95 0 152 62zM271 432q-84 0 -134 -50.5t-56 -131.5h366q1 84 -47 133t-129 49z" />
    <glyph glyph-name="fi" unicode="fi" horiz-adv-x="490" 
d="M365 0v423h-234v-423h-28v520q0 94 44 141.5t124 47.5q78 0 124 -46l-19 -18q-46 37 -102 37q-143 0 -143 -171v-61h262v-450h-28z" />
    <glyph glyph-name="fl" unicode="fl" horiz-adv-x="549" 
d="M358 113v537q-45 32 -97 32q-130 0 -130 -168v-64h134v-27h-134v-423h-28v523q0 186 153 186q65 0 112 -35h18v-540q0 -58 17 -84.5t57 -26.5t69 23l10 -23q-39 -27 -87 -27q-50 0 -72 28.5t-22 88.5z" />
    <glyph glyph-name=".notdef" horiz-adv-x="243" 
 />
    <glyph glyph-name=".null" horiz-adv-x="0" 
 />
    <glyph glyph-name="nonmarkingreturn" horiz-adv-x="333" 
 />
    <glyph glyph-name="space" unicode=" " horiz-adv-x="243" 
 />
    <glyph glyph-name="exclam" unicode="!" horiz-adv-x="310" 
d="M140 174v526h30v-526h-30zM131 24q0 8 7.5 15t17.5 7q9 0 16 -7t7 -15q0 -10 -7 -17.5t-16 -7.5q-10 0 -17.5 7.5t-7.5 17.5z" />
    <glyph glyph-name="quotedbl" unicode="&#x22;" horiz-adv-x="389" 
d="M250 505v195h28v-195h-28zM111 505v195h28v-195h-28z" />
    <glyph glyph-name="numbersign" unicode="#" horiz-adv-x="674" 
d="M323 0l80 217h-232l-83 -226l-24 9l81 217h-105v26h114l80 214h-194v26h203l85 226l22 -9l-80 -217h232l84 226l23 -8l-81 -218h107v-26h-116l-79 -214h195v-26h-205l-83 -226zM260 457l-79 -214h232l79 214h-232z" />
    <glyph glyph-name="dollar" unicode="$" 
d="M477 170q0 44 -21 77t-54.5 52t-73.5 34.5l-80.5 31.5t-74 36.5t-54.5 55.5t-21 83q0 71 50 118t138 51v81h28v-82q110 -5 169 -70l-17 -21q-62 63 -168 63q-78 0 -124 -38.5t-46 -101.5q0 -50 28 -85t70 -52l91.5 -36.5t91.5 -38.5t70 -59.5t28 -97.5
q0 -76 -54.5 -124.5t-138.5 -54.5v-92h-28v91q-62 2 -121.5 29t-84.5 70l19 20q30 -41 83.5 -65.5t105.5 -24.5q78 0 133.5 39.5t55.5 110.5z" />
    <glyph glyph-name="percent" unicode="%" horiz-adv-x="827" 
d="M144 5l527 704l17 -13l-526 -705zM56 546q0 68 46.5 112t115.5 44t115.5 -44t46.5 -112q0 -69 -46 -113t-116 -44t-116 44t-46 113zM83 546q0 -58 40.5 -95.5t94.5 -37.5q56 0 95.5 37.5t39.5 95.5t-40 95t-95 37t-95 -37t-40 -95zM446 156q0 68 46.5 112t115.5 44
t115.5 -44t46.5 -112q0 -69 -46 -113t-116 -44t-116 44t-46 113zM473 156q0 -58 40.5 -95.5t94.5 -37.5q56 0 95.5 37.5t39.5 95.5t-40 95t-95 37t-95 -37t-40 -95z" />
    <glyph glyph-name="ampersand" unicode="&#x26;" horiz-adv-x="731" 
d="M620 0l-94 119q-87 -128 -229 -128q-91 0 -151.5 56.5t-60.5 142.5q0 134 181 255q-48 8 -79 44t-31 86q0 57 40 95.5t97 38.5q56 0 96 -39t40 -95q0 -53 -36 -91t-87 -40l221 -280q73 124 73 286h28q0 -179 -83 -310l111 -140h-36zM297 20q132 0 211 122l-225 286
q-75 -53 -121 -109t-46 -124q0 -78 53.5 -126.5t127.5 -48.5zM183 575q0 -45 32 -77.5t78 -32.5q45 0 77 32.5t32 77.5t-32 77t-77 32q-46 0 -78 -32t-32 -77z" />
    <glyph glyph-name="quotesingle" unicode="'" horiz-adv-x="250" 
d="M111 505v195h28v-195h-28z" />
    <glyph glyph-name="parenleft" unicode="(" horiz-adv-x="261" 
d="M261 -190l-19 -16q-202 174 -202 431q0 248 203 431l18 -16q-193 -178 -193 -415q0 -249 193 -415z" />
    <glyph glyph-name="parenright" unicode=")" horiz-adv-x="261" 
d="M19 -206l-19 16q193 166 193 415q0 237 -193 415l18 16q203 -183 203 -431q0 -257 -202 -431z" />
    <glyph glyph-name="asterisk" unicode="*" horiz-adv-x="449" 
d="M203 684q0 10 7 17t17 7q9 0 16.5 -7t7.5 -17q0 -9 -7.5 -16t-16.5 -7q-10 0 -17 7t-7 16zM202 446q0 10 7 17t17 7q9 0 16.5 -7t7.5 -17q0 -9 -7.5 -16t-16.5 -7q-10 0 -17 7t-7 16zM308 619q0 10 7 17t16 7q10 0 17 -7t7 -17t-7 -16.5t-17 -6.5q-9 0 -16 6.5t-7 16.5z
M308 512q0 9 7 16t16 7q10 0 17 -7t7 -16q0 -10 -6.5 -17t-17.5 -7q-9 0 -16 7t-7 17zM94 512q0 9 7 16t17 7q9 0 16 -7t7 -16q0 -10 -7 -17t-16 -7q-10 0 -17 7t-7 17zM94 619q0 10 7 17t17 7q9 0 16 -7t7 -17t-7 -16.5t-16 -6.5q-10 0 -17 6.5t-7 16.5z" />
    <glyph glyph-name="plus" unicode="+" 
d="M73 347v26h206v206h26v-206h208v-26h-208v-208h-26v208h-206z" />
    <glyph glyph-name="comma" unicode="," horiz-adv-x="181" 
d="M65 21q0 10 7.5 16.5t19.5 6.5q19 0 34 -20.5t15 -54.5q0 -44 -25 -75t-62 -41l-7 15q25 8 46 31.5t23 56.5q1 43 -18 54q-1 -10 -14 -10q-7 0 -13 6.5t-6 14.5z" />
    <glyph glyph-name="hyphen" unicode="-" horiz-adv-x="407" 
d="M93 257v27h221v-27h-221z" />
    <glyph glyph-name="period" unicode="." horiz-adv-x="162" 
d="M57 24q0 8 7.5 15t17.5 7q9 0 16 -7t7 -15q0 -10 -7 -17.5t-16 -7.5q-10 0 -17.5 7.5t-7.5 17.5z" />
    <glyph glyph-name="slash" unicode="/" horiz-adv-x="301" 
d="M-30 -199l338 908l23 -9l-337 -908z" />
    <glyph glyph-name="zero" unicode="0" horiz-adv-x="579" 
d="M73 350q0 164 53 261t163 97q75 0 124.5 -48t70.5 -125.5t21 -184.5t-20.5 -184.5t-69.5 -125.5t-124 -48q-110 0 -164 97.5t-54 260.5zM103 350q0 -153 45.5 -242t142.5 -89q185 0 185 331t-187 331q-186 0 -186 -331z" />
    <glyph glyph-name="one" unicode="1" horiz-adv-x="366" 
d="M53 584l152 123h19v-707h-29v664l-125 -102z" />
    <glyph glyph-name="two" unicode="2" horiz-adv-x="531" 
d="M56 0v24l81.5 81.5t88 97t89.5 113.5t60.5 110.5t26.5 108.5q0 59 -39.5 102t-111.5 43q-56 0 -103 -35t-57 -105l-25 8q9 76 64.5 118t120.5 42q88 0 134.5 -51t46.5 -116q0 -55 -31 -124t-69.5 -124t-94.5 -118t-84 -90.5l-60 -57.5h372v-27h-409z" />
    <glyph glyph-name="three" unicode="3" horiz-adv-x="534" 
d="M251 -9q-66 0 -119 30t-79 93l19 18q25 -58 74.5 -85t107.5 -27q79 0 127 48t48 121q0 68 -46.5 111.5t-113.5 43.5h-64v28h57q54 0 97 47t43 113q0 72 -41 110t-110 38q-117 0 -161 -104l-18 15q19 55 67 86.5t113 31.5q84 0 131.5 -46.5t47.5 -129.5q0 -55 -30 -102.5
t-83 -67.5v-3q64 -9 102 -58.5t38 -112.5q0 -89 -58 -143.5t-149 -54.5z" />
    <glyph glyph-name="four" unicode="4" horiz-adv-x="528" 
d="M354 0v193h-327v17l320 490h33l-313 -478h287v228h28v-228h108v-29h-108v-193h-28z" />
    <glyph glyph-name="five" unicode="5" horiz-adv-x="520" 
d="M126 378l41 322h293v-28h-269l-34 -262q40 12 79 12q99 0 160.5 -57.5t61.5 -151.5q0 -99 -61 -160.5t-146 -61.5q-61 0 -114 28.5t-84 86.5l19 19q28 -52 77 -78.5t102 -26.5q76 0 127 54.5t51 137.5q0 79 -56 131.5t-145 52.5q-50 0 -102 -18z" />
    <glyph glyph-name="six" unicode="6" horiz-adv-x="547" 
d="M57 248q0 92 30 175t78.5 140.5t107 95t118.5 50.5l13 -22q-115 -26 -206 -128.5t-109 -264.5q22 57 73 95t123 38q94 0 149.5 -60t55.5 -156q0 -92 -60.5 -156t-140.5 -64q-111 0 -171.5 74t-60.5 183zM87 249q0 -95 52.5 -162t148.5 -67q71 0 122 55.5t51 133.5
q0 83 -48 137t-135 54q-77 0 -127.5 -46.5t-63.5 -104.5z" />
    <glyph glyph-name="seven" unicode="7" horiz-adv-x="466" 
d="M37 672v28h391v-15l-274 -685h-32l269 672h-354z" />
    <glyph glyph-name="eight" unicode="8" horiz-adv-x="588" 
d="M276 374h36q54 0 99 44.5t45 107.5q0 71 -49 112.5t-115 41.5q-65 0 -113 -42t-48 -112q0 -63 45.5 -107.5t99.5 -44.5zM310 346h-29q-72 0 -123.5 -46.5t-51.5 -114.5q0 -71 55.5 -118t131.5 -47q79 0 134 45.5t55 119.5q0 73 -50 117t-122 44zM294 -9q-88 0 -153 52
t-65 138q0 63 41 113t110 64v3q-53 14 -89 63t-36 103q0 81 55 131.5t136 50.5t137 -50.5t56 -131.5q0 -53 -34 -99.5t-92 -65.5v-3q67 -7 109 -56.5t42 -119.5q0 -87 -64.5 -139.5t-152.5 -52.5z" />
    <glyph glyph-name="nine" unicode="9" horiz-adv-x="546" 
d="M489 451q0 -190 -94.5 -314t-242.5 -146l-11 23q133 23 219 125.5t97 264.5q-21 -55 -72 -89.5t-123 -34.5q-93 0 -150 62t-57 151q0 91 64.5 153.5t145.5 62.5q111 0 167.5 -73.5t56.5 -184.5zM459 450q0 96 -48.5 163t-143.5 67q-72 0 -127.5 -54.5t-55.5 -130.5
q0 -77 49 -132.5t135 -55.5q77 0 127.5 43t63.5 100z" />
    <glyph glyph-name="colon" unicode=":" horiz-adv-x="324" 
d="M138 436q0 8 7.5 15t17.5 7q9 0 16 -7t7 -15q0 -10 -7 -17.5t-16 -7.5q-10 0 -17.5 7.5t-7.5 17.5zM138 24q0 8 7.5 15t17.5 7q9 0 16 -7t7 -15q0 -10 -7 -17.5t-16 -7.5q-10 0 -17.5 7.5t-7.5 17.5z" />
    <glyph glyph-name="semicolon" unicode=";" horiz-adv-x="326" 
d="M138 436q0 8 7.5 15t17.5 7q9 0 16 -7t7 -15q0 -10 -7 -17.5t-16 -7.5q-10 0 -17.5 7.5t-7.5 17.5zM137 21q0 10 7.5 16.5t19.5 6.5q19 0 34 -20.5t15 -54.5q0 -44 -25 -75t-62 -41l-7 15q25 8 46 31.5t23 56.5q1 43 -18 54q-1 -10 -14 -10q-7 0 -13 6.5t-6 14.5z" />
    <glyph glyph-name="less" unicode="&#x3c;" 
d="M473 97l-403 259v12l403 256v-31l-363 -231l363 -233v-32z" />
    <glyph glyph-name="equal" unicode="=" 
d="M73 430v26h440v-26h-440zM73 264v26h440v-26h-440z" />
    <glyph glyph-name="greater" unicode="&#x3e;" 
d="M516 356l-403 -259v32l363 233l-363 231v31l403 -256v-12z" />
    <glyph glyph-name="question" unicode="?" horiz-adv-x="455" 
d="M388 535q0 63 -46 104t-118 41q-102 0 -166 -88l-18 17q28 44 78.5 72t108.5 28q89 0 139.5 -48.5t50.5 -120.5q0 -44 -15.5 -78t-38.5 -54.5t-50.5 -41.5l-50.5 -38.5t-38.5 -45t-15.5 -61.5q0 -20 4 -39l-26 -2q-5 21 -5 46q0 42 21.5 74t51.5 53.5l60.5 44t52 57
t21.5 80.5zM171 24q0 8 7.5 15t17.5 7q9 0 16 -7t7 -15q0 -10 -7 -17.5t-16 -7.5q-10 0 -17.5 7.5t-7.5 17.5z" />
    <glyph glyph-name="at" unicode="@" horiz-adv-x="1021" 
d="M674 0v67q-28 -32 -73 -54t-91 -22q-101 0 -162.5 64t-61.5 170q0 99 70.5 166.5t174.5 67.5q95 0 171 -48v-384h21q90 0 142.5 70.5t52.5 168.5q0 159 -113 262.5t-285 103.5q-180 0 -298.5 -117t-118.5 -290q0 -171 119 -289t298 -118q57 0 108 12l5 -26
q-58 -13 -113 -13q-192 0 -318 125.5t-126 308.5q0 182 126 308t318 126q184 0 304.5 -110t120.5 -282q0 -108 -59.5 -187.5t-167.5 -79.5h-44zM514 18q47 0 93 25.5t67 55.5v294q-63 39 -144 39q-90 0 -152.5 -60.5t-62.5 -147.5q0 -95 54.5 -150.5t144.5 -55.5z" />
    <glyph glyph-name="A" unicode="A" horiz-adv-x="690" 
d="M26 0l308 707h22l308 -707h-32l-113 260h-350l-112 -260h-31zM344 663l-163 -375h326z" />
    <glyph glyph-name="B" unicode="B" horiz-adv-x="617" 
d="M116 0v700q17 0 81.5 1t95.5 1q218 0 218 -172q0 -69 -43 -112t-107 -54v-2q86 -8 132.5 -52t46.5 -118q0 -99 -67 -146.5t-179 -47.5q-30 0 -95 1t-83 1zM296 346h-150v-318q14 0 68 -1t80 -1q103 0 159.5 42t56.5 126q0 72 -55.5 112t-158.5 40zM291 674q-83 0 -145 -2
v-299h156q76 0 127.5 42t51.5 111q0 148 -190 148z" />
    <glyph glyph-name="C" unicode="C" horiz-adv-x="657" 
d="M606 90l13 -23q-36 -35 -94.5 -55.5t-120.5 -20.5q-155 0 -251 98.5t-96 260.5q0 154 94 256.5t244 102.5q132 0 211 -65l-15 -21q-72 57 -195 57q-137 0 -222.5 -94t-85.5 -236q0 -148 88.5 -239t229.5 -91q118 0 200 70z" />
    <glyph glyph-name="D" unicode="D" horiz-adv-x="735" 
d="M116 0v700h11q25 0 74.5 1.5t83.5 1.5q102 0 179 -27.5t123 -76t68.5 -108.5t22.5 -130q0 -158 -104.5 -260.5t-296.5 -102.5q-28 0 -77.5 1t-76.5 1h-7zM283 675q-32 0 -73.5 -1.5t-63.5 -1.5v-644h38t36 -0.5t29 -1t20.5 -0.5h8.5q177 0 273 94.5t96 240.5
q0 138 -90.5 226t-273.5 88z" />
    <glyph glyph-name="E" unicode="E" horiz-adv-x="575" 
d="M116 0v700h380v-28h-350v-302h320v-28h-320v-314h360v-28h-390z" />
    <glyph glyph-name="F" unicode="F" horiz-adv-x="544" 
d="M116 0v700h388v-28h-358v-322h328v-28h-328v-322h-30z" />
    <glyph glyph-name="G" unicode="G" horiz-adv-x="727" 
d="M413 296v28h247v-237q-45 -45 -119 -70.5t-143 -25.5q-152 0 -246.5 98.5t-94.5 260.5q0 153 93.5 256t242.5 103q132 0 214 -65l-15 -23q-70 59 -195 59q-138 0 -223.5 -94t-85.5 -236q0 -149 86.5 -239.5t225.5 -90.5q64 0 129 22.5t102 59.5v194h-218z" />
    <glyph glyph-name="H" unicode="H" horiz-adv-x="772" 
d="M627 0v343h-481v-343h-30v700h30v-329h481v329h29v-700h-29z" />
    <glyph glyph-name="I" unicode="I" horiz-adv-x="316" 
d="M143 0v700h30v-700h-30z" />
    <glyph glyph-name="J" unicode="J" horiz-adv-x="350" 
d="M233 700v-550q0 -77 -29 -118t-100 -41q-52 0 -87 29l12 23q31 -23 72 -23q60 0 81.5 35t21.5 98v547h29z" />
    <glyph glyph-name="K" unicode="K" horiz-adv-x="624" 
d="M577 700l-344 -333l356 -367h-43l-354 365l344 335h41zM116 0v700h30v-700h-30z" />
    <glyph glyph-name="L" unicode="L" horiz-adv-x="554" 
d="M116 0v700h30v-672h389v-28h-419z" />
    <glyph glyph-name="M" unicode="M" horiz-adv-x="877" 
d="M116 0v700h31l297 -405l288 405h29v-700h-29v655l-287 -404h-5l-294 401v-652h-30z" />
    <glyph glyph-name="N" unicode="N" horiz-adv-x="799" 
d="M683 0h-24l-515 646v-646h-28v700h24l514 -648v648h29v-700z" />
    <glyph glyph-name="O" unicode="O" horiz-adv-x="807" 
d="M57 350q0 152 99 255.5t247 103.5q147 0 246.5 -102.5t99.5 -256.5q0 -153 -99.5 -256t-246.5 -103t-246.5 102.5t-99.5 256.5zM88 350q0 -141 90.5 -235.5t224.5 -94.5q135 0 225 94.5t90 235.5t-90.5 235.5t-224.5 94.5t-224.5 -94.5t-90.5 -235.5z" />
    <glyph glyph-name="P" unicode="P" horiz-adv-x="575" 
d="M146 0h-30v700q20 0 81 1t79 1q69 0 118 -17.5t74.5 -48.5t37 -65t11.5 -75q0 -88 -61 -148.5t-185 -60.5q-53 0 -125 5v-292zM279 674q-67 0 -133 -2v-352q72 -5 123 -5q107 0 162.5 50.5t55.5 131.5q0 80 -50.5 128.5t-157.5 48.5z" />
    <glyph glyph-name="Q" unicode="Q" horiz-adv-x="807" 
d="M57 350q0 152 99 255.5t247 103.5q147 0 246.5 -102.5t99.5 -256.5q0 -169 -118 -274l64 -76h-38l-48 58q-91 -67 -206 -67q-147 0 -246.5 102.5t-99.5 256.5zM88 350q0 -141 90.5 -235.5t224.5 -94.5q107 0 187 61l-61 75l19 18l64 -76q106 96 106 252
q0 141 -90.5 235.5t-224.5 94.5t-224.5 -94.5t-90.5 -235.5z" />
    <glyph glyph-name="R" unicode="R" horiz-adv-x="621" 
d="M146 0h-30v700q22 0 82.5 1t68.5 1q242 0 242 -196q0 -71 -49 -125t-128 -69l254 -312h-37l-249 306h-154v-306zM265 674q-53 0 -119 -2v-338h136q75 0 135.5 49.5t60.5 122.5q0 168 -213 168z" />
    <glyph glyph-name="S" unicode="S" horiz-adv-x="543" 
d="M455 170q0 44 -21 77t-54.5 52t-73.5 34.5l-80.5 31.5t-74 36.5t-54.5 55.5t-21 83q0 74 53.5 121.5t146.5 47.5q56 0 105.5 -19.5t78.5 -51.5l-17 -21q-62 63 -168 63q-77 0 -122.5 -38.5t-45.5 -101.5q0 -50 28 -85t70 -52l91.5 -36.5t91.5 -38.5t70 -59.5t28 -97.5
q0 -81 -62.5 -130.5t-156.5 -49.5q-62 0 -123 27.5t-87 71.5l19 20q30 -41 83.5 -65.5t105.5 -24.5q78 0 134 39.5t56 110.5z" />
    <glyph glyph-name="T" unicode="T" horiz-adv-x="591" 
d="M10 672v28h571v-28h-271v-672h-29v672h-271z" />
    <glyph glyph-name="U" unicode="U" horiz-adv-x="751" 
d="M645 700v-406q0 -151 -73.5 -226t-186.5 -75q-124 0 -201.5 80t-77.5 228v399h30v-395q0 -135 69 -209.5t180 -74.5q103 0 166.5 70t63.5 210v399h30z" />
    <glyph glyph-name="V" unicode="V" horiz-adv-x="656" 
d="M640 700l-299 -707h-19l-306 707h32l285 -660l276 660h31z" />
    <glyph glyph-name="W" unicode="W" horiz-adv-x="948" 
d="M930 700l-205 -700h-23l-226 647l-220 -647h-23l-216 700h33l197 -641l218 641h24l224 -642l188 642h29z" />
    <glyph glyph-name="X" unicode="X" horiz-adv-x="657" 
d="M613 700l-265 -344l274 -356h-36l-258 333l-257 -333h-36l275 356l-264 344h36l247 -321l248 321h36z" />
    <glyph glyph-name="Y" unicode="Y" horiz-adv-x="567" 
d="M550 700l-253 -389v-311h-29v311l-251 389h35l231 -361l233 361h34z" />
    <glyph glyph-name="Z" unicode="Z" horiz-adv-x="624" 
d="M60 672v28h514v-16l-491 -656h501v-28h-544v16l490 656h-470z" />
    <glyph glyph-name="bracketleft" unicode="[" horiz-adv-x="276" 
d="M60 -200v850h213v-27h-185v-796h185v-27h-213z" />
    <glyph glyph-name="backslash" unicode="\" horiz-adv-x="301" 
d="M-7 709l338 -908l-24 -9l-337 908z" />
    <glyph glyph-name="bracketright" unicode="]" horiz-adv-x="276" 
d="M216 650v-850h-213v27h184v796h-184v27h213z" />
    <glyph glyph-name="asciicircum" unicode="^" horiz-adv-x="470" 
d="M55 450l172 258h17l171 -258h-32l-147 226l-150 -226h-31z" />
    <glyph glyph-name="underscore" unicode="_" horiz-adv-x="266" 
d="M0 -200v28h266v-28h-266z" />
    <glyph glyph-name="grave" unicode="`" horiz-adv-x="250" 
d="M172 552l-112 141l21 17l109 -146z" />
    <glyph glyph-name="a" unicode="a" horiz-adv-x="457" 
d="M91 394l-9 24q65 41 138 41q87 0 124.5 -45t37.5 -133v-281h-28v78q-61 -83 -167 -83q-63 0 -101.5 35.5t-38.5 93.5q0 65 47.5 101t123.5 36q84 0 136 -37q0 37 -1 59t-5 49.5t-13 43t-24 30t-38.5 20.5t-55.5 6q-61 0 -126 -38zM193 22q42 0 76 14.5t50 30.5t35 40v90
q-56 40 -134 40q-58 0 -100.5 -28t-42.5 -83q0 -48 33 -76t83 -28z" />
    <glyph glyph-name="b" unicode="b" horiz-adv-x="550" 
d="M85 46v654h29v-316q28 32 75 53.5t95 21.5q100 0 157.5 -63t57.5 -164q0 -110 -67 -175.5t-174 -65.5q-104 0 -173 55zM279 432q-50 0 -96.5 -24.5t-68.5 -54.5v-289q64 -46 146 -46q91 0 150 57t59 153q0 93 -51 148.5t-139 55.5z" />
    <glyph glyph-name="c" unicode="c" horiz-adv-x="491" 
d="M439 83l14 -19q-28 -35 -72.5 -54t-93.5 -19q-104 0 -169.5 64t-65.5 170q0 98 63.5 166t156.5 68q113 0 172 -55l-14 -23q-58 51 -153 51q-81 0 -138.5 -59.5t-57.5 -147.5q0 -94 58.5 -150.5t149.5 -56.5q45 0 85 18t65 47z" />
    <glyph glyph-name="d" unicode="d" horiz-adv-x="553" 
d="M439 0v71q-29 -34 -73 -56.5t-91 -22.5q-101 0 -162 63t-61 169q0 103 69.5 169t173.5 66q84 0 144 -45v286h28v-700h-28zM279 19q46 0 91 25t69 55v287q-66 46 -144 46q-91 0 -152.5 -58t-61.5 -149q0 -94 54.5 -150t143.5 -56z" />
    <glyph glyph-name="e" unicode="e" horiz-adv-x="527" 
d="M441 80l11 -21q-28 -33 -72.5 -50.5t-91.5 -17.5q-104 0 -170 64t-66 170q0 103 58 168.5t165 65.5q88 0 144.5 -55.5t56.5 -146.5q0 -13 -2 -31h-391q1 -96 57 -152t149 -56q95 0 152 62zM271 432q-84 0 -134 -50.5t-56 -131.5h366q1 84 -47 133t-129 49z" />
    <glyph glyph-name="f" unicode="f" horiz-adv-x="338" 
d="M103 0v523q0 186 153 186q69 0 112 -37l-11 -22q-44 32 -98 32q-128 0 -128 -168v-64h191v-27h-191v-423h-28z" />
    <glyph glyph-name="g" unicode="g" horiz-adv-x="487" 
d="M17 -69q0 52 37 86t103 47q-17 19 -17 46q0 30 19 49q-44 19 -69 56.5t-25 85.5q0 68 48.5 113t124.5 45q68 0 113 -36l126 35v-27l-103 -28q37 -42 37 -102q0 -68 -48 -112.5t-125 -44.5q-33 0 -57 7q-14 -15 -14 -41t18 -42q34 4 54 4q101 0 161.5 -37t60.5 -104
t-60.5 -103t-161.5 -36t-161.5 36t-60.5 103zM47 -69q0 -52 52.5 -82t139.5 -30q88 0 140 29.5t52 82.5t-52.5 83.5t-139.5 30.5t-139.5 -30.5t-52.5 -83.5zM95 301q0 -57 40 -93.5t103 -36.5t103 36.5t40 93.5t-40 94t-103 37t-103 -37t-40 -94z" />
    <glyph glyph-name="h" unicode="h" horiz-adv-x="553" 
d="M85 0v700h29v-318q28 33 76.5 54.5t96.5 21.5q96 0 143 -49.5t47 -154.5v-254h-28v248q0 93 -41 138t-126 45q-50 0 -97.5 -23t-70.5 -54v-354h-29z" />
    <glyph glyph-name="i" unicode="i" horiz-adv-x="255" 
d="M113 0v450h28v-450h-28zM105 629q0 9 7 15.5t16 6.5q8 0 14.5 -6.5t6.5 -15.5q0 -10 -6.5 -16.5t-14.5 -6.5q-9 0 -16 6.5t-7 16.5z" />
    <glyph glyph-name="j" unicode="j" horiz-adv-x="257" 
d="M143 450v-483q0 -175 -141 -175q-49 0 -85 26l10 23q32 -22 71 -22q117 0 117 149v482h28zM106 629q0 9 7 15.5t16 6.5q8 0 14.5 -6.5t6.5 -15.5q0 -10 -6.5 -16.5t-14.5 -6.5q-9 0 -16 6.5t-7 16.5z" />
    <glyph glyph-name="k" unicode="k" horiz-adv-x="457" 
d="M414 450l-225 -213l244 -237h-40l-240 235l223 215h38zM85 0v700h29v-700h-29z" />
    <glyph glyph-name="l" unicode="l" horiz-adv-x="276" 
d="M85 113v587h29v-566q0 -58 16.5 -84.5t56.5 -26.5q39 0 70 23l9 -23q-37 -27 -87 -27q-49 0 -71.5 28.5t-22.5 88.5z" />
    <glyph glyph-name="m" unicode="m" horiz-adv-x="807" 
d="M731 296v-296h-28v288q0 143 -128 143q-51 0 -91 -23t-64 -61q2 -8 2 -31v-316h-28v316q0 52 -33.5 83.5t-94.5 31.5q-48 0 -89 -23.5t-63 -55.5v-352h-29v450h29v-68q25 34 69.5 55t90.5 21q54 0 91.5 -23t50.5 -64q24 39 70.5 63t96.5 24q148 0 148 -162z" />
    <glyph glyph-name="n" unicode="n" horiz-adv-x="553" 
d="M85 0v450h29v-68q28 32 76.5 54t96.5 22q96 0 143 -49.5t47 -154.5v-254h-28v248q0 93 -41 138t-126 45q-50 0 -97 -23t-71 -54v-354h-29z" />
    <glyph glyph-name="o" unicode="o" horiz-adv-x="569" 
d="M52 225q0 102 65 168t167 66t167.5 -66t65.5 -168t-65.5 -168t-167.5 -66t-167 66t-65 168zM81 225q0 -91 57 -149t146 -58t146 58t57 149t-57 149t-146 58t-146 -58t-57 -149z" />
    <glyph glyph-name="p" unicode="p" horiz-adv-x="552" 
d="M85 -200v650h29v-66q27 33 75 54t98 21q99 0 156.5 -63t57.5 -164q0 -104 -63.5 -172.5t-165.5 -68.5q-98 0 -158 45v-236h-29zM281 432q-51 0 -97.5 -22.5t-69.5 -53.5v-290q67 -48 157 -48q89 0 144.5 59t55.5 152q0 92 -50.5 147.5t-139.5 55.5z" />
    <glyph glyph-name="q" unicode="q" horiz-adv-x="553" 
d="M440 -200v262q-28 -31 -72.5 -51t-89.5 -20q-102 0 -164 64t-62 170q0 99 70.5 166.5t174.5 67.5q95 0 171 -48v-611h-28zM281 18q47 0 92.5 23.5t66.5 52.5v299q-63 39 -144 39q-90 0 -152.5 -60.5t-62.5 -147.5q0 -94 54.5 -150t145.5 -56z" />
    <glyph glyph-name="r" unicode="r" horiz-adv-x="320" 
d="M85 0v450h29v-65q47 73 127 73q47 0 70 -17l-9 -27q-29 17 -65 17q-74 0 -123 -79v-352h-29z" />
    <glyph glyph-name="s" unicode="s" horiz-adv-x="409" 
d="M323 114q0 31 -19 51.5t-47 30.5l-61 22t-61 24t-47 38.5t-19 65.5q0 50 37.5 81.5t99.5 31.5q39 0 74.5 -13.5t54.5 -34.5l-14 -21q-41 43 -116 43q-48 0 -77.5 -25t-29.5 -61q0 -33 19 -55t47 -32.5l61 -22t61 -23t47 -37t19 -61.5q0 -61 -43 -93t-108 -32
q-42 0 -85.5 19t-59.5 43l18 18q17 -24 55 -39t73 -15q50 0 85.5 25t35.5 72z" />
    <glyph glyph-name="t" unicode="t" horiz-adv-x="344" 
d="M75 171v404h29v-125h194v-27h-194v-243q0 -80 27.5 -119t89.5 -39q41 0 73 24l12 -23q-40 -28 -90 -28q-74 0 -107.5 44t-33.5 132z" />
    <glyph glyph-name="u" unicode="u" horiz-adv-x="547" 
d="M462 450v-450h-28v78q-29 -36 -79 -61.5t-102 -25.5q-178 0 -178 203v256h29v-249q0 -93 38 -138t120 -45q51 0 99 27.5t73 61.5v343h28z" />
    <glyph glyph-name="v" unicode="v" horiz-adv-x="469" 
d="M452 450l-206 -457h-17l-213 457h33l147 -318l43 -97q23 58 43 101l140 314h30z" />
    <glyph glyph-name="w" unicode="w" horiz-adv-x="684" 
d="M666 450l-147 -457h-21l-135 356q-14 38 -20 58q-4 -10 -11 -30.5l-11 -31.5l-132 -352h-19l-153 457h31l113 -342q5 -13 12.5 -38t8.5 -29q5 12 13 34.5t12 32.5l126 342h21l128 -340l26 -70q7 25 23 75l106 335h29z" />
    <glyph glyph-name="x" unicode="x" horiz-adv-x="485" 
d="M439 450l-177 -218l187 -232h-35l-172 212l-172 -212h-34l187 231l-177 219h35l161 -200l163 200h34z" />
    <glyph glyph-name="y" unicode="y" horiz-adv-x="472" 
d="M455 450l-184 -450q-48 -117 -84.5 -158.5t-82.5 -41.5q-32 0 -70 19l10 22q33 -15 56 -15q39 0 70 35t64 115l10 24l-227 450h33l173 -345q19 -36 35 -73q9 25 29 75l136 343h32z" />
    <glyph glyph-name="z" unicode="z" horiz-adv-x="478" 
d="M64 423v27h365v-16l-338 -407h333v-27h-375v16l336 407h-321z" />
    <glyph glyph-name="braceleft" unicode="{" horiz-adv-x="294" 
d="M110 -80v194q0 54 -27 76.5t-63 21.5v26q35 0 62.5 25t27.5 85v179q0 60 25 91.5t84 31.5h55v-27h-50q-46 0 -66 -24.5t-20 -78.5v-180q0 -48 -20.5 -78.5t-54.5 -35.5q75 -9 75 -114v-184q0 -101 92 -101h44v-27h-52q-112 0 -112 120z" />
    <glyph glyph-name="bar" unicode="|" horiz-adv-x="315" 
d="M143 0v700h29v-700h-29z" />
    <glyph glyph-name="braceright" unicode="}" horiz-adv-x="294" 
d="M184 114v-194q0 -120 -112 -120h-52v27h44q92 0 92 101v184q0 105 75 114q-34 5 -54.5 35.5t-20.5 78.5v180q0 54 -20 78.5t-66 24.5h-50v27h55q59 0 84 -31t25 -92v-179q0 -60 27.5 -85t62.5 -25v-26q-36 1 -63 -21.5t-27 -76.5z" />
    <glyph glyph-name="asciitilde" unicode="~" 
d="M79 335l-16 19q60 57 121 57q42 0 117 -37t113 -37q48 0 95 46l14 -20q-55 -52 -110 -52q-40 0 -115.5 37.5t-114.5 37.5q-51 0 -104 -51z" />
    <glyph glyph-name="uni00A0" unicode="&#xa0;" horiz-adv-x="243" 
 />
    <glyph glyph-name="exclamdown" unicode="&#xa1;" horiz-adv-x="310" 
d="M171 284v-526h-30v526h30zM180 434q0 -8 -7.5 -15t-17.5 -7q-9 0 -16 7t-7 15q0 10 7 17.5t16 7.5q10 0 17.5 -7.5t7.5 -17.5z" />
    <glyph glyph-name="cent" unicode="&#xa2;" 
d="M481 83l14 -19q-55 -70 -160 -73v-111h-28v112q-96 7 -154.5 70t-58.5 163q0 96 61 163.5t152 70.5v109h28v-110q98 -5 151 -54l-14 -23q-58 51 -153 51q-81 0 -138.5 -59.5t-57.5 -147.5q0 -94 58.5 -150.5t149.5 -56.5q45 0 85 18t65 47z" />
    <glyph glyph-name="sterling" unicode="&#xa3;" 
d="M85 290v24h78q-5 16 -22 52.5t-25.5 70t-8.5 77.5q0 78 55 136t146 58q56 0 105 -19.5t78 -51.5l-16 -21q-64 64 -169 64q-74 0 -121.5 -50.5t-47.5 -116.5q0 -43 9 -76t25.5 -68t22.5 -55h181v-24h-175q6 -26 6 -57q0 -90 -51 -160q15 3 30 3q40 0 115 -26t112 -26
q60 0 112 49l15 -21q-57 -56 -129 -56q-38 0 -114 26t-114 26q-62 0 -118 -55l-15 22q34 32 72 49q56 66 56 166q0 28 -7 60h-85z" />
    <glyph glyph-name="currency" unicode="&#xa4;" 
d="M72 349q0 86 53 150l-95 96l18 18l95 -95q60 58 151 58q90 0 151 -58l101 101l18 -18l-101 -102q53 -64 53 -150t-53 -150l96 -98l-18 -18l-96 97q-60 -58 -151 -58t-151 57l-103 -102l-18 18l103 104q-53 64 -53 150zM99 349q0 -84 53.5 -143t141.5 -59t141.5 59
t53.5 143t-53.5 142.5t-141.5 58.5t-141.5 -59t-53.5 -142z" />
    <glyph glyph-name="yen" unicode="&#xa5;" 
d="M73 310v25h189l-231 365h35l227 -361l228 361h34l-233 -365h190v-25h-205v-138h205v-24h-205v-148h-30v148h-204v24h204v138h-204z" />
    <glyph glyph-name="brokenbar" unicode="&#xa6;" horiz-adv-x="315" 
d="M172 440h-29v260h29v-260zM143 260h29v-260h-29v260z" />
    <glyph glyph-name="section" unicode="&#xa7;" horiz-adv-x="524" 
d="M76 249q0 70 43 119t112 59q-44 18 -74.5 52.5t-30.5 82.5q0 60 40.5 99t105.5 39q80 0 124 -58l-17 -20q-15 16 -23 23.5t-31.5 17.5t-53.5 10q-49 0 -83 -33t-34 -81t35 -81t85 -50q76 -4 125 -54t49 -125q0 -69 -43 -118t-112 -59q44 -19 73.5 -53t29.5 -81
q0 -60 -40.5 -99t-105.5 -39q-80 0 -124 58l17 20q15 -16 23 -23.5t31.5 -17.5t53.5 -10q49 0 83 33t34 81t-35 80.5t-85 48.5q-75 5 -123.5 55t-48.5 124zM104 249q0 -66 47.5 -110t110.5 -44q65 0 111.5 44t46.5 110q0 67 -46.5 111t-111.5 44t-111.5 -44t-46.5 -111z" />
    <glyph glyph-name="dieresis" unicode="&#xa8;" horiz-adv-x="374" 
d="M60 626q0 8 6.5 14.5t15.5 6.5q8 0 14 -6.5t6 -14.5q0 -10 -6 -16.5t-14 -6.5q-9 0 -15.5 6.5t-6.5 16.5zM271 626q0 8 6.5 14.5t15.5 6.5q8 0 14.5 -6.5t6.5 -14.5q0 -10 -6 -16.5t-15 -6.5t-15.5 6.5t-6.5 16.5z" />
    <glyph glyph-name="copyright" unicode="&#xa9;" horiz-adv-x="1018" 
d="M79 221q0 180 123 305t307 125t307 -125t123 -305t-123 -305t-307 -125t-307 125t-123 305zM104 221q0 -169 116 -287t289 -118t289 118t116 287t-116 287t-289 118t-289 -118t-116 -287zM669 83l14 -19q-28 -35 -72.5 -54t-93.5 -19q-104 0 -169.5 64t-65.5 170
q0 98 63.5 166t156.5 68q113 0 172 -55l-14 -23q-58 51 -153 51q-81 0 -138.5 -59.5t-57.5 -147.5q0 -94 58.5 -150.5t149.5 -56.5q45 0 85 18t65 47z" />
    <glyph glyph-name="ordfeminine" unicode="&#xaa;" horiz-adv-x="395" 
d="M104 604l-14 17q44 37 106 37q59 0 90.5 -30.5t31.5 -87.5v-189h-26v54q-41 -57 -124 -57q-49 0 -80 27.5t-31 66.5q0 46 33 71.5t90 25.5q70 0 112 -28v23q0 101 -101 101q-44 0 -87 -31zM176 371q71 0 116 53v68q-44 27 -107 27q-42 0 -71.5 -20t-29.5 -55
q0 -32 27 -52.5t65 -20.5z" />
    <glyph glyph-name="guillemotleft" unicode="&#xab;" horiz-adv-x="485" 
d="M391 43l-175 205v4l176 203l19 -17l-163 -188l161 -189zM231 43l-175 205v4l176 203l19 -17l-163 -188l161 -189z" />
    <glyph glyph-name="logicalnot" unicode="&#xac;" 
d="M71 347v26h444v-157h-25v131h-419z" />
    <glyph glyph-name="uni00AD" unicode="&#xad;" horiz-adv-x="407" 
d="M93 257v27h221v-27h-221z" />
    <glyph glyph-name="registered" unicode="&#xae;" horiz-adv-x="551" 
d="M57 496q0 91 64 154.5t155 63.5t154.5 -63.5t63.5 -154.5t-63.5 -154.5t-154.5 -63.5t-155 63.5t-64 154.5zM82 496q0 -80 57 -137t137 -57t137 57t57 137t-57 137t-137 57t-137 -57t-57 -137zM218 360h-22v280h71q98 0 98 -79q0 -28 -19 -50t-51 -29l97 -122h-28
l-94 119h-52v-119zM265 622h-47v-125h54q27 0 49 18t22 46q0 29 -20 45t-58 16z" />
    <glyph glyph-name="macron" unicode="&#xaf;" horiz-adv-x="362" 
d="M60 624v25h242v-25h-242z" />
    <glyph glyph-name="degree" unicode="&#xb0;" horiz-adv-x="388" 
d="M57 570q0 57 40 96.5t97 39.5t96.5 -39t39.5 -96t-40 -97.5t-96 -40.5q-57 0 -97 40t-40 97zM83 570q0 -46 32.5 -78.5t78.5 -32.5t78.5 32.5t32.5 78.5t-32.5 78.5t-78.5 32.5t-78.5 -32.5t-32.5 -78.5z" />
    <glyph glyph-name="plusminus" unicode="&#xb1;" 
d="M73 421v26h206v205h26v-205h208v-26h-208v-153h-26v153h-206zM73 180v26h440v-26h-440z" />
    <glyph glyph-name="twosuperior" unicode="&#xb2;" horiz-adv-x="330" 
d="M42 350v20q3 2 31 22.5l39.5 29.5l37.5 30.5t39 36.5l29.5 35t23.5 39.5t7 38.5q0 34 -22 56.5t-64 22.5q-32 0 -59.5 -17.5t-33.5 -50.5l-22 7q6 39 40 61.5t75 22.5q56 0 84.5 -29t28.5 -73q0 -99 -198 -229h218v-23h-254z" />
    <glyph glyph-name="threesuperior" unicode="&#xb3;" horiz-adv-x="335" 
d="M160 346q-93 0 -124 64l17 13q26 -55 106 -55q46 0 73.5 22.5t27.5 56.5q0 31 -26 51t-65 20h-38v21h34q31 0 55.5 21.5t24.5 52.5q0 34 -23.5 51.5t-63.5 17.5q-71 0 -96 -52l-15 14q26 60 114 60q52 0 81.5 -23t29.5 -64q0 -28 -18.5 -52t-51.5 -33v-1q39 -4 62 -29
t23 -57q0 -45 -36 -72t-91 -27z" />
    <glyph glyph-name="acute" unicode="&#xb4;" horiz-adv-x="250" 
d="M190 693l-112 -141l-18 12l109 146z" />
    <glyph glyph-name="mu" unicode="&#xb5;" horiz-adv-x="549" 
d="M463 450v-450h-28v78q-29 -36 -79 -61.5t-102 -25.5q-108 0 -149 70v-261h-29v650h29v-249q0 -93 38 -138t120 -45q51 0 99 27.5t73 61.5v343h28z" />
    <glyph glyph-name="mu" unicode="&#x3bc;" horiz-adv-x="549" 
d="M463 450v-450h-28v78q-29 -36 -79 -61.5t-102 -25.5q-108 0 -149 70v-261h-29v650h29v-249q0 -93 38 -138t120 -45q51 0 99 27.5t73 61.5v343h28z" />
    <glyph glyph-name="paragraph" unicode="&#xb6;" horiz-adv-x="417" 
d="M56 481q0 102 54 160.5t149 58.5h120v-27h-94v-715q0 -81 -30 -123.5t-102 -42.5q-52 0 -89 29l13 22q32 -24 74 -24q62 0 84 36.5t22 101.5v306q-88 1 -144.5 59.5t-56.5 158.5z" />
    <glyph glyph-name="periodcentered" unicode="&#xb7;" horiz-adv-x="243" 
d="M97 295q0 8 7.5 15t17.5 7q9 0 16 -7t7 -15q0 -10 -7 -17.5t-16 -7.5q-10 0 -17.5 7.5t-7.5 17.5z" />
    <glyph glyph-name="cedilla" unicode="&#xb8;" horiz-adv-x="312" 
d="M60 -178l10 17q38 -20 73 -20q36 0 58.5 15t22.5 39q0 54 -82 54h-6v73h19v-56q97 -1 97 -72q0 -33 -28.5 -53t-77.5 -20q-38 0 -86 23z" />
    <glyph glyph-name="onesuperior" unicode="&#xb9;" horiz-adv-x="228" 
d="M32 640l93 63h17v-353h-25v320l-74 -49z" />
    <glyph glyph-name="ordmasculine" unicode="&#xba;" horiz-adv-x="442" 
d="M59 502q0 68 46.5 112t115.5 44t115.5 -44t46.5 -112q0 -69 -46 -113t-116 -44t-116 44t-46 113zM86 502q0 -58 40.5 -95.5t94.5 -37.5q56 0 95.5 37.5t39.5 95.5t-40 95t-95 37t-95 -37t-40 -95z" />
    <glyph glyph-name="guillemotright" unicode="&#xbb;" horiz-adv-x="485" 
d="M428 248l-174 -205l-19 18l161 189l-163 188l19 17l176 -203v-4zM268 248l-174 -205l-19 18l161 189l-163 188l19 17l176 -203v-4z" />
    <glyph glyph-name="onequarter" unicode="&#xbc;" horiz-adv-x="643" 
d="M49 640l93 63h17v-353h-25v320l-74 -49zM57 5l527 704l17 -13l-526 -705zM535 0v93h-196v16l189 241h25l-184 -235h166v110h24v-110h64v-22h-64v-93h-24z" />
    <glyph glyph-name="onehalf" unicode="&#xbd;" horiz-adv-x="659" 
d="M49 640l93 63h17v-353h-25v320l-74 -49zM23 5l527 704l17 -13l-526 -705zM365 0v20q3 2 31 22.5l39.5 29.5l37.5 30.5t39 36.5l29.5 35t23.5 39.5t7 38.5q0 34 -22 56.5t-64 22.5q-32 0 -59.5 -17.5t-33.5 -50.5l-22 7q6 39 40 61.5t75 22.5q56 0 84.5 -29t28.5 -73
q0 -99 -198 -229h218v-23h-254z" />
    <glyph glyph-name="threequarters" unicode="&#xbe;" horiz-adv-x="679" 
d="M103 5l527 704l17 -13l-526 -705zM570 0v93h-196v16l189 241h25l-184 -235h166v110h24v-110h64v-22h-64v-93h-24zM161 346q-93 0 -124 64l17 13q26 -55 106 -55q46 0 73.5 22.5t27.5 56.5q0 31 -26 51t-65 20h-38v21h34q31 0 55.5 21.5t24.5 52.5q0 34 -23.5 51.5
t-63.5 17.5q-71 0 -96 -52l-15 14q26 60 114 60q52 0 81.5 -23t29.5 -64q0 -28 -18.5 -52t-51.5 -33v-1q39 -4 62 -29t23 -57q0 -45 -36 -72t-91 -27z" />
    <glyph glyph-name="questiondown" unicode="&#xbf;" horiz-adv-x="455" 
d="M67 -77q0 -63 46 -104t118 -41q102 0 166 88l18 -17q-28 -44 -78.5 -72t-108.5 -28q-89 0 -139.5 48.5t-50.5 120.5q0 51 21.5 89.5t52 61.5l61.5 44.5t52.5 52.5t21.5 71q0 20 -4 39l26 2q5 -21 5 -46q0 -42 -21.5 -74t-52 -53.5l-60.5 -44t-51.5 -57t-21.5 -80.5z
M284 434q0 -8 -7.5 -15t-17.5 -7q-9 0 -16 7t-7 15q0 10 7 17.5t16 7.5q10 0 17.5 -7.5t7.5 -17.5z" />
    <glyph glyph-name="Agrave" unicode="&#xc0;" horiz-adv-x="690" 
d="M26 0l308 707h22l308 -707h-32l-113 260h-350l-112 -260h-31zM344 663l-163 -375h326zM372 740l-166 89l11 23l165 -94z" />
    <glyph glyph-name="Aacute" unicode="&#xc1;" horiz-adv-x="690" 
d="M26 0l308 707h22l308 -707h-32l-113 260h-350l-112 -260h-31zM344 663l-163 -375h326zM488 829l-167 -89l-9 18l165 94z" />
    <glyph glyph-name="Acircumflex" unicode="&#xc2;" horiz-adv-x="690" 
d="M26 0l308 707h22l308 -707h-32l-113 260h-350l-112 -260h-31zM344 663l-163 -375h326zM177 757l166 94h4l167 -93l-15 -18l-154 85l-155 -85z" />
    <glyph glyph-name="Atilde" unicode="&#xc3;" horiz-adv-x="690" 
d="M26 0l308 707h22l308 -707h-32l-113 260h-350l-112 -260h-31zM344 663l-163 -375h326zM193 772l-11 18q39 35 81 35q31 0 83 -24t78 -24q41 0 73 35l11 -19q-38 -41 -85 -41q-28 0 -81.5 23.5t-82.5 23.5q-33 0 -66 -27z" />
    <glyph glyph-name="Adieresis" unicode="&#xc4;" horiz-adv-x="690" 
d="M26 0l308 707h22l308 -707h-32l-113 260h-350l-112 -260h-31zM344 663l-163 -375h326zM205 796q0 9 7 15t17 6q9 0 16 -6t7 -15q0 -10 -7 -16t-16 -6q-24 0 -24 22zM439 796q0 9 7 15t17 6q9 0 15.5 -6t6.5 -15q0 -10 -6.5 -16t-15.5 -6q-24 0 -24 22z" />
    <glyph glyph-name="Aring" unicode="&#xc5;" horiz-adv-x="690" 
d="M244 779q0 40 28 60.5t72 20.5q45 0 73.5 -20.5t28.5 -60.5q0 -35 -24 -56.5t-62 -25.5l304 -697h-32l-113 260h-350l-112 -260h-31l303 697q-38 4 -61.5 25.5t-23.5 56.5zM344 663l-163 -375h326zM267 779q0 -31 21.5 -47.5t55.5 -16.5q35 0 57 16.5t22 47.5t-22 46.5
t-57 15.5t-56 -15.5t-21 -46.5z" />
    <glyph glyph-name="AE" unicode="&#xc6;" horiz-adv-x="964" 
d="M895 0h-391v267h-276l-189 -267h-36l501 700h381v-28h-351v-302h321v-28h-321v-314h361v-28zM504 656l-256 -361h256v361z" />
    <glyph glyph-name="Ccedilla" unicode="&#xc7;" horiz-adv-x="657" 
d="M308 -177l10 17q40 -21 74 -21q36 0 58.5 15t22.5 39q0 54 -82 54h-6v65q-147 6 -237.5 103t-90.5 255q0 154 94 256.5t244 102.5q132 0 211 -65l-15 -21q-72 57 -195 57q-137 0 -222.5 -94t-85.5 -236q0 -148 88.5 -239t229.5 -91q118 0 200 70l13 -23
q-36 -35 -94.5 -55.5t-120.5 -20.5v-47q98 -1 98 -72q0 -33 -28.5 -53t-76.5 -20q-44 0 -89 24z" />
    <glyph glyph-name="Egrave" unicode="&#xc8;" horiz-adv-x="575" 
d="M116 0v700h380v-28h-350v-302h320v-28h-320v-314h360v-28h-390zM355 740l-166 89l11 23l165 -94z" />
    <glyph glyph-name="Eacute" unicode="&#xc9;" horiz-adv-x="575" 
d="M116 0v700h380v-28h-350v-302h320v-28h-320v-314h360v-28h-390zM421 829l-167 -89l-9 18l165 94z" />
    <glyph glyph-name="Ecircumflex" unicode="&#xca;" horiz-adv-x="575" 
d="M116 0v700h380v-28h-350v-302h320v-28h-320v-314h360v-28h-390zM140 757l166 94h4l167 -93l-15 -18l-154 85l-155 -85z" />
    <glyph glyph-name="Edieresis" unicode="&#xcb;" horiz-adv-x="575" 
d="M116 0v700h380v-28h-350v-302h320v-28h-320v-314h360v-28h-390zM168 796q0 9 7 15t17 6q9 0 16 -6t7 -15q0 -10 -7 -16t-16 -6q-24 0 -24 22zM402 796q0 9 7 15t17 6q9 0 15.5 -6t6.5 -15q0 -10 -6.5 -16t-15.5 -6q-24 0 -24 22z" />
    <glyph glyph-name="Igrave" unicode="&#xcc;" horiz-adv-x="316" 
d="M143 0v700h30v-700h-30zM173 740l-166 89l11 23l165 -94z" />
    <glyph glyph-name="Iacute" unicode="&#xcd;" horiz-adv-x="316" 
d="M143 0v700h30v-700h-30zM309 829l-167 -89l-9 18l165 94z" />
    <glyph glyph-name="Icircumflex" unicode="&#xce;" horiz-adv-x="316" 
d="M143 0v700h30v-700h-30zM-10 757l166 94h4l167 -93l-15 -18l-154 85l-155 -85z" />
    <glyph glyph-name="Idieresis" unicode="&#xcf;" horiz-adv-x="316" 
d="M143 0v700h30v-700h-30zM18 796q0 9 7 15t17 6q9 0 16 -6t7 -15q0 -10 -7 -16t-16 -6q-24 0 -24 22zM252 796q0 9 7 15t17 6q9 0 15.5 -6t6.5 -15q0 -10 -6.5 -16t-15.5 -6q-24 0 -24 22z" />
    <glyph glyph-name="Eth" unicode="&#xd0;" horiz-adv-x="761" 
d="M10 345v27h132v328h11q25 0 74.5 1.5t83.5 1.5q102 0 179 -27.5t123 -76t68.5 -108.5t22.5 -130q0 -158 -104.5 -260.5t-296.5 -102.5q-27 0 -77 1t-77 1h-7v345h-132zM309 675q-32 0 -73.5 -1.5t-63.5 -1.5v-300h206v-27h-206v-317h38t36 -0.5t29.5 -1t21 -0.5h8.5
q177 0 272.5 94.5t95.5 240.5q0 138 -90.5 226t-273.5 88z" />
    <glyph glyph-name="Ntilde" unicode="&#xd1;" horiz-adv-x="799" 
d="M683 0h-24l-515 646v-646h-28v700h24l514 -648v648h29v-700zM252 772l-11 18q39 35 81 35q31 0 83 -24t78 -24q41 0 73 35l11 -19q-38 -41 -85 -41q-28 0 -81.5 23.5t-82.5 23.5q-33 0 -66 -27z" />
    <glyph glyph-name="Ograve" unicode="&#xd2;" horiz-adv-x="807" 
d="M57 350q0 152 99 255.5t247 103.5q147 0 246.5 -102.5t99.5 -256.5q0 -153 -99.5 -256t-246.5 -103t-246.5 102.5t-99.5 256.5zM88 350q0 -141 90.5 -235.5t224.5 -94.5q135 0 225 94.5t90 235.5t-90.5 235.5t-224.5 94.5t-224.5 -94.5t-90.5 -235.5zM475 740l-166 89
l11 23l165 -94z" />
    <glyph glyph-name="Oacute" unicode="&#xd3;" horiz-adv-x="807" 
d="M57 350q0 152 99 255.5t247 103.5q147 0 246.5 -102.5t99.5 -256.5q0 -153 -99.5 -256t-246.5 -103t-246.5 102.5t-99.5 256.5zM88 350q0 -141 90.5 -235.5t224.5 -94.5q135 0 225 94.5t90 235.5t-90.5 235.5t-224.5 94.5t-224.5 -94.5t-90.5 -235.5zM523 829l-167 -89
l-9 18l165 94z" />
    <glyph glyph-name="Ocircumflex" unicode="&#xd4;" horiz-adv-x="807" 
d="M57 350q0 152 99 255.5t247 103.5q147 0 246.5 -102.5t99.5 -256.5q0 -153 -99.5 -256t-246.5 -103t-246.5 102.5t-99.5 256.5zM88 350q0 -141 90.5 -235.5t224.5 -94.5q135 0 225 94.5t90 235.5t-90.5 235.5t-224.5 94.5t-224.5 -94.5t-90.5 -235.5zM239 757l166 94h4
l167 -93l-15 -18l-154 85l-155 -85z" />
    <glyph glyph-name="Otilde" unicode="&#xd5;" horiz-adv-x="807" 
d="M57 350q0 152 99 255.5t247 103.5q147 0 246.5 -102.5t99.5 -256.5q0 -153 -99.5 -256t-246.5 -103t-246.5 102.5t-99.5 256.5zM88 350q0 -141 90.5 -235.5t224.5 -94.5q135 0 225 94.5t90 235.5t-90.5 235.5t-224.5 94.5t-224.5 -94.5t-90.5 -235.5zM254 772l-11 18
q39 35 81 35q31 0 83 -24t78 -24q41 0 73 35l11 -19q-38 -41 -85 -41q-28 0 -81.5 23.5t-82.5 23.5q-33 0 -66 -27z" />
    <glyph glyph-name="Odieresis" unicode="&#xd6;" horiz-adv-x="807" 
d="M57 350q0 152 99 255.5t247 103.5q147 0 246.5 -102.5t99.5 -256.5q0 -153 -99.5 -256t-246.5 -103t-246.5 102.5t-99.5 256.5zM88 350q0 -141 90.5 -235.5t224.5 -94.5q135 0 225 94.5t90 235.5t-90.5 235.5t-224.5 94.5t-224.5 -94.5t-90.5 -235.5zM265 796q0 9 7 15
t17 6q9 0 16 -6t7 -15q0 -10 -7 -16t-16 -6q-24 0 -24 22zM499 796q0 9 7 15t17 6q9 0 15.5 -6t6.5 -15q0 -10 -6.5 -16t-15.5 -6q-24 0 -24 22z" />
    <glyph glyph-name="multiply" unicode="&#xd7;" 
d="M130 506l18 18l145 -146l145 146l18 -18l-145 -146l147 -146l-18 -18l-147 146l-147 -146l-18 18l147 146z" />
    <glyph glyph-name="Oslash" unicode="&#xd8;" horiz-adv-x="807" 
d="M57 350q0 152 99 255.5t247 103.5q144 0 244 -100l51 50l18 -17l-52 -51q85 -101 85 -241q0 -153 -99.5 -256t-246.5 -103t-247 103l-50 -48l-18 19l50 49q-81 98 -81 236zM718 350q0 128 -76 220l-464 -454q90 -96 225 -96t225 94.5t90 235.5zM88 350q0 -124 72 -215
l465 453q-90 92 -222 92q-134 0 -224.5 -94.5t-90.5 -235.5z" />
    <glyph glyph-name="Ugrave" unicode="&#xd9;" horiz-adv-x="751" 
d="M645 700v-406q0 -151 -73.5 -226t-186.5 -75q-124 0 -201.5 80t-77.5 228v399h30v-395q0 -135 69 -209.5t180 -74.5q103 0 166.5 70t63.5 210v399h30zM434 740l-166 89l11 23l165 -94z" />
    <glyph glyph-name="Uacute" unicode="&#xda;" horiz-adv-x="751" 
d="M645 700v-406q0 -151 -73.5 -226t-186.5 -75q-124 0 -201.5 80t-77.5 228v399h30v-395q0 -135 69 -209.5t180 -74.5q103 0 166.5 70t63.5 210v399h30zM492 829l-167 -89l-9 18l165 94z" />
    <glyph glyph-name="Ucircumflex" unicode="&#xdb;" horiz-adv-x="751" 
d="M645 700v-406q0 -151 -73.5 -226t-186.5 -75q-124 0 -201.5 80t-77.5 228v399h30v-395q0 -135 69 -209.5t180 -74.5q103 0 166.5 70t63.5 210v399h30zM207 757l166 94h4l167 -93l-15 -18l-154 85l-155 -85z" />
    <glyph glyph-name="Udieresis" unicode="&#xdc;" horiz-adv-x="751" 
d="M645 700v-406q0 -151 -73.5 -226t-186.5 -75q-124 0 -201.5 80t-77.5 228v399h30v-395q0 -135 69 -209.5t180 -74.5q103 0 166.5 70t63.5 210v399h30zM233 796q0 9 7 15t17 6q9 0 16 -6t7 -15q0 -10 -7 -16t-16 -6q-24 0 -24 22zM467 796q0 9 7 15t17 6q9 0 15.5 -6
t6.5 -15q0 -10 -6.5 -16t-15.5 -6q-24 0 -24 22z" />
    <glyph glyph-name="Yacute" unicode="&#xdd;" horiz-adv-x="567" 
d="M550 700l-253 -389v-311h-29v311l-251 389h35l231 -361l233 361h34zM407 829l-167 -89l-9 18l165 94z" />
    <glyph glyph-name="Thorn" unicode="&#xde;" horiz-adv-x="575" 
d="M146 0h-30v700h30v-109q20 0 69 1t61 1q69 0 118 -17.5t74.5 -48t37 -65t11.5 -75.5q0 -88 -61 -148.5t-185 -60.5q-53 0 -125 5v-183zM277 565q-71 0 -131 -2v-351q72 -5 123 -5q107 0 162.5 50.5t55.5 130.5t-51 128.5t-159 48.5z" />
    <glyph glyph-name="germandbls" unicode="&#xdf;" horiz-adv-x="539" 
d="M454 144q0 38 -22 67.5t-53 49l-62 38.5t-53 46t-22 61q0 29 17.5 54.5t38.5 41.5t38.5 40.5t17.5 52.5q0 38 -30.5 62.5t-72.5 24.5q-66 0 -97.5 -41.5t-31.5 -130.5v-513h-29v522q0 190 161 190q55 0 92.5 -31t37.5 -79q0 -27 -11.5 -49.5t-28 -38l-33.5 -30
t-28.5 -32.5t-11.5 -38q0 -33 22 -58t53.5 -43l62.5 -37.5t53 -52t22 -75.5q0 -67 -42.5 -110.5t-104.5 -43.5q-48 0 -84 22.5t-54 52.5l13 20q48 -68 120 -68q49 0 85.5 35.5t36.5 90.5z" />
    <glyph glyph-name="agrave" unicode="&#xe0;" horiz-adv-x="457" 
d="M91 394l-9 24q65 41 138 41q87 0 124.5 -45t37.5 -133v-281h-28v78q-61 -83 -167 -83q-63 0 -101.5 35.5t-38.5 93.5q0 65 47.5 101t123.5 36q84 0 136 -37q0 37 -1 59t-5 49.5t-13 43t-24 30t-38.5 20.5t-55.5 6q-61 0 -126 -38zM193 22q42 0 76 14.5t50 30.5t35 40v90
q-56 40 -134 40q-58 0 -100.5 -28t-42.5 -83q0 -48 33 -76t83 -28zM257 552l-112 141l21 17l109 -146z" />
    <glyph glyph-name="aacute" unicode="&#xe1;" horiz-adv-x="457" 
d="M91 394l-9 24q65 41 138 41q87 0 124.5 -45t37.5 -133v-281h-28v78q-61 -83 -167 -83q-63 0 -101.5 35.5t-38.5 93.5q0 65 47.5 101t123.5 36q84 0 136 -37q0 37 -1 59t-5 49.5t-13 43t-24 30t-38.5 20.5t-55.5 6q-61 0 -126 -38zM193 22q42 0 76 14.5t50 30.5t35 40v90
q-56 40 -134 40q-58 0 -100.5 -28t-42.5 -83q0 -48 33 -76t83 -28zM314 693l-112 -141l-18 12l109 146z" />
    <glyph glyph-name="acircumflex" unicode="&#xe2;" horiz-adv-x="457" 
d="M91 394l-9 24q65 41 138 41q87 0 124.5 -45t37.5 -133v-281h-28v78q-61 -83 -167 -83q-63 0 -101.5 35.5t-38.5 93.5q0 65 47.5 101t123.5 36q84 0 136 -37q0 37 -1 59t-5 49.5t-13 43t-24 30t-38.5 20.5t-55.5 6q-61 0 -126 -38zM193 22q42 0 76 14.5t50 30.5t35 40v90
q-56 40 -134 40q-58 0 -100.5 -28t-42.5 -83q0 -48 33 -76t83 -28zM231 708l120 -131l-15 -18l-107 114l-108 -113l-16 17l122 131h4z" />
    <glyph glyph-name="atilde" unicode="&#xe3;" horiz-adv-x="457" 
d="M91 394l-9 24q65 41 138 41q87 0 124.5 -45t37.5 -133v-281h-28v78q-61 -83 -167 -83q-63 0 -101.5 35.5t-38.5 93.5q0 65 47.5 101t123.5 36q84 0 136 -37q0 37 -1 59t-5 49.5t-13 43t-24 30t-38.5 20.5t-55.5 6q-61 0 -126 -38zM193 22q42 0 76 14.5t50 30.5t35 40v90
q-56 40 -134 40q-58 0 -100.5 -28t-42.5 -83q0 -48 33 -76t83 -28zM96 586l-13 15q51 46 93 46q24 0 56.5 -24t52.5 -24q31 0 76 41l12 -16q-50 -49 -91 -49q-22 0 -54.5 23.5t-55.5 23.5q-32 0 -76 -36z" />
    <glyph glyph-name="adieresis" unicode="&#xe4;" horiz-adv-x="457" 
d="M91 394l-9 24q65 41 138 41q87 0 124.5 -45t37.5 -133v-281h-28v78q-61 -83 -167 -83q-63 0 -101.5 35.5t-38.5 93.5q0 65 47.5 101t123.5 36q84 0 136 -37q0 37 -1 59t-5 49.5t-13 43t-24 30t-38.5 20.5t-55.5 6q-61 0 -126 -38zM193 22q42 0 76 14.5t50 30.5t35 40v90
q-56 40 -134 40q-58 0 -100.5 -28t-42.5 -83q0 -48 33 -76t83 -28zM95 626q0 8 6.5 14.5t15.5 6.5q8 0 14 -6.5t6 -14.5q0 -10 -6 -16.5t-14 -6.5q-9 0 -15.5 6.5t-6.5 16.5zM306 626q0 8 6.5 14.5t15.5 6.5q8 0 14.5 -6.5t6.5 -14.5q0 -10 -6 -16.5t-15 -6.5t-15.5 6.5
t-6.5 16.5z" />
    <glyph glyph-name="aring" unicode="&#xe5;" horiz-adv-x="457" 
d="M91 394l-9 24q65 41 138 41q87 0 124.5 -45t37.5 -133v-281h-28v78q-61 -83 -167 -83q-63 0 -101.5 35.5t-38.5 93.5q0 65 47.5 101t123.5 36q84 0 136 -37q0 37 -1 59t-5 49.5t-13 43t-24 30t-38.5 20.5t-55.5 6q-61 0 -126 -38zM193 22q42 0 76 14.5t50 30.5t35 40v90
q-56 40 -134 40q-58 0 -100.5 -28t-42.5 -83q0 -48 33 -76t83 -28zM124 614q0 41 28.5 69.5t69.5 28.5t70 -28.5t29 -69.5q0 -40 -29 -68t-70 -28t-69.5 28t-28.5 68zM145 615q0 -33 22 -55.5t55 -22.5q32 0 55 22.5t23 55.5q0 32 -23 55t-55 23q-33 0 -55 -22.5t-22 -55.5z
" />
    <glyph glyph-name="ae" unicode="&#xe6;" horiz-adv-x="801" 
d="M220 459q117 0 148 -86q61 86 180 86q88 0 145 -56t57 -146q0 -13 -2 -31h-366v-113q54 -95 181 -95q95 0 152 62l10 -21q-28 -33 -72.5 -50.5t-91.5 -17.5q-127 0 -193 90q-73 -86 -177 -86q-66 0 -105 35t-39 94q0 65 47.5 101t123.5 36q74 0 136 -11q5 94 -25 138
t-112 44q-61 0 -126 -38l-9 24q65 41 138 41zM382 281v-31h339q0 84 -48 133t-129 49q-116 0 -167 -94q5 -30 5 -57zM193 22q42 0 76 14.5t50 30.5t35 40v118q-82 12 -134 12q-58 0 -100.5 -28t-42.5 -83q0 -48 33 -76t83 -28z" />
    <glyph glyph-name="ccedilla" unicode="&#xe7;" horiz-adv-x="491" 
d="M189 -178l10 17q38 -20 73 -20q36 0 58.5 15t22.5 39q0 54 -82 54h-6v65q-96 7 -154.5 70t-58.5 163q0 98 63.5 166t156.5 68q113 0 172 -55l-14 -23q-58 51 -153 51q-81 0 -138.5 -59.5t-57.5 -147.5q0 -94 58.5 -150.5t149.5 -56.5q45 0 85 18t65 47l14 -19
q-28 -35 -72.5 -54t-93.5 -19h-3v-47q97 -1 97 -72q0 -33 -28.5 -53t-77.5 -20q-38 0 -86 23z" />
    <glyph glyph-name="egrave" unicode="&#xe8;" horiz-adv-x="527" 
d="M441 80l11 -21q-28 -33 -72.5 -50.5t-91.5 -17.5q-104 0 -170 64t-66 170q0 103 58 168.5t165 65.5q88 0 144.5 -55.5t56.5 -146.5q0 -13 -2 -31h-391q1 -96 57 -152t149 -56q95 0 152 62zM271 432q-84 0 -134 -50.5t-56 -131.5h366q1 84 -47 133t-129 49zM286 552
l-112 141l21 17l109 -146z" />
    <glyph glyph-name="eacute" unicode="&#xe9;" horiz-adv-x="527" 
d="M441 80l11 -21q-28 -33 -72.5 -50.5t-91.5 -17.5q-104 0 -170 64t-66 170q0 103 58 168.5t165 65.5q88 0 144.5 -55.5t56.5 -146.5q0 -13 -2 -31h-391q1 -96 57 -152t149 -56q95 0 152 62zM271 432q-84 0 -134 -50.5t-56 -131.5h366q1 84 -47 133t-129 49zM377 693
l-112 -141l-18 12l109 146z" />
    <glyph glyph-name="ecircumflex" unicode="&#xea;" horiz-adv-x="527" 
d="M441 80l11 -21q-28 -33 -72.5 -50.5t-91.5 -17.5q-104 0 -170 64t-66 170q0 103 58 168.5t165 65.5q88 0 144.5 -55.5t56.5 -146.5q0 -13 -2 -31h-391q1 -96 57 -152t149 -56q95 0 152 62zM271 432q-84 0 -134 -50.5t-56 -131.5h366q1 84 -47 133t-129 49zM276 708
l120 -131l-15 -18l-107 114l-108 -113l-16 17l122 131h4z" />
    <glyph glyph-name="edieresis" unicode="&#xeb;" horiz-adv-x="527" 
d="M441 80l11 -21q-28 -33 -72.5 -50.5t-91.5 -17.5q-104 0 -170 64t-66 170q0 103 58 168.5t165 65.5q88 0 144.5 -55.5t56.5 -146.5q0 -13 -2 -31h-391q1 -96 57 -152t149 -56q95 0 152 62zM271 432q-84 0 -134 -50.5t-56 -131.5h366q1 84 -47 133t-129 49zM138 626
q0 8 6.5 14.5t15.5 6.5q8 0 14 -6.5t6 -14.5q0 -10 -6 -16.5t-14 -6.5q-9 0 -15.5 6.5t-6.5 16.5zM349 626q0 8 6.5 14.5t15.5 6.5q8 0 14.5 -6.5t6.5 -14.5q0 -10 -6 -16.5t-15 -6.5t-15.5 6.5t-6.5 16.5z" />
    <glyph glyph-name="igrave" unicode="&#xec;" horiz-adv-x="255" 
d="M113 0v450h28v-450h-28zM134 552l-112 141l21 17l109 -146z" />
    <glyph glyph-name="iacute" unicode="&#xed;" horiz-adv-x="255" 
d="M113 0v450h28v-450h-28zM230 693l-112 -141l-18 12l109 146z" />
    <glyph glyph-name="icircumflex" unicode="&#xee;" horiz-adv-x="255" 
d="M113 0v450h28v-450h-28zM131 708l120 -131l-15 -18l-107 114l-108 -113l-16 17l122 131h4z" />
    <glyph glyph-name="idieresis" unicode="&#xef;" horiz-adv-x="255" 
d="M113 0v450h28v-450h-28zM1 626q0 8 6.5 14.5t15.5 6.5q8 0 14 -6.5t6 -14.5q0 -10 -6 -16.5t-14 -6.5q-9 0 -15.5 6.5t-6.5 16.5zM212 626q0 8 6.5 14.5t15.5 6.5q8 0 14.5 -6.5t6.5 -14.5q0 -10 -6 -16.5t-15 -6.5t-15.5 6.5t-6.5 16.5z" />
    <glyph glyph-name="eth" unicode="&#xf0;" horiz-adv-x="569" 
d="M208 542l-10 24l113 60q-52 45 -121 73l31 10q60 -26 114 -70l104 55l10 -24l-93 -50q76 -70 118.5 -166t42.5 -198q0 -121 -64.5 -193t-168.5 -72q-102 0 -167 66t-65 168t65 168t167 66q65 0 116.5 -34t78.5 -94q-24 162 -147 277zM81 225q0 -91 57 -149t146 -58
q91 0 147.5 65.5t55.5 175.5q-9 67 -64.5 120t-138.5 53q-89 0 -146 -58t-57 -149z" />
    <glyph glyph-name="ntilde" unicode="&#xf1;" horiz-adv-x="553" 
d="M85 0v450h29v-68q28 32 76.5 54t96.5 22q96 0 143 -49.5t47 -154.5v-254h-28v248q0 93 -41 138t-126 45q-50 0 -97 -23t-71 -54v-354h-29zM143 586l-13 15q51 46 93 46q24 0 56.5 -24t52.5 -24q31 0 76 41l12 -16q-50 -49 -91 -49q-22 0 -54.5 23.5t-55.5 23.5
q-32 0 -76 -36z" />
    <glyph glyph-name="ograve" unicode="&#xf2;" horiz-adv-x="569" 
d="M52 225q0 102 65 168t167 66t167.5 -66t65.5 -168t-65.5 -168t-167.5 -66t-167 66t-65 168zM81 225q0 -91 57 -149t146 -58t146 58t57 149t-57 149t-146 58t-146 -58t-57 -149zM302 552l-112 141l21 17l109 -146z" />
    <glyph glyph-name="oacute" unicode="&#xf3;" horiz-adv-x="569" 
d="M52 225q0 102 65 168t167 66t167.5 -66t65.5 -168t-65.5 -168t-167.5 -66t-167 66t-65 168zM81 225q0 -91 57 -149t146 -58t146 58t57 149t-57 149t-146 58t-146 -58t-57 -149zM379 693l-112 -141l-18 12l109 146z" />
    <glyph glyph-name="ocircumflex" unicode="&#xf4;" horiz-adv-x="569" 
d="M52 225q0 102 65 168t167 66t167.5 -66t65.5 -168t-65.5 -168t-167.5 -66t-167 66t-65 168zM81 225q0 -91 57 -149t146 -58t146 58t57 149t-57 149t-146 58t-146 -58t-57 -149zM286 708l120 -131l-15 -18l-107 114l-108 -113l-16 17l122 131h4z" />
    <glyph glyph-name="otilde" unicode="&#xf5;" horiz-adv-x="569" 
d="M52 225q0 102 65 168t167 66t167.5 -66t65.5 -168t-65.5 -168t-167.5 -66t-167 66t-65 168zM81 225q0 -91 57 -149t146 -58t146 58t57 149t-57 149t-146 58t-146 -58t-57 -149zM151 586l-13 15q51 46 93 46q24 0 56.5 -24t52.5 -24q31 0 76 41l12 -16q-50 -49 -91 -49
q-22 0 -54.5 23.5t-55.5 23.5q-32 0 -76 -36z" />
    <glyph glyph-name="odieresis" unicode="&#xf6;" horiz-adv-x="569" 
d="M52 225q0 102 65 168t167 66t167.5 -66t65.5 -168t-65.5 -168t-167.5 -66t-167 66t-65 168zM81 225q0 -91 57 -149t146 -58t146 58t57 149t-57 149t-146 58t-146 -58t-57 -149zM159 626q0 8 6.5 14.5t15.5 6.5q8 0 14 -6.5t6 -14.5q0 -10 -6 -16.5t-14 -6.5
q-9 0 -15.5 6.5t-6.5 16.5zM370 626q0 8 6.5 14.5t15.5 6.5q8 0 14.5 -6.5t6.5 -14.5q0 -10 -6 -16.5t-15 -6.5t-15.5 6.5t-6.5 16.5z" />
    <glyph glyph-name="divide" unicode="&#xf7;" 
d="M271 575q0 9 6.5 15t16.5 6q9 0 15 -6.5t6 -14.5q0 -9 -6 -16t-15 -7q-10 0 -16.5 7t-6.5 16zM271 146q0 8 6.5 14.5t16.5 6.5q9 0 15 -6.5t6 -14.5q0 -9 -6 -16t-15 -7q-10 0 -16.5 7t-6.5 16zM73 347v26h440v-26h-440z" />
    <glyph glyph-name="oslash" unicode="&#xf8;" horiz-adv-x="569" 
d="M52 225q0 102 65 168t167 66q98 0 164 -63l55 55l16 -18l-55 -55q53 -64 53 -153q0 -102 -65.5 -168t-167.5 -66q-91 0 -152 53l-57 -57l-17 19l55 55q-61 64 -61 164zM81 225q0 -87 52 -144l295 295q-58 56 -144 56q-89 0 -146 -58t-57 -149zM487 225q0 76 -43 132
l-293 -294q54 -45 133 -45q89 0 146 58t57 149z" />
    <glyph glyph-name="ugrave" unicode="&#xf9;" horiz-adv-x="547" 
d="M462 450v-450h-28v78q-29 -36 -79 -61.5t-102 -25.5q-178 0 -178 203v256h29v-249q0 -93 38 -138t120 -45q51 0 99 27.5t73 61.5v343h28zM291 552l-112 141l21 17l109 -146z" />
    <glyph glyph-name="uacute" unicode="&#xfa;" horiz-adv-x="547" 
d="M462 450v-450h-28v78q-29 -36 -79 -61.5t-102 -25.5q-178 0 -178 203v256h29v-249q0 -93 38 -138t120 -45q51 0 99 27.5t73 61.5v343h28zM369 693l-112 -141l-18 12l109 146z" />
    <glyph glyph-name="ucircumflex" unicode="&#xfb;" horiz-adv-x="547" 
d="M462 450v-450h-28v78q-29 -36 -79 -61.5t-102 -25.5q-178 0 -178 203v256h29v-249q0 -93 38 -138t120 -45q51 0 99 27.5t73 61.5v343h28zM271 708l120 -131l-15 -18l-107 114l-108 -113l-16 17l122 131h4z" />
    <glyph glyph-name="udieresis" unicode="&#xfc;" horiz-adv-x="547" 
d="M462 450v-450h-28v78q-29 -36 -79 -61.5t-102 -25.5q-178 0 -178 203v256h29v-249q0 -93 38 -138t120 -45q51 0 99 27.5t73 61.5v343h28zM147 626q0 8 6.5 14.5t15.5 6.5q8 0 14 -6.5t6 -14.5q0 -10 -6 -16.5t-14 -6.5q-9 0 -15.5 6.5t-6.5 16.5zM358 626q0 8 6.5 14.5
t15.5 6.5q8 0 14.5 -6.5t6.5 -14.5q0 -10 -6 -16.5t-15 -6.5t-15.5 6.5t-6.5 16.5z" />
    <glyph glyph-name="yacute" unicode="&#xfd;" horiz-adv-x="472" 
d="M455 450l-184 -450q-48 -117 -84.5 -158.5t-82.5 -41.5q-32 0 -70 19l10 22q33 -15 56 -15q39 0 70 35t64 115l10 24l-227 450h33l173 -345q19 -36 35 -73q9 25 29 75l136 343h32zM330 693l-112 -141l-18 12l109 146z" />
    <glyph glyph-name="thorn" unicode="&#xfe;" horiz-adv-x="552" 
d="M85 -200v900h29v-314q28 32 75.5 52.5t97.5 20.5q99 0 156.5 -63t57.5 -164q0 -104 -63.5 -172.5t-165.5 -68.5q-98 0 -158 45v-236h-29zM281 432q-51 0 -97.5 -22.5t-69.5 -53.5v-290q67 -48 157 -48q89 0 144.5 59t55.5 152q0 92 -50.5 147.5t-139.5 55.5z" />
    <glyph glyph-name="ydieresis" unicode="&#xff;" horiz-adv-x="472" 
d="M455 450l-184 -450q-48 -117 -84.5 -158.5t-82.5 -41.5q-32 0 -70 19l10 22q33 -15 56 -15q39 0 70 35t64 115l10 24l-227 450h33l173 -345q19 -36 35 -73q9 25 29 75l136 343h32zM111 626q0 8 6.5 14.5t15.5 6.5q8 0 14 -6.5t6 -14.5q0 -10 -6 -16.5t-14 -6.5
q-9 0 -15.5 6.5t-6.5 16.5zM322 626q0 8 6.5 14.5t15.5 6.5q8 0 14.5 -6.5t6.5 -14.5q0 -10 -6 -16.5t-15 -6.5t-15.5 6.5t-6.5 16.5z" />
    <glyph glyph-name="Amacron" unicode="&#x100;" horiz-adv-x="690" 
d="M26 0l308 707h22l308 -707h-32l-113 260h-350l-112 -260h-31zM344 663l-163 -375h326zM196 785v24h297v-24h-297z" />
    <glyph glyph-name="amacron" unicode="&#x101;" horiz-adv-x="457" 
d="M91 394l-9 24q65 41 138 41q87 0 124.5 -45t37.5 -133v-281h-28v78q-61 -83 -167 -83q-63 0 -101.5 35.5t-38.5 93.5q0 65 47.5 101t123.5 36q84 0 136 -37q0 37 -1 59t-5 49.5t-13 43t-24 30t-38.5 20.5t-55.5 6q-61 0 -126 -38zM193 22q42 0 76 14.5t50 30.5t35 40v90
q-56 40 -134 40q-58 0 -100.5 -28t-42.5 -83q0 -48 33 -76t83 -28zM108 624v25h242v-25h-242z" />
    <glyph glyph-name="Abreve" unicode="&#x102;" horiz-adv-x="690" 
d="M26 0l308 707h22l308 -707h-32l-113 260h-350l-112 -260h-31zM344 663l-163 -375h326zM190 835l14 15q57 -68 143 -68q84 0 140 68l13 -15q-57 -79 -153 -79q-57 0 -98 25.5t-59 53.5z" />
    <glyph glyph-name="abreve" unicode="&#x103;" horiz-adv-x="457" 
d="M91 394l-9 24q65 41 138 41q87 0 124.5 -45t37.5 -133v-281h-28v78q-61 -83 -167 -83q-63 0 -101.5 35.5t-38.5 93.5q0 65 47.5 101t123.5 36q84 0 136 -37q0 37 -1 59t-5 49.5t-13 43t-24 30t-38.5 20.5t-55.5 6q-61 0 -126 -38zM193 22q42 0 76 14.5t50 30.5t35 40v90
q-56 40 -134 40q-58 0 -100.5 -28t-42.5 -83q0 -48 33 -76t83 -28zM95 665l14 15q56 -67 121 -67q66 0 119 67l12 -15q-58 -77 -132 -77q-85 0 -134 77z" />
    <glyph glyph-name="Aogonek" unicode="&#x104;" horiz-adv-x="690" 
d="M650 -167l9 -19q-26 -14 -61 -14q-41 0 -73.5 21.5t-32.5 69.5q0 47 40 79t95 40l-108 250h-350l-112 -260h-31l308 707h22l308 -707h-15q-51 -2 -90 -31t-39 -72q0 -39 27 -56t56 -17q28 0 47 9zM344 663l-163 -375h326z" />
    <glyph glyph-name="aogonek" unicode="&#x105;" horiz-adv-x="457" 
d="M378 -167l9 -19q-26 -14 -61 -14q-41 0 -73.5 21.5t-32.5 69.5q0 46 39.5 78.5t94.5 40.5v68q-61 -83 -167 -83q-63 0 -101.5 35.5t-38.5 93.5q0 65 47.5 101t123.5 36q84 0 136 -37q0 37 -1 59t-5 49.5t-13 43t-24 30t-38.5 20.5t-55.5 6q-61 0 -126 -38l-9 24
q65 41 138 41q87 0 124.5 -45t37.5 -133v-281q-51 0 -92.5 -29.5t-41.5 -73.5q0 -39 27 -56t56 -17q28 0 47 9zM193 22q42 0 76 14.5t50 30.5t35 40v90q-56 40 -134 40q-58 0 -100.5 -28t-42.5 -83q0 -48 33 -76t83 -28z" />
    <glyph glyph-name="Cacute" unicode="&#x106;" horiz-adv-x="657" 
d="M606 90l13 -23q-36 -35 -94.5 -55.5t-120.5 -20.5q-155 0 -251 98.5t-96 260.5q0 154 94 256.5t244 102.5q132 0 211 -65l-15 -21q-72 57 -195 57q-137 0 -222.5 -94t-85.5 -236q0 -148 88.5 -239t229.5 -91q118 0 200 70zM509 829l-167 -89l-9 18l165 94z" />
    <glyph glyph-name="cacute" unicode="&#x107;" horiz-adv-x="491" 
d="M439 83l14 -19q-28 -35 -72.5 -54t-93.5 -19q-104 0 -169.5 64t-65.5 170q0 98 63.5 166t156.5 68q113 0 172 -55l-14 -23q-58 51 -153 51q-81 0 -138.5 -59.5t-57.5 -147.5q0 -94 58.5 -150.5t149.5 -56.5q45 0 85 18t65 47zM371 693l-112 -141l-18 12l109 146z" />
    <glyph glyph-name="Ccircumflex" unicode="&#x108;" horiz-adv-x="657" 
d="M606 90l13 -23q-36 -35 -94.5 -55.5t-120.5 -20.5q-155 0 -251 98.5t-96 260.5q0 154 94 256.5t244 102.5q132 0 211 -65l-15 -21q-72 57 -195 57q-137 0 -222.5 -94t-85.5 -236q0 -148 88.5 -239t229.5 -91q118 0 200 70zM227 757l166 94h4l167 -93l-15 -18l-154 85
l-155 -85z" />
    <glyph glyph-name="ccircumflex" unicode="&#x109;" horiz-adv-x="491" 
d="M439 83l14 -19q-28 -35 -72.5 -54t-93.5 -19q-104 0 -169.5 64t-65.5 170q0 98 63.5 166t156.5 68q113 0 172 -55l-14 -23q-58 51 -153 51q-81 0 -138.5 -59.5t-57.5 -147.5q0 -94 58.5 -150.5t149.5 -56.5q45 0 85 18t65 47zM280 708l120 -131l-15 -18l-107 114
l-108 -113l-16 17l122 131h4z" />
    <glyph glyph-name="Cdotaccent" unicode="&#x10a;" horiz-adv-x="657" 
d="M606 90l13 -23q-36 -35 -94.5 -55.5t-120.5 -20.5q-155 0 -251 98.5t-96 260.5q0 154 94 256.5t244 102.5q132 0 211 -65l-15 -21q-72 57 -195 57q-137 0 -222.5 -94t-85.5 -236q0 -148 88.5 -239t229.5 -91q118 0 200 70zM356 797q0 22 25 22q9 0 15.5 -6t6.5 -16
q0 -11 -6.5 -17.5t-15.5 -6.5q-25 0 -25 24z" />
    <glyph glyph-name="cdotaccent" unicode="&#x10b;" horiz-adv-x="491" 
d="M439 83l14 -19q-28 -35 -72.5 -54t-93.5 -19q-104 0 -169.5 64t-65.5 170q0 98 63.5 166t156.5 68q113 0 172 -55l-14 -23q-58 51 -153 51q-81 0 -138.5 -59.5t-57.5 -147.5q0 -94 58.5 -150.5t149.5 -56.5q45 0 85 18t65 47zM262 629q0 9 7 15.5t16 6.5q8 0 14.5 -6.5
t6.5 -15.5q0 -10 -6.5 -16.5t-14.5 -6.5q-9 0 -16 6.5t-7 16.5z" />
    <glyph glyph-name="Ccaron" unicode="&#x10c;" horiz-adv-x="657" 
d="M606 90l13 -23q-36 -35 -94.5 -55.5t-120.5 -20.5q-155 0 -251 98.5t-96 260.5q0 154 94 256.5t244 102.5q132 0 211 -65l-15 -21q-72 57 -195 57q-137 0 -222.5 -94t-85.5 -236q0 -148 88.5 -239t229.5 -91q118 0 200 70zM394 742l-167 93l13 17l156 -85l154 85l14 -17
l-166 -93h-4z" />
    <glyph glyph-name="ccaron" unicode="&#x10d;" horiz-adv-x="491" 
d="M439 83l14 -19q-28 -35 -72.5 -54t-93.5 -19q-104 0 -169.5 64t-65.5 170q0 98 63.5 166t156.5 68q113 0 172 -55l-14 -23q-58 51 -153 51q-81 0 -138.5 -59.5t-57.5 -147.5q0 -94 58.5 -150.5t149.5 -56.5q45 0 85 18t65 47zM284 560l-122 131l16 18l108 -119l107 118
l16 -17l-121 -131h-4z" />
    <glyph glyph-name="Dcaron" unicode="&#x10e;" horiz-adv-x="735" 
d="M116 0v700h11q25 0 74.5 1.5t83.5 1.5q102 0 179 -27.5t123 -76t68.5 -108.5t22.5 -130q0 -158 -104.5 -260.5t-296.5 -102.5q-28 0 -77.5 1t-76.5 1h-7zM283 675q-32 0 -73.5 -1.5t-63.5 -1.5v-644h38t36 -0.5t29 -1t20.5 -0.5h8.5q177 0 273 94.5t96 240.5
q0 138 -90.5 226t-273.5 88zM335 742l-167 93l13 17l156 -85l154 85l14 -17l-166 -93h-4z" />
    <glyph glyph-name="dcaron" unicode="&#x10f;" horiz-adv-x="553" 
d="M439 0v71q-29 -34 -73 -56.5t-91 -22.5q-101 0 -162 63t-61 169q0 103 69.5 169t173.5 66q84 0 144 -45v286h28v-700h-28zM279 19q46 0 91 25t69 55v287q-66 46 -144 46q-91 0 -152.5 -58t-61.5 -149q0 -94 54.5 -150t143.5 -56zM583 700h28q9 -18 9 -42q0 -45 -18.5 -77
t-46.5 -46l-12 15q50 32 50 105q0 27 -10 45z" />
    <glyph glyph-name="Dcroat" unicode="&#x110;" horiz-adv-x="761" 
d="M10 345v27h132v328h11q25 0 74.5 1.5t83.5 1.5q102 0 179 -27.5t123 -76t68.5 -108.5t22.5 -130q0 -158 -104.5 -260.5t-296.5 -102.5q-27 0 -77 1t-77 1h-7v345h-132zM309 675q-32 0 -73.5 -1.5t-63.5 -1.5v-300h206v-27h-206v-317h38t36 -0.5t29.5 -1t21 -0.5h8.5
q177 0 272.5 94.5t95.5 240.5q0 138 -90.5 226t-273.5 88z" />
    <glyph glyph-name="dcroat" unicode="&#x111;" horiz-adv-x="553" 
d="M244 554v24h195v122h28v-122h113v-24h-113v-554h-28v71q-29 -34 -73 -56.5t-91 -22.5q-101 0 -162 63t-61 169q0 103 69.5 169t173.5 66q84 0 144 -45v140h-195zM279 19q46 0 91 25t69 55v287q-66 46 -144 46q-91 0 -152.5 -58t-61.5 -149q0 -94 54.5 -150t143.5 -56z
" />
    <glyph glyph-name="Emacron" unicode="&#x112;" horiz-adv-x="575" 
d="M116 0v700h380v-28h-350v-302h320v-28h-320v-314h360v-28h-390zM157 785v24h297v-24h-297z" />
    <glyph glyph-name="emacron" unicode="&#x113;" horiz-adv-x="527" 
d="M441 80l11 -21q-28 -33 -72.5 -50.5t-91.5 -17.5q-104 0 -170 64t-66 170q0 103 58 168.5t165 65.5q88 0 144.5 -55.5t56.5 -146.5q0 -13 -2 -31h-391q1 -96 57 -152t149 -56q95 0 152 62zM271 432q-84 0 -134 -50.5t-56 -131.5h366q1 84 -47 133t-129 49zM144 624v25
h242v-25h-242z" />
    <glyph glyph-name="Edotaccent" unicode="&#x116;" horiz-adv-x="575" 
d="M116 0v700h380v-28h-350v-302h320v-28h-320v-314h360v-28h-390zM285 797q0 22 25 22q9 0 15.5 -6t6.5 -16q0 -11 -6.5 -17.5t-15.5 -6.5q-25 0 -25 24z" />
    <glyph glyph-name="edotaccent" unicode="&#x117;" horiz-adv-x="527" 
d="M441 80l11 -21q-28 -33 -72.5 -50.5t-91.5 -17.5q-104 0 -170 64t-66 170q0 103 58 168.5t165 65.5q88 0 144.5 -55.5t56.5 -146.5q0 -13 -2 -31h-391q1 -96 57 -152t149 -56q95 0 152 62zM271 432q-84 0 -134 -50.5t-56 -131.5h366q1 84 -47 133t-129 49zM242 629
q0 9 7 15.5t16 6.5q8 0 14.5 -6.5t6.5 -15.5q0 -10 -6.5 -16.5t-14.5 -6.5q-9 0 -16 6.5t-7 16.5z" />
    <glyph glyph-name="Eogonek" unicode="&#x118;" horiz-adv-x="575" 
d="M116 0v700h380v-28h-350v-302h320v-28h-320v-314h360v-28h-5q-51 -2 -90 -31t-39 -72q0 -39 27 -56t56 -17q28 0 47 9l9 -19q-26 -14 -61 -14q-41 0 -73.5 21.5t-32.5 69.5q0 37 26 66t67 43h-321z" />
    <glyph glyph-name="eogonek" unicode="&#x119;" horiz-adv-x="527" 
d="M441 80l11 -21q-31 -37 -86 -55q-76 -48 -76 -107q0 -39 27 -56t56 -17q28 0 47 9l8 -19q-26 -14 -61 -14q-41 0 -73.5 21.5t-32.5 69.5q0 59 68 104q-19 -4 -41 -4q-104 0 -170 64t-66 170q0 103 58 168.5t165 65.5q88 0 144.5 -55.5t56.5 -146.5q0 -13 -2 -31h-391
q1 -96 57 -152t149 -56q95 0 152 62zM271 432q-84 0 -134 -50.5t-56 -131.5h366q1 84 -47 133t-129 49z" />
    <glyph glyph-name="Ecaron" unicode="&#x11a;" horiz-adv-x="575" 
d="M116 0v700h380v-28h-350v-302h320v-28h-320v-314h360v-28h-390zM314 742l-167 93l13 17l156 -85l154 85l14 -17l-166 -93h-4z" />
    <glyph glyph-name="ecaron" unicode="&#x11b;" horiz-adv-x="527" 
d="M441 80l11 -21q-28 -33 -72.5 -50.5t-91.5 -17.5q-104 0 -170 64t-66 170q0 103 58 168.5t165 65.5q88 0 144.5 -55.5t56.5 -146.5q0 -13 -2 -31h-391q1 -96 57 -152t149 -56q95 0 152 62zM271 432q-84 0 -134 -50.5t-56 -131.5h366q1 84 -47 133t-129 49zM273 560
l-122 131l16 18l108 -119l107 118l16 -17l-121 -131h-4z" />
    <glyph glyph-name="Gcircumflex" unicode="&#x11c;" horiz-adv-x="727" 
d="M413 296v28h247v-237q-45 -45 -119 -70.5t-143 -25.5q-152 0 -246.5 98.5t-94.5 260.5q0 153 93.5 256t242.5 103q132 0 214 -65l-15 -23q-70 59 -195 59q-138 0 -223.5 -94t-85.5 -236q0 -149 86.5 -239.5t225.5 -90.5q64 0 129 22.5t102 59.5v194h-218zM227 757l166 94
h4l167 -93l-15 -18l-154 85l-155 -85z" />
    <glyph glyph-name="gcircumflex" unicode="&#x11d;" horiz-adv-x="487" 
d="M17 -69q0 52 37 86t103 47q-17 19 -17 46q0 30 19 49q-44 19 -69 56.5t-25 85.5q0 68 48.5 113t124.5 45q68 0 113 -36l126 35v-27l-103 -28q37 -42 37 -102q0 -68 -48 -112.5t-125 -44.5q-33 0 -57 7q-14 -15 -14 -41t18 -42q34 4 54 4q101 0 161.5 -37t60.5 -104
t-60.5 -103t-161.5 -36t-161.5 36t-60.5 103zM47 -69q0 -52 52.5 -82t139.5 -30q88 0 140 29.5t52 82.5t-52.5 83.5t-139.5 30.5t-139.5 -30.5t-52.5 -83.5zM95 301q0 -57 40 -93.5t103 -36.5t103 36.5t40 93.5t-40 94t-103 37t-103 -37t-40 -94zM244 708l120 -131l-15 -18
l-107 114l-108 -113l-16 17l122 131h4z" />
    <glyph glyph-name="Gbreve" unicode="&#x11e;" horiz-adv-x="727" 
d="M413 296v28h247v-237q-45 -45 -119 -70.5t-143 -25.5q-152 0 -246.5 98.5t-94.5 260.5q0 153 93.5 256t242.5 103q132 0 214 -65l-15 -23q-70 59 -195 59q-138 0 -223.5 -94t-85.5 -236q0 -149 86.5 -239.5t225.5 -90.5q64 0 129 22.5t102 59.5v194h-218zM244 835l14 15
q57 -68 143 -68q84 0 140 68l13 -15q-57 -79 -153 -79q-57 0 -98 25.5t-59 53.5z" />
    <glyph glyph-name="gbreve" unicode="&#x11f;" horiz-adv-x="487" 
d="M17 -69q0 52 37 86t103 47q-17 19 -17 46q0 30 19 49q-44 19 -69 56.5t-25 85.5q0 68 48.5 113t124.5 45q68 0 113 -36l126 35v-27l-103 -28q37 -42 37 -102q0 -68 -48 -112.5t-125 -44.5q-33 0 -57 7q-14 -15 -14 -41t18 -42q34 4 54 4q101 0 161.5 -37t60.5 -104
t-60.5 -103t-161.5 -36t-161.5 36t-60.5 103zM47 -69q0 -52 52.5 -82t139.5 -30q88 0 140 29.5t52 82.5t-52.5 83.5t-139.5 30.5t-139.5 -30.5t-52.5 -83.5zM95 301q0 -57 40 -93.5t103 -36.5t103 36.5t40 93.5t-40 94t-103 37t-103 -37t-40 -94zM108 665l14 15
q56 -67 121 -67q66 0 119 67l12 -15q-58 -77 -132 -77q-85 0 -134 77z" />
    <glyph glyph-name="Gdotaccent" unicode="&#x120;" horiz-adv-x="727" 
d="M413 296v28h247v-237q-45 -45 -119 -70.5t-143 -25.5q-152 0 -246.5 98.5t-94.5 260.5q0 153 93.5 256t242.5 103q132 0 214 -65l-15 -23q-70 59 -195 59q-138 0 -223.5 -94t-85.5 -236q0 -149 86.5 -239.5t225.5 -90.5q64 0 129 22.5t102 59.5v194h-218zM363 797
q0 22 25 22q9 0 15.5 -6t6.5 -16q0 -11 -6.5 -17.5t-15.5 -6.5q-25 0 -25 24z" />
    <glyph glyph-name="gdotaccent" unicode="&#x121;" horiz-adv-x="487" 
d="M17 -69q0 52 37 86t103 47q-17 19 -17 46q0 30 19 49q-44 19 -69 56.5t-25 85.5q0 68 48.5 113t124.5 45q68 0 113 -36l126 35v-27l-103 -28q37 -42 37 -102q0 -68 -48 -112.5t-125 -44.5q-33 0 -57 7q-14 -15 -14 -41t18 -42q34 4 54 4q101 0 161.5 -37t60.5 -104
t-60.5 -103t-161.5 -36t-161.5 36t-60.5 103zM47 -69q0 -52 52.5 -82t139.5 -30q88 0 140 29.5t52 82.5t-52.5 83.5t-139.5 30.5t-139.5 -30.5t-52.5 -83.5zM95 301q0 -57 40 -93.5t103 -36.5t103 36.5t40 93.5t-40 94t-103 37t-103 -37t-40 -94zM219 629q0 9 7 15.5t16 6.5
q8 0 14.5 -6.5t6.5 -15.5q0 -10 -6.5 -16.5t-14.5 -6.5q-9 0 -16 6.5t-7 16.5z" />
    <glyph glyph-name="Gcommaaccent" unicode="&#x122;" horiz-adv-x="727" 
d="M413 296v28h247v-237q-45 -45 -119 -70.5t-143 -25.5q-152 0 -246.5 98.5t-94.5 260.5q0 153 93.5 256t242.5 103q132 0 214 -65l-15 -23q-70 59 -195 59q-138 0 -223.5 -94t-85.5 -236q0 -149 86.5 -239.5t225.5 -90.5q64 0 129 22.5t102 59.5v194h-218zM371 -76l20 12
q18 -2 29 -15.5t11 -34.5q0 -65 -70 -87l-8 15q50 20 50 66q0 37 -32 44z" />
    <glyph glyph-name="gcommaaccent" unicode="&#x123;" horiz-adv-x="487" 
d="M17 -69q0 52 37 86t103 47q-17 19 -17 46q0 30 19 49q-44 19 -69 56.5t-25 85.5q0 68 48.5 113t124.5 45q68 0 113 -36l126 35v-27l-103 -28q37 -42 37 -102q0 -68 -48 -112.5t-125 -44.5q-33 0 -57 7q-14 -15 -14 -41t18 -42q34 4 54 4q101 0 161.5 -37t60.5 -104
t-60.5 -103t-161.5 -36t-161.5 36t-60.5 103zM47 -69q0 -52 52.5 -82t139.5 -30q88 0 140 29.5t52 82.5t-52.5 83.5t-139.5 30.5t-139.5 -30.5t-52.5 -83.5zM95 301q0 -57 40 -93.5t103 -36.5t103 36.5t40 93.5t-40 94t-103 37t-103 -37t-40 -94zM263 573l-20 -12
q-18 2 -29 15.5t-11 34.5q0 65 70 87l8 -15q-50 -20 -50 -66q0 -37 32 -44z" />
    <glyph glyph-name="Hcircumflex" unicode="&#x124;" horiz-adv-x="772" 
d="M627 0v343h-481v-343h-30v700h30v-329h481v329h29v-700h-29zM218 757l166 94h4l167 -93l-15 -18l-154 85l-155 -85z" />
    <glyph glyph-name="hcircumflex" unicode="&#x125;" horiz-adv-x="553" 
d="M85 0v700h29v-318q28 33 76.5 54.5t96.5 21.5q96 0 143 -49.5t47 -154.5v-254h-28v248q0 93 -41 138t-126 45q-50 0 -97.5 -23t-70.5 -54v-354h-29zM-4 757l166 94h4l167 -93l-15 -18l-154 85l-155 -85z" />
    <glyph glyph-name="Hbar" unicode="&#x126;" horiz-adv-x="782" 
d="M29 527v27h92v146h30v-146h481v146h29v-146h93v-27h-93v-527h-29v343h-481v-343h-30v527h-92zM151 371h481v156h-481v-156z" />
    <glyph glyph-name="hbar" unicode="&#x127;" horiz-adv-x="559" 
d="M-42 542v27h133v131h29v-131h182v-27h-182v-160q28 33 76.5 54.5t96.5 21.5q96 0 143 -49.5t47 -154.5v-254h-28v248q0 93 -41 138t-126 45q-50 0 -97.5 -23t-70.5 -54v-354h-29v542h-133z" />
    <glyph glyph-name="Imacron" unicode="&#x12a;" horiz-adv-x="316" 
d="M143 0v700h30v-700h-30zM11 785v24h297v-24h-297z" />
    <glyph glyph-name="imacron" unicode="&#x12b;" horiz-adv-x="255" 
d="M113 0v450h28v-450h-28zM6 624v25h242v-25h-242z" />
    <glyph glyph-name="Iogonek" unicode="&#x12e;" horiz-adv-x="316" 
d="M169 -167l9 -19q-26 -14 -61 -14q-41 0 -73.5 21.5t-32.5 69.5q0 46 39 78.5t93 40.5v690h30v-700h-5q-51 -2 -90 -31t-39 -72q0 -39 27 -56t56 -17q28 0 47 9z" />
    <glyph glyph-name="iogonek" unicode="&#x12f;" horiz-adv-x="255" 
d="M137 -167l9 -19q-26 -14 -61 -14q-41 0 -73.5 21.5t-32.5 69.5q0 46 39.5 78.5t94.5 40.5v440h28v-450h-5q-51 -2 -90 -31t-39 -72q0 -39 27 -56t56 -17q28 0 47 9zM104 629q0 9 7 15.5t16 6.5q8 0 14.5 -6.5t6.5 -15.5q0 -10 -6.5 -16.5t-14.5 -6.5q-9 0 -16 6.5
t-7 16.5z" />
    <glyph glyph-name="Idotaccent" unicode="&#x130;" horiz-adv-x="316" 
d="M143 0v700h30v-700h-30zM135 797q0 22 25 22q9 0 15.5 -6t6.5 -16q0 -11 -6.5 -17.5t-15.5 -6.5q-25 0 -25 24z" />
    <glyph glyph-name="dotlessi" unicode="&#x131;" horiz-adv-x="255" 
d="M113 0v450h28v-450h-28z" />
    <glyph glyph-name="Jcircumflex" unicode="&#x134;" horiz-adv-x="350" 
d="M233 700v-550q0 -77 -29 -118t-100 -41q-52 0 -87 29l12 23q31 -23 72 -23q60 0 81.5 35t21.5 98v547h29zM42 757l166 94h4l167 -93l-15 -18l-154 85l-155 -85z" />
    <glyph glyph-name="jcircumflex" unicode="&#x135;" horiz-adv-x="255" 
d="M143 450v-483q0 -175 -141 -175q-49 0 -85 26l10 23q32 -22 71 -22q117 0 117 149v482h28zM131 708l120 -131l-15 -18l-107 114l-108 -113l-16 17l122 131h4z" />
    <glyph glyph-name="Kcommaaccent" unicode="&#x136;" horiz-adv-x="624" 
d="M577 700l-344 -333l356 -367h-43l-354 365l344 335h41zM116 0v700h30v-700h-30zM276 -76l20 12q18 -2 29 -15.5t11 -34.5q0 -65 -70 -87l-8 15q50 20 50 66q0 37 -32 44z" />
    <glyph glyph-name="kcommaaccent" unicode="&#x137;" horiz-adv-x="457" 
d="M414 450l-225 -213l244 -237h-40l-240 235l223 215h38zM85 0v700h29v-700h-29zM196 -76l20 12q18 -2 29 -15.5t11 -34.5q0 -65 -70 -87l-8 15q50 20 50 66q0 37 -32 44z" />
    <glyph glyph-name="Lacute" unicode="&#x139;" horiz-adv-x="554" 
d="M116 0v700h30v-672h389v-28h-419zM417 829l-167 -89l-9 18l165 94z" />
    <glyph glyph-name="lacute" unicode="&#x13a;" horiz-adv-x="276" 
d="M85 113v587h29v-566q0 -58 16.5 -84.5t56.5 -26.5q39 0 70 23l9 -23q-37 -27 -87 -27q-49 0 -71.5 28.5t-22.5 88.5zM247 829l-167 -89l-9 18l165 94z" />
    <glyph glyph-name="Lcommaaccent" unicode="&#x13b;" horiz-adv-x="554" 
d="M116 0v700h30v-672h389v-28h-419zM288 -76l20 12q18 -2 29 -15.5t11 -34.5q0 -65 -70 -87l-8 15q50 20 50 66q0 37 -32 44z" />
    <glyph glyph-name="lcommaaccent" unicode="&#x13c;" horiz-adv-x="276" 
d="M85 113v587h29v-566q0 -58 16.5 -84.5t56.5 -26.5q39 0 70 23l9 -23q-37 -27 -87 -27q-49 0 -71.5 28.5t-22.5 88.5zM133 -76l20 12q18 -2 29 -15.5t11 -34.5q0 -65 -70 -87l-8 15q50 20 50 66q0 37 -32 44z" />
    <glyph glyph-name="Lcaron" unicode="&#x13d;" horiz-adv-x="554" 
d="M116 0v700h30v-672h389v-28h-419zM357 700h28q9 -18 9 -42q0 -45 -18.5 -77t-46.5 -46l-12 15q50 32 50 105q0 27 -10 45z" />
    <glyph glyph-name="lcaron" unicode="&#x13e;" horiz-adv-x="276" 
d="M85 113v587h29v-566q0 -58 16.5 -84.5t56.5 -26.5q39 0 70 23l9 -23q-37 -27 -87 -27q-49 0 -71.5 28.5t-22.5 88.5zM232 700h28q9 -18 9 -42q0 -45 -18.5 -77t-46.5 -46l-12 15q50 32 50 105q0 27 -10 45z" />
    <glyph glyph-name="Ldot" unicode="&#x13f;" horiz-adv-x="554" 
d="M116 0v700h30v-672h389v-28h-419zM385 374q0 8 7.5 15t17.5 7q9 0 16 -7t7 -15q0 -10 -7 -17.5t-16 -7.5q-10 0 -17.5 7.5t-7.5 17.5z" />
    <glyph glyph-name="ldot" unicode="&#x140;" horiz-adv-x="285" 
d="M85 113v587h29v-566q0 -58 16.5 -84.5t56.5 -26.5q39 0 70 23l9 -23q-37 -27 -87 -27q-49 0 -71.5 28.5t-22.5 88.5zM223 308q0 9 7 15.5t16 6.5q8 0 14.5 -6.5t6.5 -15.5q0 -10 -6.5 -16.5t-14.5 -6.5q-9 0 -16 6.5t-7 16.5z" />
    <glyph glyph-name="Lslash" unicode="&#x141;" horiz-adv-x="564" 
d="M29 241v31l97 50v378h30v-362l196 102v-29l-196 -103v-280h389v-28h-419v292z" />
    <glyph glyph-name="lslash" unicode="&#x142;" horiz-adv-x="306" 
d="M19 252v30l86 45v373h29v-358l119 62v-29l-119 -63v-178q0 -58 16.5 -84.5t56.5 -26.5q39 0 70 23l9 -23q-37 -27 -87 -27q-49 0 -71.5 28.5t-22.5 88.5v184z" />
    <glyph glyph-name="Nacute" unicode="&#x143;" horiz-adv-x="799" 
d="M683 0h-24l-515 646v-646h-28v700h24l514 -648v648h29v-700zM538 829l-167 -89l-9 18l165 94z" />
    <glyph glyph-name="nacute" unicode="&#x144;" horiz-adv-x="553" 
d="M85 0v450h29v-68q28 32 76.5 54t96.5 22q96 0 143 -49.5t47 -154.5v-254h-28v248q0 93 -41 138t-126 45q-50 0 -97 -23t-71 -54v-354h-29zM373 693l-112 -141l-18 12l109 146z" />
    <glyph glyph-name="Ncommaaccent" unicode="&#x145;" horiz-adv-x="799" 
d="M683 0h-24l-515 646v-646h-28v700h24l514 -648v648h29v-700zM369 -76l20 12q18 -2 29 -15.5t11 -34.5q0 -65 -70 -87l-8 15q50 20 50 66q0 37 -32 44z" />
    <glyph glyph-name="ncommaaccent" unicode="&#x146;" horiz-adv-x="553" 
d="M85 0v450h29v-68q28 32 76.5 54t96.5 22q96 0 143 -49.5t47 -154.5v-254h-28v248q0 93 -41 138t-126 45q-50 0 -97 -23t-71 -54v-354h-29zM253 -76l20 12q18 -2 29 -15.5t11 -34.5q0 -65 -70 -87l-8 15q50 20 50 66q0 37 -32 44z" />
    <glyph glyph-name="Ncaron" unicode="&#x147;" horiz-adv-x="799" 
d="M683 0h-24l-515 646v-646h-28v700h24l514 -648v648h29v-700zM397 742l-167 93l13 17l156 -85l154 85l14 -17l-166 -93h-4z" />
    <glyph glyph-name="ncaron" unicode="&#x148;" horiz-adv-x="553" 
d="M85 0v450h29v-68q28 32 76.5 54t96.5 22q96 0 143 -49.5t47 -154.5v-254h-28v248q0 93 -41 138t-126 45q-50 0 -97 -23t-71 -54v-354h-29zM274 560l-122 131l16 18l108 -119l107 118l16 -17l-121 -131h-4z" />
    <glyph glyph-name="Omacron" unicode="&#x14c;" horiz-adv-x="807" 
d="M57 350q0 152 99 255.5t247 103.5q147 0 246.5 -102.5t99.5 -256.5q0 -153 -99.5 -256t-246.5 -103t-246.5 102.5t-99.5 256.5zM88 350q0 -141 90.5 -235.5t224.5 -94.5q135 0 225 94.5t90 235.5t-90.5 235.5t-224.5 94.5t-224.5 -94.5t-90.5 -235.5zM256 785v24h297v-24
h-297z" />
    <glyph glyph-name="omacron" unicode="&#x14d;" horiz-adv-x="569" 
d="M52 225q0 102 65 168t167 66t167.5 -66t65.5 -168t-65.5 -168t-167.5 -66t-167 66t-65 168zM81 225q0 -91 57 -149t146 -58t146 58t57 149t-57 149t-146 58t-146 -58t-57 -149zM164 624v25h242v-25h-242z" />
    <glyph glyph-name="Ohungarumlaut" unicode="&#x150;" horiz-adv-x="807" 
d="M57 350q0 152 99 255.5t247 103.5q147 0 246.5 -102.5t99.5 -256.5q0 -153 -99.5 -256t-246.5 -103t-246.5 102.5t-99.5 256.5zM88 350q0 -141 90.5 -235.5t224.5 -94.5q135 0 225 94.5t90 235.5t-90.5 235.5t-224.5 94.5t-224.5 -94.5t-90.5 -235.5zM637 833l-160 -93
l-13 14l156 98zM461 837l-156 -97l-13 14l148 98z" />
    <glyph glyph-name="ohungarumlaut" unicode="&#x151;" horiz-adv-x="569" 
d="M52 225q0 102 65 168t167 66t167.5 -66t65.5 -168t-65.5 -168t-167.5 -66t-167 66t-65 168zM81 225q0 -91 57 -149t146 -58t146 58t57 149t-57 149t-146 58t-146 -58t-57 -149zM464 692l-113 -140l-18 12l111 145zM317 695l-110 -143l-18 12l108 146z" />
    <glyph glyph-name="OE" unicode="&#x152;" horiz-adv-x="1048" 
d="M589 0v43q-76 -52 -185 -52q-155 0 -251 98.5t-96 260.5q0 154 94 256.5t244 102.5q119 0 194 -52v43h380v-28h-350v-302h320v-28h-320v-314h360v-28h-390zM406 20q109 0 183 57v547q-73 56 -193 56q-137 0 -222.5 -94t-85.5 -236q0 -148 88.5 -239t229.5 -91z" />
    <glyph glyph-name="oe" unicode="&#x153;" horiz-adv-x="847" 
d="M761 80l11 -21q-28 -33 -72.5 -50.5t-91.5 -17.5q-98 0 -164 58q-63 -58 -159 -58q-102 0 -167.5 66t-65.5 168t65.5 168t167.5 66q92 0 154 -56q59 56 156 56q88 0 144.5 -55.5t56.5 -146.5q0 -13 -2 -31h-391q1 -96 57 -152t149 -56q95 0 152 62zM285 18q83 0 139 51
q-52 63 -52 156q0 96 50 158q-55 49 -137 49q-89 0 -146 -58t-57 -149t57 -149t146 -58zM591 432q-84 0 -134 -50.5t-56 -131.5h367q0 84 -48 133t-129 49z" />
    <glyph glyph-name="Racute" unicode="&#x154;" horiz-adv-x="621" 
d="M146 0h-30v700q22 0 82.5 1t68.5 1q242 0 242 -196q0 -71 -49 -125t-128 -69l254 -312h-37l-249 306h-154v-306zM265 674q-53 0 -119 -2v-338h136q75 0 135.5 49.5t60.5 122.5q0 168 -213 168zM386 829l-167 -89l-9 18l165 94z" />
    <glyph glyph-name="racute" unicode="&#x155;" horiz-adv-x="320" 
d="M85 0v450h29v-65q47 73 127 73q47 0 70 -17l-9 -27q-29 17 -65 17q-74 0 -123 -79v-352h-29zM290 693l-112 -141l-18 12l109 146z" />
    <glyph glyph-name="Rcommaaccent" unicode="&#x156;" horiz-adv-x="621" 
d="M146 0h-30v700q22 0 82.5 1t68.5 1q242 0 242 -196q0 -71 -49 -125t-128 -69l254 -312h-37l-249 306h-154v-306zM265 674q-53 0 -119 -2v-338h136q75 0 135.5 49.5t60.5 122.5q0 168 -213 168zM274 -76l20 12q18 -2 29 -15.5t11 -34.5q0 -65 -70 -87l-8 15q50 20 50 66
q0 37 -32 44z" />
    <glyph glyph-name="rcommaaccent" unicode="&#x157;" horiz-adv-x="320" 
d="M85 0v450h29v-65q47 73 127 73q47 0 70 -17l-9 -27q-29 17 -65 17q-74 0 -123 -79v-352h-29zM120 -76l20 12q18 -2 29 -15.5t11 -34.5q0 -65 -70 -87l-8 15q50 20 50 66q0 37 -32 44z" />
    <glyph glyph-name="Rcaron" unicode="&#x158;" horiz-adv-x="621" 
d="M146 0h-30v700q22 0 82.5 1t68.5 1q242 0 242 -196q0 -71 -49 -125t-128 -69l254 -312h-37l-249 306h-154v-306zM265 674q-53 0 -119 -2v-338h136q75 0 135.5 49.5t60.5 122.5q0 168 -213 168zM272 742l-167 93l13 17l156 -85l154 85l14 -17l-166 -93h-4z" />
    <glyph glyph-name="rcaron" unicode="&#x159;" horiz-adv-x="320" 
d="M85 0v450h29v-65q47 73 127 73q47 0 70 -17l-9 -27q-29 17 -65 17q-74 0 -123 -79v-352h-29zM187 560l-122 131l16 18l108 -119l107 118l16 -17l-121 -131h-4z" />
    <glyph glyph-name="Sacute" unicode="&#x15a;" horiz-adv-x="543" 
d="M455 170q0 44 -21 77t-54.5 52t-73.5 34.5l-80.5 31.5t-74 36.5t-54.5 55.5t-21 83q0 74 53.5 121.5t146.5 47.5q56 0 105.5 -19.5t78.5 -51.5l-17 -21q-62 63 -168 63q-77 0 -122.5 -38.5t-45.5 -101.5q0 -50 28 -85t70 -52l91.5 -36.5t91.5 -38.5t70 -59.5t28 -97.5
q0 -81 -62.5 -130.5t-156.5 -49.5q-62 0 -123 27.5t-87 71.5l19 20q30 -41 83.5 -65.5t105.5 -24.5q78 0 134 39.5t56 110.5zM403 829l-167 -89l-9 18l165 94z" />
    <glyph glyph-name="sacute" unicode="&#x15b;" horiz-adv-x="409" 
d="M323 114q0 31 -19 51.5t-47 30.5l-61 22t-61 24t-47 38.5t-19 65.5q0 50 37.5 81.5t99.5 31.5q39 0 74.5 -13.5t54.5 -34.5l-14 -21q-41 43 -116 43q-48 0 -77.5 -25t-29.5 -61q0 -33 19 -55t47 -32.5l61 -22t61 -23t47 -37t19 -61.5q0 -61 -43 -93t-108 -32
q-42 0 -85.5 19t-59.5 43l18 18q17 -24 55 -39t73 -15q50 0 85.5 25t35.5 72zM306 693l-112 -141l-18 12l109 146z" />
    <glyph glyph-name="Scircumflex" unicode="&#x15c;" horiz-adv-x="543" 
d="M455 170q0 44 -21 77t-54.5 52t-73.5 34.5l-80.5 31.5t-74 36.5t-54.5 55.5t-21 83q0 74 53.5 121.5t146.5 47.5q56 0 105.5 -19.5t78.5 -51.5l-17 -21q-62 63 -168 63q-77 0 -122.5 -38.5t-45.5 -101.5q0 -50 28 -85t70 -52l91.5 -36.5t91.5 -38.5t70 -59.5t28 -97.5
q0 -81 -62.5 -130.5t-156.5 -49.5q-62 0 -123 27.5t-87 71.5l19 20q30 -41 83.5 -65.5t105.5 -24.5q78 0 134 39.5t56 110.5zM103 757l166 94h4l167 -93l-15 -18l-154 85l-155 -85z" />
    <glyph glyph-name="scircumflex" unicode="&#x15d;" horiz-adv-x="409" 
d="M323 114q0 31 -19 51.5t-47 30.5l-61 22t-61 24t-47 38.5t-19 65.5q0 50 37.5 81.5t99.5 31.5q39 0 74.5 -13.5t54.5 -34.5l-14 -21q-41 43 -116 43q-48 0 -77.5 -25t-29.5 -61q0 -33 19 -55t47 -32.5l61 -22t61 -23t47 -37t19 -61.5q0 -61 -43 -93t-108 -32
q-42 0 -85.5 19t-59.5 43l18 18q17 -24 55 -39t73 -15q50 0 85.5 25t35.5 72zM210 708l120 -131l-15 -18l-107 114l-108 -113l-16 17l122 131h4z" />
    <glyph glyph-name="Scedilla" unicode="&#x15e;" horiz-adv-x="543" 
d="M176 -177l10 17q40 -21 74 -21q36 0 58.5 15t22.5 39q0 54 -82 54h-6v65q-60 3 -115.5 30t-80.5 68l19 20q30 -41 83.5 -65.5t105.5 -24.5q78 0 134 39.5t56 110.5q0 44 -21 77t-54.5 52t-73.5 34.5l-80.5 31.5t-74 36.5t-54.5 55.5t-21 83q0 74 53.5 121.5t146.5 47.5
q56 0 105.5 -19.5t78.5 -51.5l-17 -21q-62 63 -168 63q-77 0 -122.5 -38.5t-45.5 -101.5q0 -50 28 -85t70 -52l91.5 -36.5t91.5 -38.5t70 -59.5t28 -97.5q0 -80 -61 -129t-153 -51v-47q98 -1 98 -72q0 -33 -28.5 -53t-76.5 -20q-44 0 -89 24z" />
    <glyph glyph-name="scedilla" unicode="&#x15f;" horiz-adv-x="409" 
d="M109 -178l10 17q38 -20 73 -20q36 0 58.5 15t22.5 39q0 54 -82 54h-6v65q-40 4 -77.5 21.5t-51.5 39.5l18 18q17 -24 55 -39t73 -15q50 0 85.5 25t35.5 72q0 31 -19 51.5t-47 30.5l-61 22t-61 24t-47 38.5t-19 65.5q0 50 37.5 81.5t99.5 31.5q39 0 74.5 -13.5t54.5 -34.5
l-14 -21q-41 43 -116 43q-48 0 -77.5 -25t-29.5 -61q0 -33 19 -55t47 -32.5l61 -22t61 -23t47 -37t19 -61.5q0 -60 -42.5 -92t-105.5 -33v-47q97 -1 97 -72q0 -33 -28.5 -53t-77.5 -20q-38 0 -86 23z" />
    <glyph glyph-name="Scaron" unicode="&#x160;" horiz-adv-x="543" 
d="M455 170q0 44 -21 77t-54.5 52t-73.5 34.5l-80.5 31.5t-74 36.5t-54.5 55.5t-21 83q0 74 53.5 121.5t146.5 47.5q56 0 105.5 -19.5t78.5 -51.5l-17 -21q-62 63 -168 63q-77 0 -122.5 -38.5t-45.5 -101.5q0 -50 28 -85t70 -52l91.5 -36.5t91.5 -38.5t70 -59.5t28 -97.5
q0 -81 -62.5 -130.5t-156.5 -49.5q-62 0 -123 27.5t-87 71.5l19 20q30 -41 83.5 -65.5t105.5 -24.5q78 0 134 39.5t56 110.5zM276 742l-167 93l13 17l156 -85l154 85l14 -17l-166 -93h-4z" />
    <glyph glyph-name="scaron" unicode="&#x161;" horiz-adv-x="409" 
d="M323 114q0 31 -19 51.5t-47 30.5l-61 22t-61 24t-47 38.5t-19 65.5q0 50 37.5 81.5t99.5 31.5q39 0 74.5 -13.5t54.5 -34.5l-14 -21q-41 43 -116 43q-48 0 -77.5 -25t-29.5 -61q0 -33 19 -55t47 -32.5l61 -22t61 -23t47 -37t19 -61.5q0 -61 -43 -93t-108 -32
q-42 0 -85.5 19t-59.5 43l18 18q17 -24 55 -39t73 -15q50 0 85.5 25t35.5 72zM203 560l-122 131l16 18l108 -119l107 118l16 -17l-121 -131h-4z" />
    <glyph glyph-name="Tcedilla" unicode="&#x162;" horiz-adv-x="591" 
d="M209 -177l10 17q40 -21 74 -21q36 0 58.5 15t22.5 39q0 54 -82 54h-6v73h-5v672h-271v28h571v-28h-271v-672h-5v-56q98 -1 98 -72q0 -33 -28.5 -53t-76.5 -20q-44 0 -89 24z" />
    <glyph glyph-name="tcedilla" unicode="&#x163;" horiz-adv-x="344" 
d="M94 -178l10 17q38 -20 73 -20q36 0 58.5 15t22.5 39q0 54 -82 54h-6v73q-95 24 -95 171v404h29v-125h194v-27h-194v-243q0 -80 27.5 -119t89.5 -39q41 0 73 24l12 -23q-40 -28 -90 -28q-11 0 -27 2v-53q97 -1 97 -72q0 -33 -28.5 -53t-77.5 -20q-38 0 -86 23z" />
    <glyph glyph-name="Tcaron" unicode="&#x164;" horiz-adv-x="591" 
d="M10 672v28h571v-28h-271v-672h-29v672h-271zM294 742l-167 93l13 17l156 -85l154 85l14 -17l-166 -93h-4z" />
    <glyph glyph-name="tcaron" unicode="&#x165;" horiz-adv-x="344" 
d="M75 171v404h29v-125h194v-27h-194v-243q0 -80 27.5 -119t89.5 -39q41 0 73 24l12 -23q-40 -28 -90 -28q-74 0 -107.5 44t-33.5 132zM239 700h28q9 -18 9 -42q0 -45 -18.5 -77t-46.5 -46l-12 15q50 32 50 105q0 27 -10 45z" />
    <glyph glyph-name="Umacron" unicode="&#x16a;" horiz-adv-x="751" 
d="M645 700v-406q0 -151 -73.5 -226t-186.5 -75q-124 0 -201.5 80t-77.5 228v399h30v-395q0 -135 69 -209.5t180 -74.5q103 0 166.5 70t63.5 210v399h30zM228 785v24h297v-24h-297z" />
    <glyph glyph-name="umacron" unicode="&#x16b;" horiz-adv-x="547" 
d="M462 450v-450h-28v78q-29 -36 -79 -61.5t-102 -25.5q-178 0 -178 203v256h29v-249q0 -93 38 -138t120 -45q51 0 99 27.5t73 61.5v343h28zM152 624v25h242v-25h-242z" />
    <glyph glyph-name="Ubreve" unicode="&#x16c;" horiz-adv-x="751" 
d="M645 700v-406q0 -151 -73.5 -226t-186.5 -75q-124 0 -201.5 80t-77.5 228v399h30v-395q0 -135 69 -209.5t180 -74.5q103 0 166.5 70t63.5 210v399h30zM220 835l14 15q57 -68 143 -68q84 0 140 68l13 -15q-57 -79 -153 -79q-57 0 -98 25.5t-59 53.5z" />
    <glyph glyph-name="ubreve" unicode="&#x16d;" horiz-adv-x="547" 
d="M462 450v-450h-28v78q-29 -36 -79 -61.5t-102 -25.5q-178 0 -178 203v256h29v-249q0 -93 38 -138t120 -45q51 0 99 27.5t73 61.5v343h28zM139 665l14 15q56 -67 121 -67q66 0 119 67l12 -15q-58 -77 -132 -77q-85 0 -134 77z" />
    <glyph glyph-name="Uring" unicode="&#x16e;" horiz-adv-x="751" 
d="M645 700v-406q0 -151 -73.5 -226t-186.5 -75q-124 0 -201.5 80t-77.5 228v399h30v-395q0 -135 69 -209.5t180 -74.5q103 0 166.5 70t63.5 210v399h30zM275 779q0 40 28 60.5t72 20.5q45 0 73.5 -20.5t28.5 -60.5q0 -39 -29 -61t-73 -22q-43 0 -71.5 22t-28.5 61zM298 779
q0 -31 21.5 -47.5t55.5 -16.5q35 0 57 16.5t22 47.5t-22 46.5t-57 15.5t-56 -15.5t-21 -46.5z" />
    <glyph glyph-name="uring" unicode="&#x16f;" horiz-adv-x="547" 
d="M462 450v-450h-28v78q-29 -36 -79 -61.5t-102 -25.5q-178 0 -178 203v256h29v-249q0 -93 38 -138t120 -45q51 0 99 27.5t73 61.5v343h28zM174 614q0 41 28.5 69.5t69.5 28.5t70 -28.5t29 -69.5q0 -40 -29 -68t-70 -28t-69.5 28t-28.5 68zM195 615q0 -33 22 -55.5
t55 -22.5q32 0 55 22.5t23 55.5q0 32 -23 55t-55 23q-33 0 -55 -22.5t-22 -55.5z" />
    <glyph glyph-name="Uhungarumlaut" unicode="&#x170;" horiz-adv-x="751" 
d="M645 700v-406q0 -151 -73.5 -226t-186.5 -75q-124 0 -201.5 80t-77.5 228v399h30v-395q0 -135 69 -209.5t180 -74.5q103 0 166.5 70t63.5 210v399h30zM596 833l-160 -93l-13 14l156 98zM420 837l-156 -97l-13 14l148 98z" />
    <glyph glyph-name="uhungarumlaut" unicode="&#x171;" horiz-adv-x="547" 
d="M462 450v-450h-28v78q-29 -36 -79 -61.5t-102 -25.5q-178 0 -178 203v256h29v-249q0 -93 38 -138t120 -45q51 0 99 27.5t73 61.5v343h28zM453 692l-113 -140l-18 12l111 145zM306 695l-110 -143l-18 12l108 146z" />
    <glyph glyph-name="Uogonek" unicode="&#x172;" horiz-adv-x="751" 
d="M645 700v-406q0 -130 -55 -203.5t-146 -91.5q-90 -39 -90 -102q0 -39 27 -56t56 -17q28 0 47 9l9 -19q-26 -14 -61 -14q-41 0 -73.5 21.5t-32.5 69.5q0 64 80 103q-7 -1 -21 -1q-124 0 -201.5 80t-77.5 228v399h30v-395q0 -135 69 -209.5t180 -74.5q103 0 166.5 70
t63.5 210v399h30z" />
    <glyph glyph-name="uogonek" unicode="&#x173;" horiz-adv-x="547" 
d="M458 -167l9 -19q-26 -14 -61 -14q-41 0 -73.5 21.5t-32.5 69.5q0 46 39.5 78.5t94.5 40.5v68q-29 -36 -79 -61.5t-102 -25.5q-178 0 -178 203v256h29v-249q0 -93 38 -138t120 -45q51 0 99 27.5t73 61.5v343h28v-450h-5q-51 -2 -90 -31t-39 -72q0 -39 27 -56t56 -17
q28 0 47 9z" />
    <glyph glyph-name="Ydieresis" unicode="&#x178;" horiz-adv-x="567" 
d="M550 700l-253 -389v-311h-29v311l-251 389h35l231 -361l233 361h34zM144 796q0 9 7 15t17 6q9 0 16 -6t7 -15q0 -10 -7 -16t-16 -6q-24 0 -24 22zM378 796q0 9 7 15t17 6q9 0 15.5 -6t6.5 -15q0 -10 -6.5 -16t-15.5 -6q-24 0 -24 22z" />
    <glyph glyph-name="Zacute" unicode="&#x179;" horiz-adv-x="624" 
d="M60 672v28h514v-16l-491 -656h501v-28h-544v16l490 656h-470zM442 829l-167 -89l-9 18l165 94z" />
    <glyph glyph-name="zacute" unicode="&#x17a;" horiz-adv-x="478" 
d="M64 423v27h365v-16l-338 -407h333v-27h-375v16l336 407h-321zM342 693l-112 -141l-18 12l109 146z" />
    <glyph glyph-name="Zdotaccent" unicode="&#x17b;" horiz-adv-x="624" 
d="M60 672v28h514v-16l-491 -656h501v-28h-544v16l490 656h-470zM280 797q0 22 25 22q9 0 15.5 -6t6.5 -16q0 -11 -6.5 -17.5t-15.5 -6.5q-25 0 -25 24z" />
    <glyph glyph-name="zdotaccent" unicode="&#x17c;" horiz-adv-x="478" 
d="M64 423v27h365v-16l-338 -407h333v-27h-375v16l336 407h-321zM215 629q0 9 7 15.5t16 6.5q8 0 14.5 -6.5t6.5 -15.5q0 -10 -6.5 -16.5t-14.5 -6.5q-9 0 -16 6.5t-7 16.5z" />
    <glyph glyph-name="Zcaron" unicode="&#x17d;" horiz-adv-x="624" 
d="M60 672v28h514v-16l-491 -656h501v-28h-544v16l490 656h-470zM309 742l-167 93l13 17l156 -85l154 85l14 -17l-166 -93h-4z" />
    <glyph glyph-name="zcaron" unicode="&#x17e;" horiz-adv-x="478" 
d="M64 423v27h365v-16l-338 -407h333v-27h-375v16l336 407h-321zM239 560l-122 131l16 18l108 -119l107 118l16 -17l-121 -131h-4z" />
    <glyph glyph-name="longs" unicode="&#x17f;" horiz-adv-x="252" 
d="M103 0v523q0 186 153 186q69 0 112 -37l-11 -22q-44 32 -98 32q-128 0 -128 -168v-514h-28z" />
    <glyph glyph-name="uni018F" unicode="&#x18f;" horiz-adv-x="778" 
d="M49 371h639q-5 142 -92.5 225.5t-230.5 83.5q-119 0 -196 -60l-13 21q77 68 214 68q160 0 255 -96.5t95 -259.5q0 -157 -92 -259.5t-245 -102.5q-154 0 -245 107t-89 273zM382 20q139 0 221.5 91.5t85.5 231.5h-609q3 -138 85.5 -230.5t216.5 -92.5z" />
    <glyph glyph-name="florin" unicode="&#x192;" 
d="M340 514l-12 -64h183v-27h-188l-82 -456q-16 -88 -52 -131.5t-108 -43.5q-49 0 -85 26l10 23q32 -22 70 -22q61 0 92 37t45 115l81 452h-171v27h176l13 73q18 97 57 141.5t113 44.5q70 0 113 -37l-12 -22q-43 32 -97 32q-62 0 -95.5 -39.5t-50.5 -128.5z" />
    <glyph glyph-name="uni01DD" unicode="&#x1dd;" horiz-adv-x="527" 
d="M87 370l-11 21q29 32 77 50t96 18q103 0 164.5 -63.5t61.5 -170.5q0 -102 -57 -168t-160 -66q-92 0 -150 55.5t-58 146.5q0 6 1 20.5t1 19.5h392q-1 85 -53.5 142t-142.5 57q-47 0 -91.5 -17.5t-69.5 -44.5zM261 18q82 0 132.5 53.5t52.5 136.5h-367q-2 -91 47 -140.5
t135 -49.5z" />
    <glyph glyph-name="Scommaaccent" unicode="&#x218;" horiz-adv-x="543" 
d="M455 170q0 44 -21 77t-54.5 52t-73.5 34.5l-80.5 31.5t-74 36.5t-54.5 55.5t-21 83q0 74 53.5 121.5t146.5 47.5q56 0 105.5 -19.5t78.5 -51.5l-17 -21q-62 63 -168 63q-77 0 -122.5 -38.5t-45.5 -101.5q0 -50 28 -85t70 -52l91.5 -36.5t91.5 -38.5t70 -59.5t28 -97.5
q0 -81 -62.5 -130.5t-156.5 -49.5q-62 0 -123 27.5t-87 71.5l19 20q30 -41 83.5 -65.5t105.5 -24.5q78 0 134 39.5t56 110.5zM243 -76l20 12q18 -2 29 -15.5t11 -34.5q0 -65 -70 -87l-8 15q50 20 50 66q0 37 -32 44z" />
    <glyph glyph-name="scommaaccent" unicode="&#x219;" horiz-adv-x="409" 
d="M323 114q0 31 -19 51.5t-47 30.5l-61 22t-61 24t-47 38.5t-19 65.5q0 50 37.5 81.5t99.5 31.5q39 0 74.5 -13.5t54.5 -34.5l-14 -21q-41 43 -116 43q-48 0 -77.5 -25t-29.5 -61q0 -33 19 -55t47 -32.5l61 -22t61 -23t47 -37t19 -61.5q0 -61 -43 -93t-108 -32
q-42 0 -85.5 19t-59.5 43l18 18q17 -24 55 -39t73 -15q50 0 85.5 25t35.5 72zM183 -76l20 12q18 -2 29 -15.5t11 -34.5q0 -65 -70 -87l-8 15q50 20 50 66q0 37 -32 44z" />
    <glyph glyph-name="Tcommaaccent" unicode="&#x21a;" horiz-adv-x="591" 
d="M10 672v28h571v-28h-271v-672h-29v672h-271zM273 -76l20 12q18 -2 29 -15.5t11 -34.5q0 -65 -70 -87l-8 15q50 20 50 66q0 37 -32 44z" />
    <glyph glyph-name="tcommaaccent" unicode="&#x21b;" horiz-adv-x="344" 
d="M75 171v404h29v-125h194v-27h-194v-243q0 -80 27.5 -119t89.5 -39q41 0 73 24l12 -23q-40 -28 -90 -28q-74 0 -107.5 44t-33.5 132zM170 -76l20 12q18 -2 29 -15.5t11 -34.5q0 -65 -70 -87l-8 15q50 20 50 66q0 37 -32 44z" />
    <glyph glyph-name="uni0237" unicode="&#x237;" horiz-adv-x="255" 
d="M143 450v-483q0 -175 -141 -175q-49 0 -85 26l10 23q32 -22 71 -22q117 0 117 149v482h28z" />
    <glyph glyph-name="uni0259" unicode="&#x259;" horiz-adv-x="527" 
d="M87 370l-11 21q29 32 77 50t96 18q103 0 164.5 -63.5t61.5 -170.5q0 -102 -57 -168t-160 -66q-92 0 -150 55.5t-58 146.5q0 6 1 20.5t1 19.5h392q-1 85 -53.5 142t-142.5 57q-47 0 -91.5 -17.5t-69.5 -44.5zM261 18q82 0 132.5 53.5t52.5 136.5h-367q-2 -91 47 -140.5
t135 -49.5z" />
    <glyph glyph-name="afii57929" unicode="&#x2bc;" horiz-adv-x="197" 
d="M90 632l24 17q23 -25 23 -65q0 -83 -65 -117l-12 15q50 28 50 96q0 34 -20 54z" />
    <glyph glyph-name="circumflex" unicode="&#x2c6;" horiz-adv-x="366" 
d="M186 708l120 -131l-15 -18l-107 114l-108 -113l-16 17l122 131h4z" />
    <glyph glyph-name="caron" unicode="&#x2c7;" horiz-adv-x="367" 
d="M182 560l-122 131l16 18l108 -119l107 118l16 -17l-121 -131h-4z" />
    <glyph glyph-name="breve" unicode="&#x2d8;" horiz-adv-x="386" 
d="M60 665l14 15q56 -67 121 -67q66 0 119 67l12 -15q-58 -77 -132 -77q-85 0 -134 77z" />
    <glyph glyph-name="dotaccent" unicode="&#x2d9;" horiz-adv-x="164" 
d="M60 629q0 9 7 15.5t16 6.5q8 0 14.5 -6.5t6.5 -15.5q0 -10 -6.5 -16.5t-14.5 -6.5q-9 0 -16 6.5t-7 16.5z" />
    <glyph glyph-name="ring" unicode="&#x2da;" horiz-adv-x="317" 
d="M60 614q0 41 28.5 69.5t69.5 28.5t70 -28.5t29 -69.5q0 -40 -29 -68t-70 -28t-69.5 28t-28.5 68zM81 615q0 -33 22 -55.5t55 -22.5q32 0 55 22.5t23 55.5q0 32 -23 55t-55 23q-33 0 -55 -22.5t-22 -55.5z" />
    <glyph glyph-name="ogonek" unicode="&#x2db;" horiz-adv-x="287" 
d="M218 -167l9 -19q-26 -14 -61 -14q-41 0 -73.5 21.5t-32.5 69.5q0 53 50 87t112 34v-12q-51 0 -92.5 -29.5t-41.5 -73.5q0 -39 27 -56t56 -17q28 0 47 9z" />
    <glyph glyph-name="tilde" unicode="&#x2dc;" horiz-adv-x="410" 
d="M73 586l-13 15q51 46 93 46q24 0 56.5 -24t52.5 -24q31 0 76 41l12 -16q-50 -49 -91 -49q-22 0 -54.5 23.5t-55.5 23.5q-32 0 -76 -36z" />
    <glyph glyph-name="hungarumlaut" unicode="&#x2dd;" horiz-adv-x="395" 
d="M335 692l-113 -140l-18 12l111 145zM188 695l-110 -143l-18 12l108 146z" />
    <glyph glyph-name="gravecomb" unicode="&#x300;" horiz-adv-x="0" 
d="M-257 552l-112 141l21 17l109 -146z" />
    <glyph glyph-name="acutecomb" unicode="&#x301;" horiz-adv-x="0" 
d="M-172 693l-112 -141l-18 12l109 146z" />
    <glyph glyph-name="uni0394" unicode="&#x394;" horiz-adv-x="704" 
d="M37 0l303 708h16l310 -708h-629zM348 656l-267 -628h541z" />
    <glyph glyph-name="uni0394" unicode="&#x2206;" horiz-adv-x="704" 
d="M37 0l303 708h16l310 -708h-629zM348 656l-267 -628h541z" />
    <glyph glyph-name="uni03A9" unicode="&#x3a9;" horiz-adv-x="807" 
d="M90 0v28h187q-96 32 -157 121.5t-61 205.5q0 152 99.5 253t245.5 101q147 0 245.5 -101t98.5 -253q0 -117 -61 -206t-158 -121h188v-28h-246v28q109 25 177.5 114.5t68.5 209.5q0 139 -89.5 233.5t-223.5 94.5q-135 0 -224.5 -94.5t-89.5 -234.5q0 -119 68 -209t177 -114
v-28h-245z" />
    <glyph glyph-name="uni03A9" unicode="&#x2126;" horiz-adv-x="807" 
d="M90 0v28h187q-96 32 -157 121.5t-61 205.5q0 152 99.5 253t245.5 101q147 0 245.5 -101t98.5 -253q0 -117 -61 -206t-158 -121h188v-28h-246v28q109 25 177.5 114.5t68.5 209.5q0 139 -89.5 233.5t-223.5 94.5q-135 0 -224.5 -94.5t-89.5 -234.5q0 -119 68 -209t177 -114
v-28h-245z" />
    <glyph glyph-name="pi" unicode="&#x3c0;" horiz-adv-x="647" 
d="M54 423v27h538v-27h-109v-307q0 -51 11 -72t42 -21q35 0 64 23l9 -23q-37 -27 -81 -27q-38 0 -55.5 24t-17.5 76v327h-264v-84q0 -101 -10.5 -169.5t-31.5 -105t-47 -51.5t-63 -15l-2 28q62 0 93.5 67t32.5 236v94h-109z" />
    <glyph glyph-name="afii10023" unicode="&#x401;" horiz-adv-x="575" 
d="M116 0v700h380v-28h-350v-302h320v-28h-320v-314h360v-28h-390zM168 796q0 9 7 15t17 6q9 0 16 -6t7 -15q0 -10 -7 -16t-16 -6q-24 0 -24 22zM402 796q0 9 7 15t17 6q9 0 15.5 -6t6.5 -15q0 -10 -6.5 -16t-15.5 -6q-24 0 -24 22z" />
    <glyph glyph-name="afii10051" unicode="&#x402;" horiz-adv-x="758" 
d="M701 205q0 -111 -44.5 -162.5t-120.5 -51.5q-25 0 -50.5 10t-35.5 19l12 23q31 -23 72 -23q64 0 100.5 45t36.5 139q0 191 -182 191q-26 0 -48 -3.5t-44 -13t-31 -14t-32 -18.5t-24 -15v-331h-29v672h-271v28h571v-28h-271v-313q28 19 47.5 30t58 22.5t79.5 11.5
q206 0 206 -218z" />
    <glyph glyph-name="afii10052" unicode="&#x403;" horiz-adv-x="501" 
d="M116 0v700h383v-28h-353v-672h-30zM443 829l-167 -89l-9 18l165 94z" />
    <glyph glyph-name="afii10053" unicode="&#x404;" horiz-adv-x="682" 
d="M479 371v-28h-392q2 -146 93 -234.5t236 -88.5q111 0 206 68l14 -24q-100 -73 -223 -73q-159 0 -257.5 99t-98.5 260q0 157 96 258t254 101q137 0 214 -68l-15 -21q-77 60 -195 60q-141 0 -229 -86t-95 -223h392z" />
    <glyph glyph-name="afii10054" unicode="&#x405;" horiz-adv-x="543" 
d="M455 170q0 44 -21 77t-54.5 52t-73.5 34.5l-80.5 31.5t-74 36.5t-54.5 55.5t-21 83q0 74 53.5 121.5t146.5 47.5q56 0 105.5 -19.5t78.5 -51.5l-17 -21q-62 63 -168 63q-77 0 -122.5 -38.5t-45.5 -101.5q0 -50 28 -85t70 -52l91.5 -36.5t91.5 -38.5t70 -59.5t28 -97.5
q0 -81 -62.5 -130.5t-156.5 -49.5q-62 0 -123 27.5t-87 71.5l19 20q30 -41 83.5 -65.5t105.5 -24.5q78 0 134 39.5t56 110.5z" />
    <glyph glyph-name="afii10055" unicode="&#x406;" horiz-adv-x="316" 
d="M143 0v700h30v-700h-30z" />
    <glyph glyph-name="afii10056" unicode="&#x407;" horiz-adv-x="316" 
d="M67 796q0 9 7 15t16 6q8 0 14 -6t6 -15t-6 -15.5t-14 -6.5q-9 0 -16 6.5t-7 15.5zM207 796q0 9 6.5 15t15.5 6q8 0 14.5 -6t6.5 -15q0 -10 -6 -16t-15 -6t-15.5 6t-6.5 16zM143 0v700h30v-700h-30z" />
    <glyph glyph-name="afii10057" unicode="&#x408;" horiz-adv-x="350" 
d="M233 700v-550q0 -77 -29 -118t-100 -41q-52 0 -87 29l12 23q31 -23 72 -23q60 0 81.5 35t21.5 98v547h29z" />
    <glyph glyph-name="afii10058" unicode="&#x409;" horiz-adv-x="1041" 
d="M576 0v672h-328l-11 -132q-11 -144 -30 -248.5t-39 -160t-46.5 -87t-47 -38.5t-45.5 -6v29q12 0 22.5 2.5t26.5 14.5t29.5 32.5t29.5 60.5t29 94.5t25 138.5t19 188l10 140h386v-290q59 5 116 5q130 0 195.5 -53t65.5 -148q0 -106 -71.5 -161t-197.5 -55q-27 0 -73 1
t-65 1zM722 387q-61 0 -116 -6v-353q15 0 51 -1t61 -1q114 0 174.5 48t60.5 141q0 82 -59 127t-172 45z" />
    <glyph glyph-name="afii10059" unicode="&#x40a;" horiz-adv-x="1082" 
d="M116 0v700h30v-303h471v303h29v-302q72 6 117 6q131 0 196 -50.5t65 -144.5q0 -105 -71 -158t-198 -53q-22 0 -59.5 1t-53.5 1h-25v369h-471v-369h-30zM646 370v-342q16 0 52 -1t61 -1q234 0 234 183q0 81 -58 124t-172 43q-61 0 -117 -6z" />
    <glyph glyph-name="afii10060" unicode="&#x40b;" horiz-adv-x="758" 
d="M10 672v28h571v-28h-271v-314q85 65 194 65q93 0 145 -55t52 -169v-199h-29v195q0 100 -45 150t-130 50q-39 0 -76.5 -11t-56 -21t-46.5 -28q-5 -3 -8 -5v-330h-29v672h-271z" />
    <glyph glyph-name="afii10061" unicode="&#x40c;" horiz-adv-x="624" 
d="M577 700l-344 -333l356 -367h-43l-354 365l344 335h41zM116 0v700h30v-700h-30zM451 829l-167 -89l-9 18l165 94z" />
    <glyph glyph-name="afii10062" unicode="&#x40e;" horiz-adv-x="640" 
d="M621 700l-246 -544q-37 -83 -71.5 -119.5t-79.5 -36.5q-43 0 -70 21l10 25q28 -19 59 -19q61 0 110 103l15 30l-329 540h33l310 -511l229 511h30zM163 845h28q21 -34 57.5 -55t82.5 -21q47 0 85.5 21.5t51.5 54.5h28q-12 -43 -60 -71t-105 -28q-59 0 -105 28t-63 71z" />
    <glyph glyph-name="afii10145" unicode="&#x40f;" horiz-adv-x="761" 
d="M116 0v700h30v-672h469v672h30v-700h-251v-159h-28v159h-250z" />
    <glyph glyph-name="afii10017" unicode="&#x410;" horiz-adv-x="690" 
d="M26 0l308 707h22l308 -707h-32l-113 260h-350l-112 -260h-31zM344 663l-163 -375h326z" />
    <glyph glyph-name="afii10018" unicode="&#x411;" horiz-adv-x="608" 
d="M116 0v700h377v-28h-347v-268q69 6 127 6q128 0 193 -52t65 -146q0 -106 -70.5 -160t-196.5 -54q-29 0 -79 1t-69 1zM273 382q-71 0 -127 -6v-348q15 0 56 -1t66 -1q114 0 173.5 47.5t59.5 137.5q0 81 -58 126t-170 45z" />
    <glyph glyph-name="afii10019" unicode="&#x412;" horiz-adv-x="617" 
d="M116 0v700q17 0 81.5 1t95.5 1q218 0 218 -172q0 -69 -43 -112t-107 -54v-2q86 -8 132.5 -52t46.5 -118q0 -99 -67 -146.5t-179 -47.5q-30 0 -95 1t-83 1zM296 346h-150v-318q14 0 68 -1t80 -1q103 0 159.5 42t56.5 126q0 72 -55.5 112t-158.5 40zM291 674q-83 0 -145 -2
v-299h156q76 0 127.5 42t51.5 111q0 148 -190 148z" />
    <glyph glyph-name="afii10020" unicode="&#x413;" horiz-adv-x="501" 
d="M116 0v700h383v-28h-353v-672h-30z" />
    <glyph glyph-name="afii10021" unicode="&#x414;" horiz-adv-x="738" 
d="M19 -137v165h75q34 42 73.5 176t51.5 356l8 140h378v-672h95v-165h-28v137h-625v-137h-28zM247 542q-9 -151 -34.5 -271t-46.5 -171t-39 -72h449v644h-320z" />
    <glyph glyph-name="afii10022" unicode="&#x415;" horiz-adv-x="575" 
d="M116 0v700h380v-28h-350v-302h320v-28h-320v-314h360v-28h-390z" />
    <glyph glyph-name="afii10024" unicode="&#x416;" horiz-adv-x="904" 
d="M859 700l-310 -334l321 -366h-40l-318 365l307 335h40zM437 0v700h30v-700h-30zM355 365l-309 335h39l307 -335l-318 -365h-39z" />
    <glyph glyph-name="afii10025" unicode="&#x417;" horiz-adv-x="569" 
d="M261 -9q-61 0 -123.5 28.5t-90.5 70.5l18 18q35 -40 90.5 -64t101.5 -24q94 0 149.5 48.5t55.5 129.5q0 67 -43.5 106.5t-115.5 39.5h-93v28h86q53 0 96 47t43 112q0 72 -46 110.5t-118 38.5q-110 0 -186 -81l-18 17q35 44 88.5 68.5t114.5 24.5q89 0 141.5 -47.5
t52.5 -130.5q0 -52 -29.5 -99.5t-81.5 -68.5v-3q63 -7 100.5 -54t37.5 -110q0 -94 -65 -149.5t-165 -55.5z" />
    <glyph glyph-name="afii10026" unicode="&#x418;" horiz-adv-x="799" 
d="M143 0h-27v700h30v-653l510 653h27v-700h-30v652z" />
    <glyph glyph-name="afii10027" unicode="&#x419;" horiz-adv-x="799" 
d="M143 0h-27v700h30v-653l510 653h27v-700h-30v652zM230 845h28q21 -34 57.5 -55t82.5 -21q47 0 85.5 21.5t51.5 54.5h28q-12 -43 -60 -71t-105 -28q-59 0 -105 28t-63 71z" />
    <glyph glyph-name="afii10028" unicode="&#x41a;" horiz-adv-x="624" 
d="M577 700l-344 -333l356 -367h-43l-354 365l344 335h41zM116 0v700h30v-700h-30z" />
    <glyph glyph-name="afii10029" unicode="&#x41b;" horiz-adv-x="722" 
d="M576 0v672h-328l-11 -132q-11 -144 -30 -248.5t-39 -160t-46.5 -87t-47 -38.5t-45.5 -6v29q12 0 22.5 2.5t26.5 14.5t29.5 32.5t29.5 60.5t29 94.5t25 138.5t19 188l10 140h386v-700h-30z" />
    <glyph glyph-name="afii10030" unicode="&#x41c;" horiz-adv-x="877" 
d="M116 0v700h31l297 -405l288 405h29v-700h-29v655l-287 -404h-5l-294 401v-652h-30z" />
    <glyph glyph-name="afii10031" unicode="&#x41d;" horiz-adv-x="772" 
d="M627 0v343h-481v-343h-30v700h30v-329h481v329h29v-700h-29z" />
    <glyph glyph-name="afii10032" unicode="&#x41e;" horiz-adv-x="807" 
d="M57 350q0 152 99 255.5t247 103.5q147 0 246.5 -102.5t99.5 -256.5q0 -153 -99.5 -256t-246.5 -103t-246.5 102.5t-99.5 256.5zM88 350q0 -141 90.5 -235.5t224.5 -94.5q135 0 225 94.5t90 235.5t-90.5 235.5t-224.5 94.5t-224.5 -94.5t-90.5 -235.5z" />
    <glyph glyph-name="afii10033" unicode="&#x41f;" horiz-adv-x="771" 
d="M625 0v672h-479v-672h-30v700h539v-700h-30z" />
    <glyph glyph-name="afii10034" unicode="&#x420;" horiz-adv-x="575" 
d="M146 0h-30v700q20 0 81 1t79 1q69 0 118 -17.5t74.5 -48.5t37 -65t11.5 -75q0 -88 -61 -148.5t-185 -60.5q-53 0 -125 5v-292zM279 674q-67 0 -133 -2v-352q72 -5 123 -5q107 0 162.5 50.5t55.5 131.5q0 80 -50.5 128.5t-157.5 48.5z" />
    <glyph glyph-name="afii10035" unicode="&#x421;" horiz-adv-x="657" 
d="M606 90l13 -23q-36 -35 -94.5 -55.5t-120.5 -20.5q-155 0 -251 98.5t-96 260.5q0 154 94 256.5t244 102.5q132 0 211 -65l-15 -21q-72 57 -195 57q-137 0 -222.5 -94t-85.5 -236q0 -148 88.5 -239t229.5 -91q118 0 200 70z" />
    <glyph glyph-name="afii10036" unicode="&#x422;" horiz-adv-x="591" 
d="M10 672v28h571v-28h-271v-672h-29v672h-271z" />
    <glyph glyph-name="afii10037" unicode="&#x423;" horiz-adv-x="640" 
d="M621 700l-246 -544q-37 -83 -71.5 -119.5t-79.5 -36.5q-43 0 -70 21l10 25q28 -19 59 -19q61 0 110 103l15 30l-329 540h33l310 -511l229 511h30z" />
    <glyph glyph-name="afii10038" unicode="&#x424;" horiz-adv-x="827" 
d="M398 -8v91h-9q-154 0 -248 73.5t-94 203.5q0 131 93.5 204t252.5 73h5v71h29v-71h5q161 0 254 -73.5t93 -203.5t-94 -203.5t-248 -73.5h-10v-91h-29zM433 610h-6v-500h10q139 0 225 65t86 185t-85.5 185t-229.5 65zM78 360q0 -120 86 -185t226 -65h8v500h-6
q-142 0 -228 -65.5t-86 -184.5z" />
    <glyph glyph-name="afii10039" unicode="&#x425;" horiz-adv-x="657" 
d="M613 700l-265 -344l274 -356h-36l-258 333l-257 -333h-36l275 356l-264 344h36l247 -321l248 321h36z" />
    <glyph glyph-name="afii10040" unicode="&#x426;" horiz-adv-x="783" 
d="M116 0v700h30v-672h474v672h30v-672h95v-165h-28v137h-601z" />
    <glyph glyph-name="afii10041" unicode="&#x427;" horiz-adv-x="624" 
d="M508 700v-700h-30v334q-37 -25 -93.5 -44.5t-116.5 -19.5q-94 0 -150.5 55.5t-56.5 168.5v206h30v-202q0 -98 49 -148.5t135 -50.5q105 0 203 64v337h30z" />
    <glyph glyph-name="afii10042" unicode="&#x428;" horiz-adv-x="991" 
d="M116 0v700h29v-672h336v672h29v-672h336v672h29v-700h-759z" />
    <glyph glyph-name="afii10043" unicode="&#x429;" horiz-adv-x="1008" 
d="M116 0v700h29v-672h336v672h29v-672h336v672h29v-672h95v-165h-28v137h-826z" />
    <glyph glyph-name="afii10044" unicode="&#x42a;" horiz-adv-x="664" 
d="M1 672v28h217v-290q59 5 125 5q132 0 197.5 -52.5t65.5 -148.5q0 -106 -71.5 -161t-199.5 -55q-27 0 -77.5 1t-69.5 1v672h-187zM343 387q-69 0 -125 -6v-353q15 0 55.5 -1t65.5 -1q115 0 175.5 48t60.5 141q0 82 -59.5 127t-172.5 45z" />
    <glyph glyph-name="afii10045" unicode="&#x42b;" horiz-adv-x="815" 
d="M670 0v700h29v-700h-29zM262 387q-60 0 -116 -6v-353q15 0 51 -1t61 -1q114 0 174.5 48t60.5 141q0 82 -59 127t-172 45zM146 700v-290q59 5 116 5q130 0 195.5 -53t65.5 -148q0 -106 -71 -161t-197 -55q-27 0 -73.5 1t-65.5 1v700h30z" />
    <glyph glyph-name="afii10046" unicode="&#x42c;" horiz-adv-x="591" 
d="M271 387q-69 0 -125 -6v-353q15 0 55.5 -1t65.5 -1q115 0 175.5 48t60.5 141q0 82 -59.5 127t-172.5 45zM146 700v-290q59 5 125 5q131 0 196.5 -52.5t65.5 -148.5q0 -106 -71.5 -161t-198.5 -55q-27 0 -77.5 1t-69.5 1v700h30z" />
    <glyph glyph-name="afii10047" unicode="&#x42d;" horiz-adv-x="683" 
d="M203 343v28h392q-6 143 -93.5 226t-231.5 83q-118 0 -195 -60l-13 21q77 68 213 68q160 0 255 -96.5t95 -259.5q0 -156 -96 -259t-251 -103q-132 0 -232 73l15 24q97 -68 215 -68q140 0 227.5 91.5t91.5 231.5h-392z" />
    <glyph glyph-name="afii10048" unicode="&#x42e;" horiz-adv-x="1074" 
d="M116 0v700h30v-329h200q8 146 101 242t233 96q146 0 241 -102t95 -257q0 -154 -95 -256.5t-241 -102.5q-143 0 -237.5 99.5t-96.5 252.5h-200v-343h-30zM376 350q0 -142 86.5 -236t218.5 -94q134 0 219 93.5t85 236.5q0 142 -85.5 236t-218.5 94q-132 0 -218.5 -94
t-86.5 -236z" />
    <glyph glyph-name="afii10049" unicode="&#x42f;" horiz-adv-x="608" 
d="M463 0v286h-177l-214 -286h-36l220 290q-67 16 -115.5 69.5t-48.5 126.5q0 96 65.5 156t187.5 60q26 0 77 -1t70 -1v-700h-29zM280 314h183v358q-15 0 -57 1t-66 1q-107 0 -162 -53t-55 -135q0 -64 47.5 -113.5t109.5 -58.5z" />
    <glyph glyph-name="afii10065" unicode="&#x430;" horiz-adv-x="457" 
d="M91 394l-9 24q65 41 138 41q87 0 124.5 -45t37.5 -133v-281h-28v78q-61 -83 -167 -83q-63 0 -101.5 35.5t-38.5 93.5q0 65 47.5 101t123.5 36q84 0 136 -37q0 37 -1 59t-5 49.5t-13 43t-24 30t-38.5 20.5t-55.5 6q-61 0 -126 -38zM193 22q42 0 76 14.5t50 30.5t35 40v90
q-56 40 -134 40q-58 0 -100.5 -28t-42.5 -83q0 -48 33 -76t83 -28z" />
    <glyph glyph-name="afii10066" unicode="&#x431;" horiz-adv-x="558" 
d="M448 709l16 -18q-16 -27 -42 -40t-52.5 -15t-69 -10t-79.5 -24q-129 -53 -142 -289h2q23 62 81.5 99t126.5 37q101 0 159 -62.5t58 -165.5q0 -95 -64.5 -162.5t-159.5 -67.5q-105 0 -168 73.5t-63 201.5q0 296 163 363q45 19 98 25.5t84.5 15.5t51.5 39zM81 262
q0 -115 56 -179.5t143 -64.5q84 0 140.5 59t56.5 143q0 91 -51.5 146.5t-141.5 55.5q-83 0 -137.5 -49t-65.5 -111z" />
    <glyph glyph-name="afii10067" unicode="&#x432;" horiz-adv-x="479" 
d="M85 0v450q17 0 62 1.5t76 1.5q180 0 180 -114q0 -39 -24.5 -69t-71.5 -36v-2q61 -8 88 -35.5t27 -75.5q0 -60 -49.5 -92t-146.5 -32q-30 0 -76 1.5t-65 1.5zM242 217h-128v-191q14 0 50.5 -1t61.5 -1q166 0 166 100q0 93 -150 93zM224 426q-23 0 -110 -3v-182h137
q56 0 89 26t33 69q0 90 -149 90z" />
    <glyph glyph-name="afii10068" unicode="&#x433;" horiz-adv-x="346" 
d="M85 0v450h260v-27h-231v-423h-29z" />
    <glyph glyph-name="afii10069" unicode="&#x434;" horiz-adv-x="513" 
d="M10 -117v144h55q24 30 47 106t30 183l7 134h270v-423h75v-144h-27v117h-430v-117h-27zM169 306q-7 -99 -30 -176t-44 -103h296v396h-215z" />
    <glyph glyph-name="afii10070" unicode="&#x435;" horiz-adv-x="527" 
d="M441 80l11 -21q-28 -33 -72.5 -50.5t-91.5 -17.5q-104 0 -170 64t-66 170q0 103 58 168.5t165 65.5q88 0 144.5 -55.5t56.5 -146.5q0 -13 -2 -31h-391q1 -96 57 -152t149 -56q95 0 152 62zM271 432q-84 0 -134 -50.5t-56 -131.5h366q1 84 -47 133t-129 49z" />
    <glyph glyph-name="afii10072" unicode="&#x436;" horiz-adv-x="635" 
d="M596 450l-191 -216l203 -234h-35l-201 234l189 216h35zM302 0v450h28v-450h-28zM227 234l-192 216h36l188 -216l-198 -234h-35z" />
    <glyph glyph-name="afii10073" unicode="&#x437;" horiz-adv-x="455" 
d="M215 -9q-44 0 -96 17t-73 43l15 22q27 -26 70 -40.5t79 -14.5q71 0 114.5 29.5t43.5 80.5q0 42 -32 65.5t-86 23.5h-76v24h71q42 0 73 29t31 70q0 44 -35 68t-95 24q-85 0 -145 -53l-13 21q57 59 162 59q75 0 115 -30.5t40 -85.5q0 -80 -83 -110v-2q48 -4 75 -34.5
t27 -71.5q0 -62 -50.5 -98t-131.5 -36z" />
    <glyph glyph-name="afii10074" unicode="&#x438;" horiz-adv-x="561" 
d="M114 0h-29v450h29v-409l334 409h28v-450h-28v409z" />
    <glyph glyph-name="afii10075" unicode="&#x439;" horiz-adv-x="561" 
d="M114 0h-29v450h29v-409l334 409h28v-450h-28v409zM157 687h25q0 -40 29 -66.5t76 -26.5q45 0 73 26.5t28 66.5h25q0 -50 -35.5 -83.5t-90.5 -33.5q-60 0 -95 32.5t-35 84.5z" />
    <glyph glyph-name="afii10076" unicode="&#x43a;" horiz-adv-x="472" 
d="M430 450l-241 -215l258 -235h-42l-254 234l239 216h40zM85 0v450h29v-450h-29z" />
    <glyph glyph-name="afii10077" unicode="&#x43b;" horiz-adv-x="523" 
d="M410 0v422h-217l-7 -118q-20 -306 -147 -306l-2 28q10 0 21.5 4t28.5 21.5t30.5 46t25 84t15.5 128.5l8 140h272v-450h-28z" />
    <glyph glyph-name="afii10078" unicode="&#x43c;" horiz-adv-x="618" 
d="M85 0v450h28l200 -275l194 275h26v-450h-28v408l-192 -272h-3l-196 272v-408h-29z" />
    <glyph glyph-name="afii10079" unicode="&#x43d;" horiz-adv-x="555" 
d="M441 0v216h-327v-216h-29v450h29v-207h327v207h29v-450h-29z" />
    <glyph glyph-name="afii10080" unicode="&#x43e;" horiz-adv-x="569" 
d="M52 225q0 102 65 168t167 66t167.5 -66t65.5 -168t-65.5 -168t-167.5 -66t-167 66t-65 168zM81 225q0 -91 57 -149t146 -58t146 58t57 149t-57 149t-146 58t-146 -58t-57 -149z" />
    <glyph glyph-name="afii10081" unicode="&#x43f;" horiz-adv-x="550" 
d="M436 0v423h-322v-423h-29v450h380v-450h-29z" />
    <glyph glyph-name="afii10082" unicode="&#x440;" horiz-adv-x="552" 
d="M85 -200v650h29v-66q27 33 75 54t98 21q99 0 156.5 -63t57.5 -164q0 -104 -63.5 -172.5t-165.5 -68.5q-98 0 -158 45v-236h-29zM281 432q-51 0 -97.5 -22.5t-69.5 -53.5v-290q67 -48 157 -48q89 0 144.5 59t55.5 152q0 92 -50.5 147.5t-139.5 55.5z" />
    <glyph glyph-name="afii10083" unicode="&#x441;" horiz-adv-x="491" 
d="M439 83l14 -19q-28 -35 -72.5 -54t-93.5 -19q-104 0 -169.5 64t-65.5 170q0 98 63.5 166t156.5 68q113 0 172 -55l-14 -23q-58 51 -153 51q-81 0 -138.5 -59.5t-57.5 -147.5q0 -94 58.5 -150.5t149.5 -56.5q45 0 85 18t65 47z" />
    <glyph glyph-name="afii10084" unicode="&#x442;" horiz-adv-x="433" 
d="M11 422v28h410v-28h-191v-422h-28v422h-191z" />
    <glyph glyph-name="afii10085" unicode="&#x443;" horiz-adv-x="472" 
d="M455 450l-184 -450q-48 -117 -84.5 -158.5t-82.5 -41.5q-32 0 -70 19l10 22q33 -15 56 -15q39 0 70 35t64 115l10 24l-227 450h33l173 -345q19 -36 35 -73q9 25 29 75l136 343h32z" />
    <glyph glyph-name="afii10086" unicode="&#x444;" horiz-adv-x="656" 
d="M314 -200v191h-18q-112 0 -178 65.5t-66 168.5q0 96 66.5 165t176.5 69h19v241h28v-241h21q106 0 174 -67t68 -167q0 -103 -65.5 -168.5t-176.5 -65.5h-21v-191h-28zM81 225q0 -92 58.5 -149.5t159.5 -57.5h15v414h-20q-96 0 -154.5 -59.5t-58.5 -147.5zM363 432h-21
v-414h17q100 0 158 57.5t58 149.5q0 85 -58 146t-154 61z" />
    <glyph glyph-name="afii10087" unicode="&#x445;" horiz-adv-x="485" 
d="M439 450l-177 -218l187 -232h-35l-172 212l-172 -212h-34l187 231l-177 219h35l161 -200l163 200h34z" />
    <glyph glyph-name="afii10088" unicode="&#x446;" horiz-adv-x="557" 
d="M85 0v450h29v-423h321v423h28v-423h75v-144h-27v117h-426z" />
    <glyph glyph-name="afii10089" unicode="&#x447;" horiz-adv-x="469" 
d="M384 450v-450h-28v203q-57 -43 -144 -43q-156 0 -156 167v123h30v-123q0 -140 134 -140q82 0 136 43v220h28z" />
    <glyph glyph-name="afii10090" unicode="&#x448;" horiz-adv-x="696" 
d="M85 0v450h28v-423h221v423h28v-423h221v423h28v-450h-526z" />
    <glyph glyph-name="afii10091" unicode="&#x449;" horiz-adv-x="705" 
d="M85 0v450h28v-423h221v423h28v-423h221v423h28v-423h75v-144h-27v117h-574z" />
    <glyph glyph-name="afii10092" unicode="&#x44a;" horiz-adv-x="492" 
d="M1 423v27h176v-165h91q178 0 178 -142q0 -143 -183 -143h-114v423h-148zM264 258h-87v-231h86q83 0 118 29.5t35 86.5q0 115 -152 115z" />
    <glyph glyph-name="afii10093" unicode="&#x44b;" horiz-adv-x="603" 
d="M85 0v450h29v-165h81q178 0 178 -142q0 -143 -183 -143h-105zM191 258h-77v-231h76q83 0 118.5 29.5t35.5 86.5q0 115 -153 115zM490 0v450h28v-450h-28z" />
    <glyph glyph-name="afii10094" unicode="&#x44c;" horiz-adv-x="428" 
d="M85 0v450h29v-165h90q178 0 178 -142q0 -143 -182 -143h-115zM200 258h-86v-231h85q83 0 118.5 29.5t35.5 86.5q0 115 -153 115z" />
    <glyph glyph-name="afii10095" unicode="&#x44d;" horiz-adv-x="491" 
d="M160 217v25h250q-5 88 -62 139t-144 51q-94 0 -152 -63l-13 20q28 33 73 51.5t92 18.5q104 0 169.5 -64t65.5 -170q0 -98 -63.5 -166t-156.5 -68q-115 0 -173 55l14 22q56 -50 156 -50q80 0 136 56.5t59 142.5h-251z" />
    <glyph glyph-name="afii10096" unicode="&#x44e;" horiz-adv-x="742" 
d="M85 0v450h30v-206h128q6 95 67.5 155t155.5 60q99 0 161.5 -66t62.5 -168t-63 -168t-161 -66q-96 0 -158 63t-65 162h-128v-216h-30zM274 225q0 -91 53.5 -148t138.5 -57t139 57t54 148q0 90 -53.5 147.5t-139.5 57.5q-85 0 -138.5 -57.5t-53.5 -147.5z" />
    <glyph glyph-name="afii10097" unicode="&#x44f;" horiz-adv-x="473" 
d="M260 450h128v-450h-28v183h-133l-145 -183h-36l152 189q-47 6 -82 40t-35 85q0 61 42 98.5t137 37.5zM110 314q0 -46 35.5 -75t73.5 -29h141v213h-105q-74 0 -109.5 -30t-35.5 -79z" />
    <glyph glyph-name="afii10071" unicode="&#x451;" horiz-adv-x="527" 
d="M441 80l11 -21q-28 -33 -72.5 -50.5t-91.5 -17.5q-104 0 -170 64t-66 170q0 103 58 168.5t165 65.5q88 0 144.5 -55.5t56.5 -146.5q0 -13 -2 -31h-391q1 -96 57 -152t149 -56q95 0 152 62zM271 432q-84 0 -134 -50.5t-56 -131.5h366q1 84 -47 133t-129 49zM140 626
q0 8 6.5 14.5t15.5 6.5q8 0 14 -6.5t6 -14.5q0 -10 -6 -16.5t-14 -6.5q-9 0 -15.5 6.5t-6.5 16.5zM351 626q0 8 6.5 14.5t15.5 6.5q8 0 14.5 -6.5t6.5 -14.5q0 -10 -6 -16.5t-15 -6.5t-15.5 6.5t-6.5 16.5z" />
    <glyph glyph-name="afii10099" unicode="&#x452;" horiz-adv-x="606" 
d="M1 501v24h149v175h28v-175h213v-24h-213v-201q28 32 76.5 53.5t97.5 21.5q95 0 142.5 -49.5t47.5 -153.5q0 -114 -46 -217.5t-138 -154.5h-34q52 31 90.5 75t59 93.5t30 97.5t9.5 98q0 94 -40.5 139t-125.5 45q-50 0 -97.5 -23.5t-71.5 -54.5v-270h-28v501h-149z" />
    <glyph glyph-name="afii10100" unicode="&#x453;" horiz-adv-x="346" 
d="M85 0v450h260v-27h-231v-423h-29zM322 693l-112 -141l-18 12l109 146z" />
    <glyph glyph-name="afii10101" unicode="&#x454;" horiz-adv-x="491" 
d="M331 242v-25h-251q2 -92 60.5 -145.5t147.5 -53.5q88 0 144 50l13 -22q-58 -55 -163 -55q-101 0 -165.5 65.5t-64.5 168.5q0 106 65.5 170t169.5 64q47 0 92 -18.5t73 -51.5l-13 -20q-58 63 -152 63q-87 0 -144 -51t-63 -139h251z" />
    <glyph glyph-name="afii10102" unicode="&#x455;" horiz-adv-x="409" 
d="M323 114q0 31 -19 51.5t-47 30.5l-61 22t-61 24t-47 38.5t-19 65.5q0 50 37.5 81.5t99.5 31.5q39 0 74.5 -13.5t54.5 -34.5l-14 -21q-41 43 -116 43q-48 0 -77.5 -25t-29.5 -61q0 -33 19 -55t47 -32.5l61 -22t61 -23t47 -37t19 -61.5q0 -61 -43 -93t-108 -32
q-42 0 -85.5 19t-59.5 43l18 18q17 -24 55 -39t73 -15q50 0 85.5 25t35.5 72z" />
    <glyph glyph-name="afii10103" unicode="&#x456;" horiz-adv-x="255" 
d="M113 0v450h28v-450h-28zM105 629q0 9 7 15.5t16 6.5q8 0 14.5 -6.5t6.5 -15.5q0 -10 -6.5 -16.5t-14.5 -6.5q-9 0 -16 6.5t-7 16.5z" />
    <glyph glyph-name="afii10104" unicode="&#x457;" horiz-adv-x="261" 
d="M51 625q0 8 6 14t15 6q7 0 13 -6t6 -14q0 -9 -6 -15t-13 -6q-9 0 -15 6t-6 15zM171 625q0 8 6.5 14t14.5 6t14 -6t6 -14q0 -9 -6 -15t-14 -6t-14.5 6t-6.5 15zM116 0v450h28v-450h-28z" />
    <glyph glyph-name="afii10105" unicode="&#x458;" horiz-adv-x="255" 
d="M143 450v-483q0 -175 -141 -175q-49 0 -85 26l10 23q32 -22 71 -22q117 0 117 149v482h28zM106 629q0 9 7 15.5t16 6.5q8 0 14.5 -6.5t6.5 -15.5q0 -10 -6.5 -16.5t-14.5 -6.5q-9 0 -16 6.5t-7 16.5z" />
    <glyph glyph-name="afii10106" unicode="&#x459;" horiz-adv-x="741" 
d="M410 0v422h-217l-7 -118q-20 -306 -147 -306l-2 28q10 0 21.5 4t28.5 21.5t30.5 46t25 84t15.5 128.5l8 140h272v-165h79q178 0 178 -142q0 -143 -183 -143h-102zM513 258h-75v-231h74q83 0 118.5 29.5t35.5 86.5q0 115 -153 115z" />
    <glyph glyph-name="afii10107" unicode="&#x45a;" horiz-adv-x="773" 
d="M85 0v450h29v-190h327v190h29v-182h79q98 0 138 -34.5t40 -99.5q0 -134 -183 -134h-103v233h-327v-233h-29zM545 241h-75v-214h74q84 0 118.5 26t34.5 81t-35 81t-117 26z" />
    <glyph glyph-name="afii10108" unicode="&#x45b;" horiz-adv-x="606" 
d="M1 501v24h149v175h28v-175h213v-24h-213v-201q28 32 76.5 53.5t97.5 21.5q96 0 143 -49.5t47 -154.5v-171h-29v166q0 92 -40.5 137t-125.5 45q-50 0 -97.5 -23.5t-71.5 -54.5v-270h-28v501h-149z" />
    <glyph glyph-name="afii10109" unicode="&#x45c;" horiz-adv-x="472" 
d="M430 450l-241 -215l258 -235h-42l-254 234l239 216h40zM85 0v450h29v-450h-29zM339 693l-112 -141l-18 12l109 146z" />
    <glyph glyph-name="afii10110" unicode="&#x45e;" horiz-adv-x="472" 
d="M455 450l-184 -450q-48 -117 -84.5 -158.5t-82.5 -41.5q-32 0 -70 19l10 22q33 -15 56 -15q39 0 70 35t64 115l10 24l-227 450h33l173 -345q19 -36 35 -73q9 25 29 75l136 343h32zM114 687h25q0 -40 29 -66.5t76 -26.5q45 0 73 26.5t28 66.5h25q0 -50 -35.5 -83.5
t-90.5 -33.5q-60 0 -95 32.5t-35 84.5z" />
    <glyph glyph-name="afii10193" unicode="&#x45f;" horiz-adv-x="540" 
d="M85 0v450h29v-423h312v423h29v-450h-172v-136h-26v136h-172z" />
    <glyph glyph-name="afii10146" unicode="&#x462;" horiz-adv-x="626" 
d="M180 700v-130h173v-28h-173v-138q72 6 126 6q131 0 196.5 -51.5t65.5 -146.5q0 -106 -71.5 -160t-198.5 -54q-27 0 -77.5 1t-69.5 1v542h-148v28h148v130h29zM306 382q-70 0 -126 -6v-348q16 0 56.5 -1t64.5 -1q115 0 175.5 47t60.5 139q0 82 -58.5 126t-172.5 44z" />
    <glyph glyph-name="afii10194" unicode="&#x463;" horiz-adv-x="491" 
d="M1 423v27h148v250h28v-250h168v-27h-168v-145h90q178 0 178 -140q0 -138 -182 -138h-114v423h-148zM267 251h-90v-224h89q81 0 115.5 29t34.5 83q0 112 -149 112z" />
    <glyph glyph-name="afii10147" unicode="&#x472;" horiz-adv-x="807" 
d="M57 350q0 152 99 255.5t247 103.5q147 0 246.5 -102.5t99.5 -256.5q0 -153 -99.5 -256t-246.5 -103t-246.5 102.5t-99.5 256.5zM263 385q-45 0 -93.5 -23.5t-79.5 -52.5q14 -126 102 -207.5t211 -81.5q135 0 225 94.5t90 235.5q0 1 -0.5 3t-0.5 4q-82 -64 -165 -64
q-62 0 -145.5 46t-143.5 46zM88 350v-8q86 70 177 70q41 0 80.5 -14.5t66.5 -31.5t65 -31.5t77 -14.5q42 0 87 20.5t75 46.5q-13 128 -100.5 210.5t-212.5 82.5q-134 0 -224.5 -94.5t-90.5 -235.5z" />
    <glyph glyph-name="afii10195" unicode="&#x473;" horiz-adv-x="569" 
d="M52 225q0 102 65 168t167 66t167.5 -66t65.5 -168t-65.5 -168t-167.5 -66t-167 66t-65 168zM179 250q-51 0 -98 -41q5 -85 61.5 -138t141.5 -53q84 0 140 52t62 135q-40 -31 -88 -31q-40 0 -111.5 38t-107.5 38zM401 201q47 0 86 34q-4 87 -60.5 142t-142.5 55
q-85 0 -141.5 -53.5t-61.5 -138.5q50 37 100 37q41 0 112 -38t108 -38z" />
    <glyph glyph-name="afii10148" unicode="&#x474;" horiz-adv-x="655" 
d="M525 511l-184 -518h-19l-306 707h32l284 -658l174 499q41 116 76.5 145t92.5 11l-6 -27q-50 19 -77.5 -15t-66.5 -144z" />
    <glyph glyph-name="afii10196" unicode="&#x475;" horiz-adv-x="475" 
d="M381 318l-126 -325h-18l-221 457h33l154 -318q15 -29 43 -93l36 97l78 200q33 87 61 108t74 3l-7 -26q-32 19 -54.5 -6t-52.5 -97z" />
    <glyph glyph-name="afii10050" unicode="&#x490;" horiz-adv-x="501" 
d="M116 0v700h354v136h29v-164h-353v-672h-30z" />
    <glyph glyph-name="afii10098" unicode="&#x491;" horiz-adv-x="346" 
d="M85 0v450h233v116h27v-143h-231v-423h-29z" />
    <glyph glyph-name="uni1E9E" unicode="&#x1e9e;" horiz-adv-x="600" 
d="M510 157q0 38 -17 74.5t-53 74t-68 64.5t-85 67l137 205q-48 38 -118 38q-71 0 -115.5 -43t-44.5 -130v-510h-30v516q0 96 53 146t137 50q87 0 157 -59l-140 -205q101 -73 159.5 -142t58.5 -149q0 -71 -48 -117t-111 -46q-49 0 -80 15.5t-63 44.5l17 21q21 -18 33 -26
t36 -17t52 -9q51 0 92 38t41 99z" />
    <glyph glyph-name="uni2010" unicode="&#x2010;" horiz-adv-x="407" 
d="M93 257v27h221v-27h-221z" />
    <glyph glyph-name="uni2011" unicode="&#x2011;" horiz-adv-x="407" 
d="M93 257v27h221v-27h-221z" />
    <glyph glyph-name="figuredash" unicode="&#x2012;" horiz-adv-x="587" 
d="M97 341v26h392v-26h-392z" />
    <glyph glyph-name="endash" unicode="&#x2013;" horiz-adv-x="587" 
d="M97 257v26h392v-26h-392z" />
    <glyph glyph-name="emdash" unicode="&#x2014;" horiz-adv-x="789" 
d="M97 257v26h595v-26h-595z" />
    <glyph glyph-name="afii00208" unicode="&#x2015;" horiz-adv-x="789" 
d="M97 257v26h595v-26h-595z" />
    <glyph glyph-name="quoteleft" unicode="&#x2018;" horiz-adv-x="237" 
d="M137 554l-23 -16q-23 25 -23 65q0 83 65 116l12 -15q-50 -27 -50 -95q0 -36 19 -55z" />
    <glyph glyph-name="quoteright" unicode="&#x2019;" horiz-adv-x="237" 
d="M99 702l24 17q23 -25 23 -65q0 -83 -65 -117l-12 15q50 28 50 96q0 34 -20 54z" />
    <glyph glyph-name="quotesinglbase" unicode="&#x201a;" horiz-adv-x="237" 
d="M99 37l24 17q23 -25 23 -65q0 -83 -65 -117l-12 15q50 28 50 96q0 34 -20 54z" />
    <glyph glyph-name="quotedblleft" unicode="&#x201c;" horiz-adv-x="356" 
d="M256 554l-23 -16q-23 25 -23 65q0 83 65 116l12 -15q-50 -27 -50 -95q0 -36 19 -55zM137 554l-23 -16q-23 25 -23 65q0 83 65 116l12 -15q-50 -27 -50 -95q0 -36 19 -55z" />
    <glyph glyph-name="quotedblright" unicode="&#x201d;" horiz-adv-x="356" 
d="M218 702l24 17q23 -25 23 -65q0 -83 -65 -117l-12 15q50 28 50 96q0 34 -20 54zM99 702l24 17q23 -25 23 -65q0 -83 -65 -117l-12 15q50 28 50 96q0 34 -20 54z" />
    <glyph glyph-name="quotedblbase" unicode="&#x201e;" horiz-adv-x="356" 
d="M218 37l24 17q23 -25 23 -65q0 -83 -65 -117l-12 15q50 28 50 96q0 34 -20 54zM99 37l24 17q23 -25 23 -65q0 -83 -65 -117l-12 15q50 28 50 96q0 34 -20 54z" />
    <glyph glyph-name="dagger" unicode="&#x2020;" horiz-adv-x="411" 
d="M40 432v26h152v242h27v-242h152v-26h-152v-532h-27v532h-152z" />
    <glyph glyph-name="daggerdbl" unicode="&#x2021;" horiz-adv-x="411" 
d="M40 432v26h152v242h27v-242h152v-26h-152v-234h152v-26h-152v-272h-27v272h-152v26h152v234h-152z" />
    <glyph glyph-name="bullet" unicode="&#x2022;" horiz-adv-x="148" 
d="M37 261q0 15 11 26t26 11t26 -11t11 -26t-11 -26t-26 -11t-26 11t-11 26z" />
    <glyph glyph-name="ellipsis" unicode="&#x2026;" horiz-adv-x="832" 
d="M692 24q0 8 7.5 15t17.5 7q9 0 16 -7t7 -15q0 -10 -7 -17.5t-16 -7.5q-10 0 -17.5 7.5t-7.5 17.5zM392 24q0 8 7.5 15t17.5 7q9 0 16 -7t7 -15q0 -10 -7 -17.5t-16 -7.5q-10 0 -17.5 7.5t-7.5 17.5zM92 24q0 8 7.5 15t17.5 7q9 0 16 -7t7 -15q0 -10 -7 -17.5t-16 -7.5
q-10 0 -17.5 7.5t-7.5 17.5z" />
    <glyph glyph-name="perthousand" unicode="&#x2030;" horiz-adv-x="1233" 
d="M852 156q0 68 46.5 112t115.5 44t115.5 -44t46.5 -112q0 -69 -46 -113t-116 -44t-116 44t-46 113zM879 156q0 -58 40.5 -95.5t94.5 -37.5q56 0 95.5 37.5t39.5 95.5t-40 95t-95 37t-95 -37t-40 -95zM144 5l527 704l17 -13l-526 -705zM56 546q0 68 46.5 112t115.5 44
t115.5 -44t46.5 -112q0 -69 -46 -113t-116 -44t-116 44t-46 113zM83 546q0 -58 40.5 -95.5t94.5 -37.5q56 0 95.5 37.5t39.5 95.5t-40 95t-95 37t-95 -37t-40 -95zM446 156q0 68 46.5 112t115.5 44t115.5 -44t46.5 -112q0 -69 -46 -113t-116 -44t-116 44t-46 113zM473 156
q0 -58 40.5 -95.5t94.5 -37.5q56 0 95.5 37.5t39.5 95.5t-40 95t-95 37t-95 -37t-40 -95z" />
    <glyph glyph-name="guilsinglleft" unicode="&#x2039;" horiz-adv-x="325" 
d="M231 43l-175 205v4l176 203l19 -17l-163 -188l161 -189z" />
    <glyph glyph-name="guilsinglright" unicode="&#x203a;" horiz-adv-x="325" 
d="M268 248l-174 -205l-19 18l161 189l-163 188l19 17l176 -203v-4z" />
    <glyph glyph-name="fraction" unicode="&#x2044;" horiz-adv-x="184" 
d="M-180 5l527 704l17 -13l-526 -705z" />
    <glyph glyph-name="uni2070" unicode="&#x2070;" horiz-adv-x="363" 
d="M47 525q0 79 35 129t100 50q64 0 99 -50t35 -129t-34.5 -129t-98.5 -50q-65 0 -100.5 49.5t-35.5 129.5zM74 525q0 -71 28.5 -113.5t80.5 -42.5q53 0 79.5 41.5t26.5 114.5q0 71 -28 113.5t-79 42.5q-53 0 -80.5 -42t-27.5 -114z" />
    <glyph glyph-name="uni2074" unicode="&#x2074;" horiz-adv-x="323" 
d="M215 350v93h-196v16l189 241h25l-184 -235h166v110h24v-110h64v-22h-64v-93h-24z" />
    <glyph glyph-name="uni2075" unicode="&#x2075;" horiz-adv-x="322" 
d="M75 534l25 166h182v-22h-164l-19 -122q28 7 50 7q59 0 95.5 -29t36.5 -76q0 -51 -37 -81.5t-89 -30.5q-88 0 -123 57l15 15q34 -51 105 -51q44 0 73 25.5t29 64.5q0 37 -32 61t-84 24q-29 0 -63 -8z" />
    <glyph glyph-name="uni2076" unicode="&#x2076;" horiz-adv-x="359" 
d="M47 476q0 90 63.5 153.5t146.5 74.5l6 -18q-70 -11 -123.5 -59.5t-64.5 -125.5q13 27 43.5 45.5t73.5 18.5q57 0 90.5 -30t33.5 -79q0 -46 -37 -78t-88 -32q-70 0 -107 36.5t-37 93.5zM74 473q0 -43 30.5 -74.5t85.5 -31.5q40 0 69.5 26t29.5 62q0 39 -27 64.5t-77 25.5
q-44 0 -73.5 -22t-37.5 -50z" />
    <glyph glyph-name="uni2077" unicode="&#x2077;" horiz-adv-x="289" 
d="M23 677v23h243v-15l-164 -335h-28l161 327h-212z" />
    <glyph glyph-name="uni2078" unicode="&#x2078;" horiz-adv-x="366" 
d="M173 540h21q31 0 57 20.5t26 50.5q0 33 -28 52.5t-66 19.5t-65.5 -19.5t-27.5 -52.5q0 -30 26 -50.5t57 -20.5zM193 520h-17q-42 0 -72 -22t-30 -53q0 -34 32 -56t77 -22t77 21.5t32 56.5q0 34 -29 54.5t-70 20.5zM184 346q-56 0 -95.5 26t-39.5 69q0 31 24 56t64 32v2
q-32 7 -52.5 31t-20.5 52q0 40 34 65t85 25t85.5 -25t34.5 -65q0 -26 -20 -49.5t-55 -33.5v-1q40 -5 65 -29t25 -59q0 -44 -39 -70t-95 -26z" />
    <glyph glyph-name="uni2079" unicode="&#x2079;" horiz-adv-x="359" 
d="M312 572q0 -95 -62 -157.5t-157 -68.5l-3 18q82 10 137 62t57 123q-14 -28 -44.5 -46.5t-72.5 -18.5q-57 0 -91 30.5t-34 78.5q0 47 37.5 79t88.5 32q70 0 107 -37t37 -95zM285 575q0 45 -30.5 76.5t-86.5 31.5q-40 0 -69.5 -26t-29.5 -62q0 -39 27.5 -65t77.5 -26
q43 0 72.5 22t38.5 49z" />
    <glyph glyph-name="uni207A" unicode="&#x207a;" horiz-adv-x="360" 
d="M49 519v22h119v119h22v-119h121v-22h-121v-120h-22v120h-119z" />
    <glyph glyph-name="uni207B" unicode="&#x207b;" horiz-adv-x="360" 
d="M49 519v22h262v-22h-262z" />
    <glyph glyph-name="uni207C" unicode="&#x207c;" horiz-adv-x="360" 
d="M49 456v22h262v-22h-262zM49 582v22h262v-22h-262z" />
    <glyph glyph-name="uni207D" unicode="&#x207d;" horiz-adv-x="180" 
d="M170 322l-16 -15q-63 36 -93.5 95t-30.5 121q0 130 125 215l14 -15q-113 -76 -113 -200q0 -59 28.5 -112.5t85.5 -88.5z" />
    <glyph glyph-name="uni207E" unicode="&#x207e;" horiz-adv-x="180" 
d="M10 723l16 15q63 -36 93.5 -95t30.5 -121q0 -130 -125 -215l-14 15q113 76 113 200q0 58 -29 112t-85 89z" />
    <glyph glyph-name="uni2080" unicode="&#x2080;" horiz-adv-x="363" 
d="M47 175q0 79 35 129t100 50q64 0 99 -50t35 -129t-34.5 -129t-98.5 -50q-65 0 -100.5 49.5t-35.5 129.5zM74 175q0 -71 28.5 -113.5t80.5 -42.5q53 0 79.5 41.5t26.5 114.5q0 71 -28 113.5t-79 42.5q-53 0 -80.5 -42t-27.5 -114z" />
    <glyph glyph-name="uni2081" unicode="&#x2081;" horiz-adv-x="228" 
d="M32 290l93 63h17v-353h-25v320l-74 -49z" />
    <glyph glyph-name="uni2082" unicode="&#x2082;" horiz-adv-x="330" 
d="M42 0v20q3 2 31 22.5l39.5 29.5l37.5 30.5t39 36.5l29.5 35t23.5 39.5t7 38.5q0 34 -22 56.5t-64 22.5q-32 0 -59.5 -17.5t-33.5 -50.5l-22 7q6 39 40 61.5t75 22.5q56 0 84.5 -29t28.5 -73q0 -99 -198 -229h218v-23h-254z" />
    <glyph glyph-name="uni2083" unicode="&#x2083;" horiz-adv-x="335" 
d="M160 -4q-93 0 -124 64l17 13q26 -55 106 -55q46 0 73.5 22.5t27.5 56.5q0 31 -26 51t-65 20h-38v21h34q31 0 55.5 21.5t24.5 52.5q0 34 -23.5 51.5t-63.5 17.5q-71 0 -96 -52l-15 14q26 60 114 60q52 0 81.5 -23t29.5 -64q0 -28 -18.5 -52t-51.5 -33v-1q39 -4 62 -29
t23 -57q0 -45 -36 -72t-91 -27z" />
    <glyph glyph-name="uni2084" unicode="&#x2084;" horiz-adv-x="323" 
d="M215 0v93h-196v16l189 241h25l-184 -235h166v110h24v-110h64v-22h-64v-93h-24z" />
    <glyph glyph-name="uni2085" unicode="&#x2085;" horiz-adv-x="322" 
d="M75 184l25 166h182v-22h-164l-19 -122q28 7 50 7q59 0 95.5 -29t36.5 -76q0 -51 -37 -81.5t-89 -30.5q-88 0 -123 57l15 15q34 -51 105 -51q44 0 73 25.5t29 64.5q0 37 -32 61t-84 24q-29 0 -63 -8z" />
    <glyph glyph-name="uni2086" unicode="&#x2086;" horiz-adv-x="359" 
d="M47 126q0 90 63.5 153.5t146.5 74.5l6 -18q-70 -11 -123.5 -59.5t-64.5 -125.5q13 27 43.5 45.5t73.5 18.5q57 0 90.5 -30t33.5 -79q0 -46 -37 -78t-88 -32q-70 0 -107 36.5t-37 93.5zM74 123q0 -43 30.5 -74.5t85.5 -31.5q40 0 69.5 26t29.5 62q0 39 -27 64.5t-77 25.5
q-44 0 -73.5 -22t-37.5 -50z" />
    <glyph glyph-name="uni2087" unicode="&#x2087;" horiz-adv-x="289" 
d="M23 327v23h243v-15l-164 -335h-28l161 327h-212z" />
    <glyph glyph-name="uni2088" unicode="&#x2088;" horiz-adv-x="366" 
d="M173 190h21q31 0 57 20.5t26 50.5q0 33 -28 52.5t-66 19.5t-65.5 -19.5t-27.5 -52.5q0 -30 26 -50.5t57 -20.5zM193 170h-17q-42 0 -72 -22t-30 -53q0 -34 32 -56t77 -22t77 21.5t32 56.5q0 34 -29 54.5t-70 20.5zM184 -4q-56 0 -95.5 26t-39.5 69q0 31 24 56t64 32v2
q-32 7 -52.5 31t-20.5 52q0 40 34 65t85 25t85.5 -25t34.5 -65q0 -26 -20 -49.5t-55 -33.5v-1q40 -5 65 -29t25 -59q0 -44 -39 -70t-95 -26z" />
    <glyph glyph-name="uni2089" unicode="&#x2089;" horiz-adv-x="359" 
d="M312 222q0 -95 -62 -157.5t-157 -68.5l-3 18q82 10 137 62t57 123q-14 -28 -44.5 -46.5t-72.5 -18.5q-57 0 -91 30.5t-34 78.5q0 47 37.5 79t88.5 32q70 0 107 -37t37 -95zM285 225q0 45 -30.5 76.5t-86.5 31.5q-40 0 -69.5 -26t-29.5 -62q0 -39 27.5 -65t77.5 -26
q43 0 72.5 22t38.5 49z" />
    <glyph glyph-name="uni208A" unicode="&#x208a;" horiz-adv-x="360" 
d="M49 169v22h119v119h22v-119h121v-22h-121v-120h-22v120h-119z" />
    <glyph glyph-name="uni208B" unicode="&#x208b;" horiz-adv-x="360" 
d="M49 169v22h262v-22h-262z" />
    <glyph glyph-name="uni208C" unicode="&#x208c;" horiz-adv-x="360" 
d="M49 106v22h262v-22h-262zM49 232v22h262v-22h-262z" />
    <glyph glyph-name="uni208D" unicode="&#x208d;" horiz-adv-x="180" 
d="M170 -28l-16 -15q-63 36 -93.5 95t-30.5 121q0 130 125 215l14 -15q-113 -76 -113 -200q0 -59 28.5 -112.5t85.5 -88.5z" />
    <glyph glyph-name="uni208E" unicode="&#x208e;" horiz-adv-x="180" 
d="M10 373l16 15q63 -36 93.5 -95t30.5 -121q0 -130 -125 -215l-14 15q113 76 113 200q0 58 -29 112t-85 89z" />
    <glyph glyph-name="Euro" unicode="&#x20ac;" 
d="M20 428l10 25h76q29 115 115.5 185.5t208.5 70.5q84 0 137 -29l-11 -27q-58 27 -126 27q-108 0 -186 -62.5t-106 -164.5h366l-9 -25h-363q-7 -35 -7 -78q0 -35 4 -60h332l-8 -24h-320q24 -114 106.5 -180t201.5 -66q71 0 111 23l6 -28q-15 -11 -51.5 -17.5t-66.5 -6.5
q-133 0 -224 74t-115 201h-81l10 24h67q-3 28 -3 60q0 43 7 78h-81z" />
    <glyph glyph-name="uni20B4" unicode="&#x20b4;" horiz-adv-x="600" 
d="M80 429v24h325q42 53 36 111q0 53 -36.5 84.5t-96.5 31.5q-97 0 -158 -62l-16 21q62 70 172 70q79 0 124 -40.5t45 -105.5q0 -64 -41 -110h86v-24h-103q-29 -29 -101 -71.5t-99 -66.5h303v-24h-326q-48 -51 -48 -115t49 -98t116 -34q50 0 95 22.5t72 64.5l17 -20
q-28 -46 -78.5 -71t-110.5 -25q-78 0 -133 42.5t-55 115.5q0 67 46 118h-84v24h103q29 28 100.5 70.5t99.5 67.5h-303z" />
    <glyph glyph-name="uni20B6" unicode="&#x20b6;" horiz-adv-x="600" 
d="M29 324v25h117v351q20 0 81 1t79 1q241 0 241 -189q0 -85 -60.5 -137t-186.5 -52h-125v-138h188v-24h-188v-162h-29v162h-117v24h117v138h-117zM309 674q-68 0 -134 -2v-323h124q109 0 163 43t54 121q0 161 -207 161z" />
    <glyph glyph-name="uni20B6" unicode="&#x20cf;" horiz-adv-x="600" 
d="M29 324v25h117v351q20 0 81 1t79 1q241 0 241 -189q0 -85 -60.5 -137t-186.5 -52h-125v-138h188v-24h-188v-162h-29v162h-117v24h117v138h-117zM309 674q-68 0 -134 -2v-323h124q109 0 163 43t54 121q0 161 -207 161z" />
    <glyph glyph-name="uni20B6" unicode="&#x20ce;" horiz-adv-x="600" 
d="M29 324v25h117v351q20 0 81 1t79 1q241 0 241 -189q0 -85 -60.5 -137t-186.5 -52h-125v-138h188v-24h-188v-162h-29v162h-117v24h117v138h-117zM309 674q-68 0 -134 -2v-323h124q109 0 163 43t54 121q0 161 -207 161z" />
    <glyph glyph-name="uni20B6" unicode="&#x20cd;" horiz-adv-x="600" 
d="M29 324v25h117v351q20 0 81 1t79 1q241 0 241 -189q0 -85 -60.5 -137t-186.5 -52h-125v-138h188v-24h-188v-162h-29v162h-117v24h117v138h-117zM309 674q-68 0 -134 -2v-323h124q109 0 163 43t54 121q0 161 -207 161z" />
    <glyph glyph-name="uni20B6" unicode="&#x20cc;" horiz-adv-x="600" 
d="M29 324v25h117v351q20 0 81 1t79 1q241 0 241 -189q0 -85 -60.5 -137t-186.5 -52h-125v-138h188v-24h-188v-162h-29v162h-117v24h117v138h-117zM309 674q-68 0 -134 -2v-323h124q109 0 163 43t54 121q0 161 -207 161z" />
    <glyph glyph-name="uni20B6" unicode="&#x20cb;" horiz-adv-x="600" 
d="M29 324v25h117v351q20 0 81 1t79 1q241 0 241 -189q0 -85 -60.5 -137t-186.5 -52h-125v-138h188v-24h-188v-162h-29v162h-117v24h117v138h-117zM309 674q-68 0 -134 -2v-323h124q109 0 163 43t54 121q0 161 -207 161z" />
    <glyph glyph-name="uni20B6" unicode="&#x20ca;" horiz-adv-x="600" 
d="M29 324v25h117v351q20 0 81 1t79 1q241 0 241 -189q0 -85 -60.5 -137t-186.5 -52h-125v-138h188v-24h-188v-162h-29v162h-117v24h117v138h-117zM309 674q-68 0 -134 -2v-323h124q109 0 163 43t54 121q0 161 -207 161z" />
    <glyph glyph-name="uni20B6" unicode="&#x20c9;" horiz-adv-x="600" 
d="M29 324v25h117v351q20 0 81 1t79 1q241 0 241 -189q0 -85 -60.5 -137t-186.5 -52h-125v-138h188v-24h-188v-162h-29v162h-117v24h117v138h-117zM309 674q-68 0 -134 -2v-323h124q109 0 163 43t54 121q0 161 -207 161z" />
    <glyph glyph-name="uni20B6" unicode="&#x20c8;" horiz-adv-x="600" 
d="M29 324v25h117v351q20 0 81 1t79 1q241 0 241 -189q0 -85 -60.5 -137t-186.5 -52h-125v-138h188v-24h-188v-162h-29v162h-117v24h117v138h-117zM309 674q-68 0 -134 -2v-323h124q109 0 163 43t54 121q0 161 -207 161z" />
    <glyph glyph-name="uni20B6" unicode="&#x20c7;" horiz-adv-x="600" 
d="M29 324v25h117v351q20 0 81 1t79 1q241 0 241 -189q0 -85 -60.5 -137t-186.5 -52h-125v-138h188v-24h-188v-162h-29v162h-117v24h117v138h-117zM309 674q-68 0 -134 -2v-323h124q109 0 163 43t54 121q0 161 -207 161z" />
    <glyph glyph-name="uni20B6" unicode="&#x20c6;" horiz-adv-x="600" 
d="M29 324v25h117v351q20 0 81 1t79 1q241 0 241 -189q0 -85 -60.5 -137t-186.5 -52h-125v-138h188v-24h-188v-162h-29v162h-117v24h117v138h-117zM309 674q-68 0 -134 -2v-323h124q109 0 163 43t54 121q0 161 -207 161z" />
    <glyph glyph-name="uni20B6" unicode="&#x20c5;" horiz-adv-x="600" 
d="M29 324v25h117v351q20 0 81 1t79 1q241 0 241 -189q0 -85 -60.5 -137t-186.5 -52h-125v-138h188v-24h-188v-162h-29v162h-117v24h117v138h-117zM309 674q-68 0 -134 -2v-323h124q109 0 163 43t54 121q0 161 -207 161z" />
    <glyph glyph-name="uni20B6" unicode="&#x20c4;" horiz-adv-x="600" 
d="M29 324v25h117v351q20 0 81 1t79 1q241 0 241 -189q0 -85 -60.5 -137t-186.5 -52h-125v-138h188v-24h-188v-162h-29v162h-117v24h117v138h-117zM309 674q-68 0 -134 -2v-323h124q109 0 163 43t54 121q0 161 -207 161z" />
    <glyph glyph-name="uni20B6" unicode="&#x20c3;" horiz-adv-x="600" 
d="M29 324v25h117v351q20 0 81 1t79 1q241 0 241 -189q0 -85 -60.5 -137t-186.5 -52h-125v-138h188v-24h-188v-162h-29v162h-117v24h117v138h-117zM309 674q-68 0 -134 -2v-323h124q109 0 163 43t54 121q0 161 -207 161z" />
    <glyph glyph-name="uni20B6" unicode="&#x20c2;" horiz-adv-x="600" 
d="M29 324v25h117v351q20 0 81 1t79 1q241 0 241 -189q0 -85 -60.5 -137t-186.5 -52h-125v-138h188v-24h-188v-162h-29v162h-117v24h117v138h-117zM309 674q-68 0 -134 -2v-323h124q109 0 163 43t54 121q0 161 -207 161z" />
    <glyph glyph-name="uni20B6" unicode="&#x20c1;" horiz-adv-x="600" 
d="M29 324v25h117v351q20 0 81 1t79 1q241 0 241 -189q0 -85 -60.5 -137t-186.5 -52h-125v-138h188v-24h-188v-162h-29v162h-117v24h117v138h-117zM309 674q-68 0 -134 -2v-323h124q109 0 163 43t54 121q0 161 -207 161z" />
    <glyph glyph-name="uni20B6" unicode="&#x20c0;" horiz-adv-x="600" 
d="M29 324v25h117v351q20 0 81 1t79 1q241 0 241 -189q0 -85 -60.5 -137t-186.5 -52h-125v-138h188v-24h-188v-162h-29v162h-117v24h117v138h-117zM309 674q-68 0 -134 -2v-323h124q109 0 163 43t54 121q0 161 -207 161z" />
    <glyph glyph-name="uni20B6" unicode="&#x20bf;" horiz-adv-x="600" 
d="M29 324v25h117v351q20 0 81 1t79 1q241 0 241 -189q0 -85 -60.5 -137t-186.5 -52h-125v-138h188v-24h-188v-162h-29v162h-117v24h117v138h-117zM309 674q-68 0 -134 -2v-323h124q109 0 163 43t54 121q0 161 -207 161z" />
    <glyph glyph-name="uni20B6" unicode="&#x20be;" horiz-adv-x="600" 
d="M29 324v25h117v351q20 0 81 1t79 1q241 0 241 -189q0 -85 -60.5 -137t-186.5 -52h-125v-138h188v-24h-188v-162h-29v162h-117v24h117v138h-117zM309 674q-68 0 -134 -2v-323h124q109 0 163 43t54 121q0 161 -207 161z" />
    <glyph glyph-name="uni20B6" unicode="&#x20bd;" horiz-adv-x="600" 
d="M29 324v25h117v351q20 0 81 1t79 1q241 0 241 -189q0 -85 -60.5 -137t-186.5 -52h-125v-138h188v-24h-188v-162h-29v162h-117v24h117v138h-117zM309 674q-68 0 -134 -2v-323h124q109 0 163 43t54 121q0 161 -207 161z" />
    <glyph glyph-name="uni20B6" unicode="&#x20bc;" horiz-adv-x="600" 
d="M29 324v25h117v351q20 0 81 1t79 1q241 0 241 -189q0 -85 -60.5 -137t-186.5 -52h-125v-138h188v-24h-188v-162h-29v162h-117v24h117v138h-117zM309 674q-68 0 -134 -2v-323h124q109 0 163 43t54 121q0 161 -207 161z" />
    <glyph glyph-name="uni20B6" unicode="&#x20bb;" horiz-adv-x="600" 
d="M29 324v25h117v351q20 0 81 1t79 1q241 0 241 -189q0 -85 -60.5 -137t-186.5 -52h-125v-138h188v-24h-188v-162h-29v162h-117v24h117v138h-117zM309 674q-68 0 -134 -2v-323h124q109 0 163 43t54 121q0 161 -207 161z" />
    <glyph glyph-name="uni20B6" unicode="&#x20ba;" horiz-adv-x="600" 
d="M29 324v25h117v351q20 0 81 1t79 1q241 0 241 -189q0 -85 -60.5 -137t-186.5 -52h-125v-138h188v-24h-188v-162h-29v162h-117v24h117v138h-117zM309 674q-68 0 -134 -2v-323h124q109 0 163 43t54 121q0 161 -207 161z" />
    <glyph glyph-name="uni20B6" unicode="&#x20b9;" horiz-adv-x="600" 
d="M29 324v25h117v351q20 0 81 1t79 1q241 0 241 -189q0 -85 -60.5 -137t-186.5 -52h-125v-138h188v-24h-188v-162h-29v162h-117v24h117v138h-117zM309 674q-68 0 -134 -2v-323h124q109 0 163 43t54 121q0 161 -207 161z" />
    <glyph glyph-name="uni20B6" unicode="&#x20b7;" horiz-adv-x="600" 
d="M29 324v25h117v351q20 0 81 1t79 1q241 0 241 -189q0 -85 -60.5 -137t-186.5 -52h-125v-138h188v-24h-188v-162h-29v162h-117v24h117v138h-117zM309 674q-68 0 -134 -2v-323h124q109 0 163 43t54 121q0 161 -207 161z" />
    <glyph glyph-name="afii61352" unicode="&#x2116;" horiz-adv-x="1157" 
d="M663 0h-24l-495 646v-646h-28v700h24l494 -648v648h29v-700zM755 502q0 68 46.5 112t115.5 44t115.5 -44t46.5 -112q0 -69 -46 -113t-116 -44t-116 44t-46 113zM782 502q0 -58 40.5 -95.5t94.5 -37.5q56 0 95.5 37.5t39.5 95.5t-40 95t-95 37t-95 -37t-40 -95zM786 244
v27h262v-27h-262z" />
    <glyph glyph-name="trademark" unicode="&#x2122;" horiz-adv-x="820" 
d="M383 385v315h26l153 -186l148 186h24v-315h-27v279l-145 -184h-2l-150 184v-279h-27zM11 674v26h311v-26h-142v-289h-27v289h-142z" />
    <glyph glyph-name="arrowleft" unicode="&#x2190;" horiz-adv-x="643" 
d="M323 555l20 -20l-248 -247h508v-28h-510l250 -250l-20 -20l-283 283z" />
    <glyph glyph-name="arrowup" unicode="&#x2191;" horiz-adv-x="645" 
d="M60 260l-20 20l282 283l283 -283l-20 -20l-250 250v-510h-28v508z" />
    <glyph glyph-name="arrowright" unicode="&#x2192;" horiz-adv-x="643" 
d="M300 535l20 20l283 -282l-283 -283l-20 20l250 250h-510v28h508z" />
    <glyph glyph-name="arrowdown" unicode="&#x2193;" horiz-adv-x="645" 
d="M40 263l20 20l247 -248v508h28v-510l250 250l20 -20l-283 -283z" />
    <glyph glyph-name="partialdiff" unicode="&#x2202;" horiz-adv-x="578" 
d="M52 204q0 104 70 179.5t172 75.5q82 0 134 -39.5t69 -89.5q0 51 -9 97.5t-30.5 91.5t-54.5 79t-84 56.5t-116 27.5l5 27q151 -10 235 -111.5t84 -267.5q0 -84 -30.5 -160.5t-93 -127.5t-143.5 -51q-89 0 -148.5 60.5t-59.5 152.5zM81 206q0 -78 51 -133t131 -55
q98 0 161.5 85t71.5 192q-56 137 -201 137q-89 0 -151.5 -67t-62.5 -159z" />
    <glyph glyph-name="product" unicode="&#x220f;" horiz-adv-x="876" 
d="M731 -200v872h-585v-872h-30v900h644v-900h-29z" />
    <glyph glyph-name="summation" unicode="&#x2211;" horiz-adv-x="624" 
d="M364 250l-324 434v16h544v-28h-499l315 -422l-317 -422h501v-28h-544v16z" />
    <glyph glyph-name="minus" unicode="&#x2212;" 
d="M73 347v26h440v-26h-440z" />
    <glyph glyph-name="uni2215" unicode="&#x2215;" horiz-adv-x="301" 
d="M-30 -199l338 908l23 -9l-337 -908z" />
    <glyph glyph-name="radical" unicode="&#x221a;" horiz-adv-x="573" 
d="M1 422v28h135l194 -402l142 652h256v-28h-231l-151 -679h-20l-209 429h-116z" />
    <glyph glyph-name="infinity" unicode="&#x221e;" horiz-adv-x="731" 
d="M540 205q-52 0 -92 30.5t-84 86.5q-26 -37 -44.5 -58.5t-50.5 -40t-69 -18.5q-54 0 -98.5 37.5t-44.5 98.5q0 56 41.5 97t104.5 41q46 0 82 -29.5t80 -85.5q38 55 76.5 85t97.5 30q62 0 98.5 -39.5t36.5 -102.5q0 -51 -35.5 -91.5t-98.5 -40.5zM534 453q-49 0 -83 -28
t-71 -81q29 -37 48 -57t49.5 -38t62.5 -18q51 0 79 33t28 73q0 50 -30 83t-83 33zM201 231q47 0 79 28t69 83q-28 37 -45.5 56t-45 37t-55.5 18q-52 0 -85.5 -33t-33.5 -79q0 -50 37.5 -80t79.5 -30z" />
    <glyph glyph-name="integral" unicode="&#x222b;" horiz-adv-x="338" 
d="M131 -29q0 -154 -102 -175q-21 -4 -46 -3q-45 0 -78 25l10 23q32 -22 70 -22q118 0 118 153v551q0 158 113 181q19 4 46 4q63 -1 106 -36l-11 -22q-44 31 -94 31q-43 0 -72 -16q-60 -35 -60 -151v-543z" />
    <glyph glyph-name="approxequal" unicode="&#x2248;" 
d="M79 252l-16 19q60 57 121 57q42 0 117 -37t113 -37q48 0 95 46l14 -20q-55 -52 -110 -52q-40 0 -115.5 37.5t-114.5 37.5q-51 0 -104 -51zM79 418l-16 19q60 57 121 57q42 0 117 -37t113 -37q48 0 95 46l14 -20q-55 -52 -110 -52q-40 0 -115.5 37.5t-114.5 37.5
q-51 0 -104 -51z" />
    <glyph glyph-name="notequal" unicode="&#x2260;" 
d="M73 430v26h236l95 253l23 -9l-91 -244h177v-26h-186l-52 -140h238v-26h-248l-101 -273l-23 10l97 263h-165v26h175l52 140h-227z" />
    <glyph glyph-name="lessequal" unicode="&#x2264;" 
d="M70 273v29l403 -258v-29zM473 180l-403 259v12l403 256v-31l-363 -231l363 -233v-32z" />
    <glyph glyph-name="greaterequal" unicode="&#x2265;" 
d="M516 302v-29l-403 -258v29zM516 439l-403 -259v32l363 233l-363 231v31l403 -256v-12z" />
    <glyph glyph-name="lozenge" unicode="&#x25ca;" horiz-adv-x="463" 
d="M222 -7l-167 256l168 269h18l167 -258l-168 -267h-18zM84 250l148 -226l147 236l-147 227z" />
    <glyph glyph-name="spade" unicode="&#x2660;" horiz-adv-x="632" 
d="M316 510q88 -55 172 -151t84 -160q0 -42 -30 -73t-87 -31q-79 0 -131 72q28 -119 107 -167h-230q73 52 105 164q-51 -69 -129 -69q-58 0 -87.5 31t-29.5 74q0 63 84 159t172 151z" />
    <glyph glyph-name="club" unicode="&#x2663;" horiz-adv-x="612" 
d="M177 381q0 53 38 91t91 38t91 -38t38 -91q0 -7 -2 -19q50 -4 84.5 -41t34.5 -87q0 -53 -38 -91t-91 -38q-66 0 -104 53q31 -115 102 -158h-230q63 44 100 156q-40 -51 -102 -51q-53 0 -91 38t-38 91q0 50 34 87t84 41q-1 6 -1 19z" />
    <glyph glyph-name="heart" unicode="&#x2665;" horiz-adv-x="649" 
d="M325 0q-93 70 -179 181.5t-86 188.5q0 53 30.5 91.5t90.5 38.5q88 0 144 -104q54 104 143 104q59 0 90 -38t31 -91q0 -77 -85.5 -188.5t-178.5 -182.5z" />
    <glyph glyph-name="diamond" unicode="&#x2666;" horiz-adv-x="583" 
d="M523 249q-109 -109 -232 -268q-103 136 -231 268q108 113 231 269q120 -153 232 -269z" />
    <glyph glyph-name="uniF350" unicode="&#xf350;" horiz-adv-x="560" 
d="M21 0l248 530h22l248 -530h-32l-88 189h-280l-88 -189h-30zM279 491l-128 -275h255z" />
    <glyph glyph-name="uniF351" unicode="&#xf351;" horiz-adv-x="495" 
d="M93 0v525h310v-28h-281v-192q49 4 104 4q102 0 154.5 -39t52.5 -110q0 -81 -56.5 -121.5t-157.5 -40.5q-25 0 -68 1t-58 1zM225 282q-57 0 -103 -5v-249q13 0 46.5 -1t53.5 -1q182 0 182 133q0 59 -45 91t-134 32z" />
    <glyph glyph-name="uniF352" unicode="&#xf352;" horiz-adv-x="502" 
d="M93 0v525q14 0 68.5 1t79.5 1q176 0 176 -129q0 -52 -34 -85t-85 -40v-1q142 -14 142 -127q0 -75 -54 -111t-145 -36q-25 0 -79 1t-69 1zM244 256h-122v-228q11 0 55 -1t64 -1q170 0 170 120q0 53 -43.5 81.5t-123.5 28.5zM240 499q-68 0 -118 -2v-215h126
q59 0 99.5 30.5t40.5 79.5q0 54 -35.5 80.5t-112.5 26.5z" />
    <glyph glyph-name="uniF353" unicode="&#xf353;" horiz-adv-x="407" 
d="M93 0v525h312v-28h-283v-497h-29z" />
    <glyph glyph-name="uniF354" unicode="&#xf354;" horiz-adv-x="597" 
d="M15 -102v130h61q28 34 59.5 132t39.5 260l6 105h309v-497h77v-130h-28v102h-496v-102h-28zM204 402q-7 -110 -27 -197t-37 -124t-31 -53h352v469h-251z" />
    <glyph glyph-name="uniF355" unicode="&#xf355;" horiz-adv-x="474" 
d="M93 0v525h311v-28h-282v-216h258v-28h-258v-225h290v-28h-319z" />
    <glyph glyph-name="uniF356" unicode="&#xf356;" horiz-adv-x="733" 
d="M698 525l-247 -250l255 -275h-39l-252 274l243 251h40zM352 0v525h30v-525h-30zM282 274l-246 251h39l244 -251l-253 -274h-39z" />
    <glyph glyph-name="uniF357" unicode="&#xf357;" horiz-adv-x="464" 
d="M214 -7q-52 0 -102.5 21.5t-73.5 53.5l17 19q28 -30 73 -48t85 -18q74 0 116.5 35t42.5 93q0 49 -33.5 77.5t-91.5 28.5h-77v27h71q42 0 75.5 33.5t33.5 80.5q0 52 -35.5 79.5t-92.5 27.5q-93 0 -151 -61l-18 19q61 70 167 70q74 0 117 -35.5t43 -99.5q0 -39 -23 -74
t-64 -50v-3q50 -4 79.5 -39.5t29.5 -82.5q0 -71 -52.5 -112.5t-135.5 -41.5z" />
    <glyph glyph-name="uniF358" unicode="&#xf358;" horiz-adv-x="645" 
d="M120 0h-27v525h29v-479l403 479h27v-525h-29v479z" />
    <glyph glyph-name="uniF359" unicode="&#xf359;" horiz-adv-x="645" 
d="M120 0h-27v525h29v-479l403 479h27v-525h-29v479zM190 650h27q0 -39 27.5 -61t75.5 -22q46 0 72.5 22t26.5 61h27q0 -49 -35 -77.5t-91 -28.5q-61 0 -95.5 27.5t-34.5 78.5z" />
    <glyph glyph-name="uniF35A" unicode="&#xf35a;" horiz-adv-x="508" 
d="M473 525l-275 -249l284 -276h-43l-281 274l273 251h42zM93 0v525h29v-525h-29z" />
    <glyph glyph-name="uniF35B" unicode="&#xf35b;" horiz-adv-x="583" 
d="M461 0v497h-258l-9 -99q-9 -106 -24 -182.5t-31.5 -118t-38 -64.5t-39 -28.5t-38.5 -4.5v29q14 -1 26.5 3.5t31.5 26.5t34 61.5t29.5 116.5t22.5 183l8 105h315v-525h-29z" />
    <glyph glyph-name="uniF35C" unicode="&#xf35c;" horiz-adv-x="710" 
d="M93 0v525h30l237 -297l228 297h29v-525h-30v481l-227 -295h-4l-234 292v-478h-29z" />
    <glyph glyph-name="uniF35D" unicode="&#xf35d;" horiz-adv-x="626" 
d="M504 0v254h-382v-254h-29v525h29v-243h382v243h29v-525h-29z" />
    <glyph glyph-name="uniF35E" unicode="&#xf35e;" horiz-adv-x="647" 
d="M46 263q0 114 79.5 191t197.5 77q119 0 198.5 -76.5t79.5 -191.5t-79.5 -192.5t-198.5 -77.5q-118 0 -197.5 77t-79.5 193zM77 263q0 -103 71 -172.5t175 -69.5q107 0 177 69t70 173q0 103 -71 171.5t-176 68.5t-175.5 -68.5t-70.5 -171.5z" />
    <glyph glyph-name="uniF35F" unicode="&#xf35f;" horiz-adv-x="625" 
d="M503 0v497h-381v-497h-29v525h439v-525h-29z" />
    <glyph glyph-name="uniF360" unicode="&#xf360;" horiz-adv-x="466" 
d="M122 0h-29v525q16 0 66 1t65 1q107 0 152 -45t45 -113t-50 -114.5t-150 -46.5q-29 0 -99 4v-212zM227 499q-55 0 -105 -2v-257q68 -4 98 -4q83 0 126.5 37t43.5 96t-39.5 94.5t-123.5 35.5z" />
    <glyph glyph-name="uniF361" unicode="&#xf361;" horiz-adv-x="530" 
d="M487 73l12 -23q-29 -27 -76.5 -42t-96.5 -15q-126 0 -203 74t-77 196q0 114 75 191t197 77q104 0 171 -48l-16 -22q-57 42 -154 42q-108 0 -175 -68t-67 -172q0 -109 69.5 -175.5t181.5 -66.5q92 0 159 52z" />
    <glyph glyph-name="uniF362" unicode="&#xf362;" horiz-adv-x="477" 
d="M8 497v28h461v-28h-216v-497h-29v497h-216z" />
    <glyph glyph-name="uniF363" unicode="&#xf363;" horiz-adv-x="517" 
d="M502 525l-198 -407q-30 -62 -58.5 -90t-65.5 -28q-35 0 -58 16l11 25q23 -14 47 -14q47 0 85 75l12 22l-262 401h36l241 -372l179 372h31z" />
    <glyph glyph-name="uniF364" unicode="&#xf364;" horiz-adv-x="668" 
d="M318 -6v66h-6q-124 0 -199 55.5t-75 154.5t75 154.5t203 55.5h2v51h30v-51h3q130 0 204.5 -55t74.5 -155q0 -98 -75.5 -154t-199.5 -56h-7v-66h-30zM352 453h-4v-366h7q109 0 176.5 48t67.5 135t-67 135t-180 48zM68 270q0 -86 67.5 -134.5t176.5 -48.5h6v366h-3
q-112 0 -179.5 -48.5t-67.5 -134.5z" />
    <glyph glyph-name="uniF365" unicode="&#xf365;" horiz-adv-x="530" 
d="M496 525l-212 -258l220 -267h-37l-203 244l-201 -244h-37l220 267l-211 258h37l193 -235l195 235h36z" />
    <glyph glyph-name="uniF366" unicode="&#xf366;" horiz-adv-x="634" 
d="M93 0v525h29v-497h375v497h30v-497h77v-130h-28v102h-483z" />
    <glyph glyph-name="uniF367" unicode="&#xf367;" horiz-adv-x="508" 
d="M415 525v-525h-30v247q-78 -47 -167 -47q-76 0 -122 42t-46 126v157h29v-150q0 -72 38.5 -109t106.5 -37q85 0 161 46v250h30z" />
    <glyph glyph-name="uniF368" unicode="&#xf368;" horiz-adv-x="801" 
d="M93 0v525h29v-497h263v497h30v-497h263v497h30v-525h-615z" />
    <glyph glyph-name="uniF369" unicode="&#xf369;" horiz-adv-x="814" 
d="M93 0v525h29v-497h263v497h30v-497h263v497h30v-497h76v-130h-28v102h-663z" />
    <glyph glyph-name="uniF36A" unicode="&#xf36a;" horiz-adv-x="536" 
d="M1 497v28h178v-213q38 3 99 3q106 0 159 -40t53 -113q0 -80 -58 -122t-161 -42q-23 0 -64.5 1t-56.5 1v497h-149zM277 287q-49 0 -98 -4v-255q12 0 44.5 -1t51.5 -1q89 0 136.5 34.5t47.5 102.5q0 60 -46 92t-136 32z" />
    <glyph glyph-name="uniF36B" unicode="&#xf36b;" horiz-adv-x="662" 
d="M539 0v525h30v-525h-30zM214 287q-36 0 -92 -3v-256q12 0 41 -1t47 -1q90 0 137 35t47 102q0 59 -46 91.5t-134 32.5zM122 525v-213q37 3 92 3q105 0 158 -40t53 -113q0 -80 -58 -122t-160 -42q-23 0 -61 1t-53 1v525h29z" />
    <glyph glyph-name="uniF36C" unicode="&#xf36c;" horiz-adv-x="479" 
d="M220 287q-42 0 -98 -3v-256q12 0 44 -1t50 -1q90 0 138 34.5t48 102.5q0 60 -46 92t-136 32zM122 525v-213q37 3 99 3q106 0 159 -40t53 -113q0 -80 -58.5 -122t-161.5 -42q-22 0 -63.5 1t-56.5 1v525h29z" />
    <glyph glyph-name="uniF36D" unicode="&#xf36d;" horiz-adv-x="551" 
d="M163 254v28h311q-5 103 -73 162t-180 59q-100 0 -160 -44l-13 21q64 52 174 52q129 0 206 -72.5t77 -195.5q0 -117 -78 -194t-204 -77q-106 0 -187 55l14 24q77 -50 175 -50q110 0 178 65t72 167h-312z" />
    <glyph glyph-name="uniF36E" unicode="&#xf36e;" horiz-adv-x="862" 
d="M93 0v525h29v-243h157q7 108 81 179t186 71q119 0 194.5 -76t75.5 -193q0 -116 -76 -193t-194 -77q-114 0 -189 73.5t-78 187.5h-157v-254h-29zM310 263q0 -104 66.5 -172.5t170.5 -68.5q105 0 171.5 68.5t66.5 172.5t-67 172t-171 68t-170.5 -68t-66.5 -172z" />
    <glyph glyph-name="uniF36F" unicode="&#xf36f;" horiz-adv-x="497" 
d="M375 0v210h-142l-169 -210h-36l173 214q-52 14 -89.5 54t-37.5 94q0 73 52.5 119t151.5 46q23 0 67 -1t59 -1v-525h-29zM228 238h147v259q-11 0 -45 1t-55 1q-84 0 -127 -38.5t-43 -97.5q0 -47 37 -82.5t86 -42.5z" />
    <glyph glyph-name="uniF371" unicode="&#xf371;" horiz-adv-x="474" 
d="M93 0v525h311v-28h-282v-216h258v-28h-258v-225h290v-28h-319zM135 667q0 8 6.5 14t15.5 6q8 0 14 -6t6 -14q0 -9 -6 -15.5t-14 -6.5q-9 0 -15.5 6t-6.5 16zM310 667q0 8 6.5 14t15.5 6q8 0 14 -6t6 -14q0 -9 -6 -15.5t-14 -6.5q-9 0 -15.5 6t-6.5 16z" />
    <glyph glyph-name="uniF372" unicode="&#xf372;" horiz-adv-x="612" 
d="M566 155q0 -84 -36 -123t-98 -39q-41 0 -71 23l12 23q23 -17 57 -17q107 0 107 132q0 136 -142 136q-20 0 -38 -2.5t-34.5 -9t-25 -10.5t-25 -13.5t-19.5 -10.5v-244h-29v497h-216v28h461v-28h-216v-225q74 46 147 46q166 0 166 -163z" />
    <glyph glyph-name="uniF373" unicode="&#xf373;" horiz-adv-x="407" 
d="M93 0v525h312v-28h-283v-497h-29zM336 731l-116 -137l-16 15l114 142z" />
    <glyph glyph-name="uniF374" unicode="&#xf374;" horiz-adv-x="550" 
d="M388 282v-29h-313q3 -106 74 -168.5t185 -62.5q90 0 167 50l13 -24q-81 -55 -180 -55q-129 0 -208.5 74t-79.5 196q0 118 77.5 193.5t204.5 75.5q110 0 174 -52l-14 -21q-61 44 -159 44q-112 0 -179.5 -61t-74.5 -160h313z" />
    <glyph glyph-name="uniF375" unicode="&#xf375;" horiz-adv-x="462" 
d="M385 130q0 43 -33.5 71t-81.5 43l-95.5 30.5t-81 47t-33.5 80.5q0 57 46 93t130 36q46 0 92.5 -15.5t69.5 -40.5l-15 -21q-24 24 -66 36.5t-84 12.5q-64 0 -103 -27.5t-39 -73.5q0 -42 33.5 -68.5t81 -40.5t95.5 -30t81.5 -49t33.5 -85q0 -61 -51 -98.5t-124 -37.5
q-65 0 -117 19.5t-80 52.5l19 20q66 -64 178 -64q57 0 100.5 29t43.5 80z" />
    <glyph glyph-name="uniF376" unicode="&#xf376;" horiz-adv-x="257" 
d="M114 0v525h29v-525h-29z" />
    <glyph glyph-name="uniF377" unicode="&#xf377;" horiz-adv-x="261" 
d="M51 666q0 8 6.5 14t14.5 6t14 -6t6 -14q0 -9 -6 -15t-14 -6t-14.5 6t-6.5 15zM172 666q0 8 6.5 14t14.5 6t13.5 -6t5.5 -14q0 -9 -5.5 -15t-13.5 -6t-14.5 6t-6.5 15zM116 0v525h29v-525h-29z" />
    <glyph glyph-name="uniF378" unicode="&#xf378;" horiz-adv-x="285" 
d="M192 525v-411q0 -59 -24 -90t-82 -31q-45 0 -72 23l11 23q25 -17 57 -17q47 0 63.5 25t16.5 70v408h30z" />
    <glyph glyph-name="uniF379" unicode="&#xf379;" horiz-adv-x="838" 
d="M461 0v497h-257l-9 -99q-9 -106 -24.5 -182.5t-32 -118t-38 -64.5t-39 -28.5t-38.5 -4.5v29q14 0 26.5 4t31.5 26.5t34 61.5t29.5 116t22.5 183l8 105h315v-213q37 3 92 3q105 0 157.5 -40t52.5 -113q0 -80 -58 -122t-160 -42q-22 0 -60 1t-53 1zM581 287q-42 0 -91 -4
v-255q12 0 40.5 -1t46.5 -1q90 0 137 35t47 102q0 59 -46 91.5t-134 32.5z" />
    <glyph glyph-name="uniF37A" unicode="&#xf37a;" horiz-adv-x="872" 
d="M93 0v525h29v-224h374v224h29v-223q49 4 92 4q105 0 157.5 -38t52.5 -109q0 -79 -57.5 -120t-160.5 -41q-19 0 -50 1t-43 1h-20v273h-374v-273h-29zM525 274v-246q12 0 40 -1t47 -1q90 0 137 33.5t47 98.5q0 58 -46 89.5t-134 31.5q-46 0 -91 -5z" />
    <glyph glyph-name="uniF37B" unicode="&#xf37b;" horiz-adv-x="612" 
d="M8 497v28h461v-28h-216v-227q64 47 154 47q74 0 116.5 -41t42.5 -127v-149h-29v144q0 145 -137 145q-70 0 -147 -47v-242h-29v497h-216z" />
    <glyph glyph-name="uniF37C" unicode="&#xf37c;" horiz-adv-x="508" 
d="M473 525l-275 -249l284 -276h-43l-281 274l273 251h42zM93 0v525h29v-525h-29zM359 731l-116 -137l-16 15l114 142z" />
    <glyph glyph-name="uniF37E" unicode="&#xf37e;" horiz-adv-x="517" 
d="M502 525l-198 -407q-30 -62 -58.5 -90t-65.5 -28q-35 0 -58 16l11 25q23 -14 47 -14q47 0 85 75l12 22l-262 401h36l241 -372l179 372h31zM138 650h27q0 -39 27.5 -61t75.5 -22q46 0 72.5 22t26.5 61h27q0 -49 -35 -77.5t-91 -28.5q-61 0 -95.5 27.5t-34.5 78.5z" />
    <glyph glyph-name="uniF37F" unicode="&#xf37f;" horiz-adv-x="617" 
d="M93 0v525h29v-497h373v497h29v-525h-201v-119h-29v119h-201z" />
    <glyph glyph-name="uniF381" unicode="&#xf381;" horiz-adv-x="498" 
d="M1 404v26h111v95h29v-95h142v-26h-142v-98q49 4 98 4q107 0 160 -39t53 -111q0 -79 -58.5 -120.5t-161.5 -41.5q-23 0 -64 1t-56 1v404h-111zM239 283q-44 0 -98 -3v-253q13 0 44 -1t50 -1q90 0 138 34.5t48 100.5q0 59 -46 91t-136 32z" />
    <glyph glyph-name="uniF389" unicode="&#xf389;" horiz-adv-x="647" 
d="M46 263q0 114 79.5 191t197.5 77q119 0 198.5 -76.5t79.5 -191.5t-79.5 -192.5t-198.5 -77.5q-118 0 -197.5 77t-79.5 193zM197 298q-62 0 -120 -53q7 -97 76.5 -160.5t169.5 -63.5q104 0 173 65.5t74 165.5q-55 -47 -113 -47q-49 0 -132 46.5t-128 46.5zM459 232
q59 0 110 48q-6 97 -75.5 160t-170.5 63t-171 -64.5t-75 -162.5q60 49 121 49q50 0 133 -46.5t128 -46.5z" />
    <glyph glyph-name="uniF38A" unicode="&#xf38a;" horiz-adv-x="530" 
d="M435 390l-157 -395h-20l-246 530h33l224 -487l141 365q26 68 52 98t59 30q18 0 36 -7v-25q-38 16 -66 -11.5t-56 -97.5z" />
    <glyph glyph-name="uniF393" unicode="&#xf393;" horiz-adv-x="408" 
d="M93 0v525h285v101h28v-129h-284v-497h-29z" />
    <glyph glyph-name="uniF3CF" unicode="&#xf3cf;" horiz-adv-x="935" 
d="M536 0h-24l-391 475v-475h-28v525h23l392 -476v476h28v-525zM608 376q0 51 38 85t95 34t94.5 -33.5t37.5 -85.5t-37.5 -86t-94.5 -34t-95 34t-38 86zM635 376q0 -42 32 -69t74 -27q43 0 74.5 27t31.5 69q0 41 -31.5 68t-74.5 27t-74.5 -26.5t-31.5 -68.5zM633 175v27h215
v-27h-215z" />
    <glyph glyph-name="uniF3D0" unicode="&#xf3d0;" horiz-adv-x="376" 
d="M60 650h27q0 -39 27.5 -61t75.5 -22q46 0 72.5 22t26.5 61h27q0 -49 -35 -77.5t-91 -28.5q-61 0 -95.5 27.5t-34.5 78.5z" />
    <glyph glyph-name="uniF400" unicode="&#xf400;" horiz-adv-x="0" 
d="M-172 693l-112 -141l-18 12l109 146z" />
    <glyph glyph-name="uniF401" unicode="&#xf401;" horiz-adv-x="0" 
d="M-263 829l-167 -89l-9 18l165 94z" />
    <glyph glyph-name="uniF406" unicode="&#xf406;" horiz-adv-x="430" 
d="M60 835l14 15q57 -68 143 -68q84 0 140 68l13 -15q-57 -79 -153 -79q-57 0 -98 25.5t-59 53.5z" />
    <glyph glyph-name="uniF407" unicode="&#xf407;" horiz-adv-x="314" 
d="M60 -177l10 17q40 -21 74 -21q36 0 58.5 15t22.5 39q0 54 -82 54h-6v73h19v-56q98 -1 98 -72q0 -33 -28.5 -53t-76.5 -20q-44 0 -89 24z" />
    <glyph glyph-name="uniF408" unicode="&#xf408;" horiz-adv-x="457" 
d="M60 757l166 94h4l167 -93l-15 -18l-154 85l-155 -85z" />
    <glyph glyph-name="uniF409" unicode="&#xf409;" horiz-adv-x="198" 
d="M78 -76l20 12q18 -2 29 -15.5t11 -34.5q0 -65 -70 -87l-8 15q50 20 50 66q0 37 -32 44z" />
    <glyph glyph-name="uniF40A" unicode="&#xf40a;" horiz-adv-x="197" 
d="M90 720l24 17q23 -25 23 -65q0 -83 -65 -117l-12 15q50 28 50 96q0 34 -20 54z" />
    <glyph glyph-name="uniF40B" unicode="&#xf40b;" horiz-adv-x="167" 
d="M60 797q0 22 25 22q9 0 15.5 -6t6.5 -16q0 -11 -6.5 -17.5t-15.5 -6.5q-25 0 -25 24z" />
    <glyph glyph-name="uniF40C" unicode="&#xf40c;" horiz-adv-x="322" 
d="M60 779q0 40 28 60.5t72 20.5q45 0 73.5 -20.5t28.5 -60.5q0 -39 -29 -61t-73 -22q-43 0 -71.5 22t-28.5 61zM83 779q0 -31 21.5 -47.5t55.5 -16.5q35 0 57 16.5t22 47.5t-22 46.5t-57 15.5t-56 -15.5t-21 -46.5z" />
    <glyph glyph-name="uniF40D" unicode="&#xf40d;" horiz-adv-x="446" 
d="M71 772l-11 18q39 35 81 35q31 0 83 -24t78 -24q41 0 73 35l11 -19q-38 -41 -85 -41q-28 0 -81.5 23.5t-82.5 23.5q-33 0 -66 -27z" />
    <glyph glyph-name="uniF40E" unicode="&#xf40e;" horiz-adv-x="287" 
d="M218 -167l9 -19q-26 -14 -61 -14q-41 0 -73.5 21.5t-32.5 69.5q0 53 50 87t112 34v-12q-51 0 -92.5 -29.5t-41.5 -73.5q0 -39 27 -56t56 -17q28 0 47 9z" />
    <glyph glyph-name="uniF410" unicode="&#xf410;" horiz-adv-x="0" 
d="M-334 740l-166 89l11 23l165 -94z" />
    <glyph glyph-name="uniF416" unicode="&#xf416;" horiz-adv-x="198" 
d="M78 -76l20 12q18 -2 29 -15.5t11 -34.5q0 -65 -70 -87l-8 15q50 20 50 66q0 37 -32 44z" />
    <glyph glyph-name="uniF418" unicode="&#xf418;" horiz-adv-x="197" 
d="M90 530l24 17q23 -25 23 -65q0 -83 -65 -117l-12 15q50 28 50 96q0 34 -20 54z" />
    <glyph glyph-name="uniF447" unicode="&#xf447;" horiz-adv-x="477" 
d="M153 -178l10 17q38 -20 73 -20q36 0 58.5 15t22.5 39q0 54 -82 54h-6v73h-5v497h-216v28h461v-28h-216v-497h-5v-56q97 -1 97 -72q0 -33 -28.5 -53t-77.5 -20q-38 0 -86 23z" />
    <glyph glyph-name="uniF44E" unicode="&#xf44e;" horiz-adv-x="622" 
d="M40 282h505q-5 101 -73 161t-178 60q-94 0 -156 -45l-13 22q65 51 172 51q128 0 203.5 -72t75.5 -195q0 -118 -73.5 -194.5t-196.5 -76.5q-124 0 -197 81t-69 208zM305 21q111 0 174.5 66t65.5 167h-475q2 -100 66 -166.5t169 -66.5z" />
    <glyph glyph-name="uniF639" unicode="&#xf639;" 
d="M77 350q0 164 53 261t163 97t163 -97t53 -261t-52 -261t-162 -97t-164 97.5t-54 260.5zM107 350q0 -153 45.5 -242t142.5 -89q184 0 184 331t-186 331t-186 -331z" />
    <glyph glyph-name="uniF63A" unicode="&#xf63a;" 
d="M88 0v24l81.5 81.5t88.5 96.5t89.5 114t60.5 110.5t27 108.5q0 58 -39.5 101.5t-111.5 43.5q-57 0 -104 -35t-57 -105l-25 8q10 76 65 118t120 42q89 0 135 -50.5t46 -116.5q0 -55 -31 -124t-69.5 -124.5t-94 -118t-84 -90.5l-59.5 -57h371v-27h-409z" />
    <glyph glyph-name="uniF63B" unicode="&#xf63b;" 
d="M285 -9q-148 0 -198 123l18 18q25 -58 74.5 -85t107.5 -27q79 0 127 48t48 121q0 68 -46.5 111.5t-113.5 43.5h-64v28h57q54 0 97 47t43 113q0 72 -41 110t-110 38q-118 0 -160 -104l-19 15q19 55 67 86.5t113 31.5q84 0 131.5 -46.5t47.5 -129.5q0 -55 -30 -102.5
t-82 -67.5v-3q63 -9 101 -58.5t38 -112.5q0 -89 -58 -143.5t-148 -54.5z" />
    <glyph glyph-name="uniF63C" unicode="&#xf63c;" 
d="M397 0v193h-327v17l320 490h33l-313 -478h287v228h28v-228h108v-29h-108v-193h-28z" />
    <glyph glyph-name="uniF63D" unicode="&#xf63d;" 
d="M148 378l41 322h294v-28h-270l-34 -262q42 12 80 12q99 0 160.5 -57.5t61.5 -151.5q0 -99 -61 -160.5t-146 -61.5q-61 0 -114 28.5t-84 86.5l19 19q28 -52 77 -78.5t102 -26.5q75 0 126 54.5t51 137.5q0 79 -55.5 131.5t-144.5 52.5q-49 0 -103 -18z" />
    <glyph glyph-name="uniF63E" unicode="&#xf63e;" 
d="M75 248q0 92 30 175t78.5 140.5t107 95t118.5 50.5l12 -22q-115 -26 -206 -128.5t-108 -264.5q21 57 72 95t124 38q94 0 149.5 -60t55.5 -156q0 -92 -60.5 -156t-140.5 -64q-111 0 -171.5 74t-60.5 183zM104 249q0 -95 52.5 -162t148.5 -67q71 0 122 55.5t51 133.5
q0 83 -48 137t-135 54q-76 0 -126.5 -46.5t-64.5 -104.5z" />
    <glyph glyph-name="uniF63F" unicode="&#xf63f;" 
d="M103 672v28h390v-15l-274 -685h-31l269 672h-354z" />
    <glyph glyph-name="uniF640" unicode="&#xf640;" 
d="M276 374h35q54 0 99.5 44.5t45.5 107.5q0 70 -49.5 112t-114.5 42t-113 -42t-48 -112q0 -63 45.5 -107.5t99.5 -44.5zM310 346h-30q-71 0 -123 -47t-52 -114q0 -71 56 -118t132 -47q78 0 133.5 45.5t55.5 119.5q0 73 -50 117t-122 44zM294 -9q-88 0 -153 52t-65 138
q0 63 41 113t109 64v3q-53 14 -88.5 63t-35.5 103q0 81 55 131.5t136 50.5t137 -50.5t56 -131.5q0 -53 -34.5 -99.5t-92.5 -65.5v-3q67 -7 109.5 -56.5t42.5 -119.5q0 -87 -64.5 -139.5t-152.5 -52.5z" />
    <glyph glyph-name="uniF641" unicode="&#xf641;" 
d="M511 451q0 -190 -94.5 -314t-242.5 -146l-11 23q133 23 219 125.5t97 264.5q-21 -55 -72 -89.5t-122 -34.5q-93 0 -150.5 62t-57.5 151q0 91 64.5 153.5t145.5 62.5q111 0 167.5 -73.5t56.5 -184.5zM481 450q0 96 -48.5 163t-143.5 67q-72 0 -127.5 -54.5t-55.5 -130.5
q0 -77 49 -132.5t135 -55.5q77 0 127.5 43t63.5 100z" />
    <glyph glyph-name="uniF643" unicode="&#xf643;" 
d="M40 250q0 106 69.5 182.5t183.5 76.5t183.5 -76.5t69.5 -182.5t-69.5 -182.5t-183.5 -76.5t-183.5 76.5t-69.5 182.5zM70 250q0 -95 61.5 -162.5t161.5 -67.5q101 0 162 67.5t61 162.5t-61.5 162.5t-161.5 67.5t-161.5 -67.5t-61.5 -162.5z" />
    <glyph glyph-name="uniF644" unicode="&#xf644;" 
d="M159 392l150 116h18v-508h-30v469l-126 -101z" />
    <glyph glyph-name="uniF645" unicode="&#xf645;" 
d="M88 0v23q56 22 108.5 49.5t110 67.5t92.5 91t35 104q0 66 -38 106t-112 40q-56 0 -104.5 -34t-58.5 -103l-21 12q10 72 65 113t117 41q91 0 136 -47.5t45 -123.5q0 -48 -26 -94.5t-61.5 -79.5t-83 -63.5t-80 -46t-62.5 -27.5h347v-28h-409z" />
    <glyph glyph-name="uniF646" unicode="&#xf646;" 
d="M285 -209q-66 0 -119 30t-79 93l19 18q25 -58 74.5 -85t107.5 -27q79 0 127 48t48 121q0 68 -46.5 111.5t-113.5 43.5h-64v28h57q54 0 97 47t43 113q0 72 -41 110t-110 38q-117 0 -161 -104l-18 15q19 55 67 86.5t113 31.5q84 0 131.5 -46.5t47.5 -129.5
q0 -55 -30 -102.5t-83 -67.5v-3q64 -9 102 -58.5t38 -112.5q0 -89 -58 -143.5t-149 -54.5z" />
    <glyph glyph-name="uniF647" unicode="&#xf647;" 
d="M397 -200v200h-327v16l317 484h32l-309 -472h287v228h28v-228h108v-28h-108v-200h-28z" />
    <glyph glyph-name="uniF648" unicode="&#xf648;" 
d="M149 178l41 322h293v-28h-269l-34 -262q40 12 79 12q99 0 160.5 -57.5t61.5 -151.5q0 -99 -61 -160.5t-146 -61.5q-61 0 -114 28.5t-84 86.5l19 19q28 -52 77 -78.5t102 -26.5q76 0 127 54.5t51 137.5q0 79 -56 131.5t-145 52.5q-50 0 -102 -18z" />
    <glyph glyph-name="uniF649" unicode="&#xf649;" 
d="M75 248q0 92 30 175t78.5 140.5t107 95t118.5 50.5l13 -22q-115 -26 -206 -128.5t-109 -264.5q22 57 73 95t123 38q94 0 149.5 -60t55.5 -156q0 -92 -60.5 -156t-140.5 -64q-111 0 -171.5 74t-60.5 183zM105 249q0 -95 52.5 -162t148.5 -67q71 0 122 55.5t51 133.5
q0 83 -48 137t-135 54q-77 0 -127.5 -46.5t-63.5 -104.5z" />
    <glyph glyph-name="uniF64A" unicode="&#xf64a;" 
d="M103 472v28h391v-15l-274 -685h-32l269 672h-354z" />
    <glyph glyph-name="uniF64B" unicode="&#xf64b;" 
d="M276 374h36q54 0 99 44.5t45 107.5q0 71 -49 112.5t-115 41.5q-65 0 -113 -42t-48 -112q0 -63 45.5 -107.5t99.5 -44.5zM310 346h-29q-72 0 -123.5 -46.5t-51.5 -114.5q0 -71 55.5 -118t131.5 -47q79 0 134 45.5t55 119.5q0 73 -50 117t-122 44zM294 -9q-88 0 -153 52
t-65 138q0 63 41 113t110 64v3q-53 14 -89 63t-36 103q0 81 55 131.5t136 50.5t137 -50.5t56 -131.5q0 -53 -34 -99.5t-92 -65.5v-3q67 -7 109 -56.5t42 -119.5q0 -87 -64.5 -139.5t-152.5 -52.5z" />
    <glyph glyph-name="uniF64C" unicode="&#xf64c;" 
d="M511 251q0 -190 -94.5 -314t-242.5 -146l-11 23q133 23 219 125.5t97 264.5q-21 -55 -72 -89.5t-123 -34.5q-93 0 -150 62t-57 151q0 91 64.5 153.5t145.5 62.5q111 0 167.5 -73.5t56.5 -184.5zM481 250q0 96 -48.5 163t-143.5 67q-72 0 -127.5 -54.5t-55.5 -130.5
q0 -77 49 -132.5t135 -55.5q77 0 127.5 43t63.5 100z" />
    <glyph glyph-name="uniF66D" unicode="&#xf66d;" horiz-adv-x="560" 
d="M21 0l248 530h22l248 -530h-32l-88 189h-280l-88 -189h-30zM279 491l-128 -275h255zM147 707l14 15q54 -68 121 -68q65 0 119 67l12 -14q-56 -77 -132 -77q-34 0 -64 15t-45 30t-25 32z" />
    <glyph glyph-name="uniF66E" unicode="&#xf66e;" horiz-adv-x="560" 
d="M21 0l248 530h22l248 -530h-32l-88 189h-280l-88 -189h-30zM279 491l-128 -275h255zM158 666v24h242v-24h-242z" />
    <glyph glyph-name="uniF66F" unicode="&#xf66f;" horiz-adv-x="560" 
d="M524 -167l9 -19q-26 -14 -61 -14q-41 0 -73.5 21.5t-32.5 69.5q0 47 40.5 79.5t95.5 39.5l-83 179h-280l-88 -189h-30l248 530h22l248 -530h-11q-51 0 -92.5 -29.5t-41.5 -73.5q0 -39 27 -56t56 -17q28 0 47 9zM279 491l-128 -275h255z" />
    <glyph glyph-name="uniF671" unicode="&#xf671;" horiz-adv-x="530" 
d="M487 73l12 -23q-29 -27 -76.5 -42t-96.5 -15q-126 0 -203 74t-77 196q0 114 75 191t197 77q104 0 171 -48l-16 -22q-57 42 -154 42q-108 0 -175 -68t-67 -172q0 -109 69.5 -175.5t181.5 -66.5q92 0 159 52zM405 731l-116 -137l-16 15l114 142z" />
    <glyph glyph-name="uniF672" unicode="&#xf672;" horiz-adv-x="530" 
d="M487 73l12 -23q-29 -27 -76.5 -42t-96.5 -15q-126 0 -203 74t-77 196q0 114 75 191t197 77q104 0 171 -48l-16 -22q-57 42 -154 42q-108 0 -175 -68t-67 -172q0 -109 69.5 -175.5t181.5 -66.5q92 0 159 52zM306 603l-130 112l15 17l117 -101l116 101l15 -17l-129 -112h-4
z" />
    <glyph glyph-name="uniF673" unicode="&#xf673;" horiz-adv-x="530" 
d="M487 73l12 -23q-29 -27 -76.5 -42t-96.5 -15q-126 0 -203 74t-77 196q0 114 75 191t197 77q104 0 171 -48l-16 -22q-57 42 -154 42q-108 0 -175 -68t-67 -172q0 -109 69.5 -175.5t181.5 -66.5q92 0 159 52zM310 732l138 -112l-16 -18l-124 101l-126 -101l-16 18l140 112
h4z" />
    <glyph glyph-name="uniF674" unicode="&#xf674;" horiz-adv-x="530" 
d="M487 73l12 -23q-29 -27 -76.5 -42t-96.5 -15q-126 0 -203 74t-77 196q0 114 75 191t197 77q104 0 171 -48l-16 -22q-57 42 -154 42q-108 0 -175 -68t-67 -172q0 -109 69.5 -175.5t181.5 -66.5q92 0 159 52zM283 671q0 9 7 15t16 6q8 0 14.5 -6t6.5 -15q0 -10 -6 -16.5
t-15 -6.5t-16 6.5t-7 16.5z" />
    <glyph glyph-name="uniF675" unicode="&#xf675;" horiz-adv-x="594" 
d="M93 0v525h9q20 0 61 1t69 1q159 0 237.5 -72t78.5 -185q0 -119 -84 -195.5t-239 -76.5q-21 0 -62.5 1t-64.5 1h-5zM230 499q-25 0 -58 -1t-50 -1v-469h30t28 -0.5t22.5 -1t16.5 -0.5h7q140 0 215.5 68.5t75.5 175.5q0 102 -71 165.5t-216 63.5zM268 603l-130 112l15 17
l117 -101l116 101l15 -17l-129 -112h-4z" />
    <glyph glyph-name="uniF676" unicode="&#xf676;" horiz-adv-x="614" 
d="M8 256v27h104v242h9q20 0 62 1t71 1q158 0 236 -72.5t78 -184.5q0 -118 -83.5 -195t-236.5 -77q-24 0 -66 1t-64 1h-6v256h-104zM253 499q-26 0 -60 -1t-51 -1v-214h165v-27h-165v-228h30t28.5 -0.5t23 -1t16.5 -0.5h7q139 0 214.5 69t75.5 175q0 101 -70.5 165
t-213.5 64z" />
    <glyph glyph-name="uniF678" unicode="&#xf678;" horiz-adv-x="474" 
d="M93 0v525h311v-28h-282v-216h258v-28h-258v-225h290v-28h-319zM248 603l-130 112l15 17l117 -101l116 101l15 -17l-129 -112h-4z" />
    <glyph glyph-name="uniF679" unicode="&#xf679;" horiz-adv-x="474" 
d="M93 0v525h311v-28h-282v-216h258v-28h-258v-225h290v-28h-319zM224 671q0 9 7 15t16 6q8 0 14.5 -6t6.5 -15q0 -10 -6 -16.5t-15 -6.5t-16 6.5t-7 16.5z" />
    <glyph glyph-name="uniF67A" unicode="&#xf67a;" horiz-adv-x="474" 
d="M93 0v525h311v-28h-282v-216h258v-28h-258v-225h290v-28h-319zM125 666v24h242v-24h-242z" />
    <glyph glyph-name="uniF67C" unicode="&#xf67c;" horiz-adv-x="474" 
d="M93 0v525h311v-28h-282v-216h258v-28h-258v-225h290v-28h-10q-51 -2 -90 -31t-39 -72q0 -39 27 -56t56 -17q28 0 47 9l9 -19q-26 -14 -61 -14q-41 0 -73.5 21.5t-32.5 69.5q0 37 26 66t67 43h-245z" />
    <glyph glyph-name="uniF67D" unicode="&#xf67d;" horiz-adv-x="587" 
d="M332 220v27h201v-182q-36 -33 -96 -52.5t-115 -19.5q-124 0 -200 74t-76 196q0 114 76 191t196 77q105 0 172 -48l-14 -23q-59 43 -155 43q-109 0 -176.5 -68t-67.5 -172q0 -109 68 -175.5t178 -66.5q51 0 101 16t81 43v140h-173zM169 707l14 15q54 -68 121 -68
q65 0 119 67l12 -14q-56 -77 -132 -77q-34 0 -64 15t-45 30t-25 32z" />
    <glyph glyph-name="uniF67E" unicode="&#xf67e;" horiz-adv-x="587" 
d="M332 220v27h201v-182q-36 -33 -96 -52.5t-115 -19.5q-124 0 -200 74t-76 196q0 114 76 191t196 77q105 0 172 -48l-14 -23q-59 43 -155 43q-109 0 -176.5 -68t-67.5 -172q0 -109 68 -175.5t178 -66.5q51 0 101 16t81 43v140h-173zM320 732l138 -112l-16 -18l-124 101
l-126 -101l-16 18l140 112h4z" />
    <glyph glyph-name="uniF67F" unicode="&#xf67f;" horiz-adv-x="587" 
d="M332 220v27h201v-182q-36 -33 -96 -52.5t-115 -19.5q-124 0 -200 74t-76 196q0 114 76 191t196 77q105 0 172 -48l-14 -23q-59 43 -155 43q-109 0 -176.5 -68t-67.5 -172q0 -109 68 -175.5t178 -66.5q51 0 101 16t81 43v140h-173zM292 -76l20 12q18 -2 29 -15.5t11 -34.5
q0 -65 -70 -87l-8 15q50 20 50 66q0 37 -32 44z" />
    <glyph glyph-name="uniF680" unicode="&#xf680;" horiz-adv-x="587" 
d="M332 220v27h201v-182q-36 -33 -96 -52.5t-115 -19.5q-124 0 -200 74t-76 196q0 114 76 191t196 77q105 0 172 -48l-14 -23q-59 43 -155 43q-109 0 -176.5 -68t-67.5 -172q0 -109 68 -175.5t178 -66.5q51 0 101 16t81 43v140h-173zM286 671q0 9 7 15t16 6q8 0 14.5 -6
t6.5 -15q0 -10 -6 -16.5t-15 -6.5t-16 6.5t-7 16.5z" />
    <glyph glyph-name="uniF681" unicode="&#xf681;" horiz-adv-x="626" 
d="M30 397v27h63v101h29v-101h382v101h29v-101h63v-27h-63v-397h-29v254h-382v-254h-29v397h-63zM122 282h382v115h-382v-115z" />
    <glyph glyph-name="uniF682" unicode="&#xf682;" horiz-adv-x="626" 
d="M504 0v254h-382v-254h-29v525h29v-243h382v243h29v-525h-29zM316 732l138 -112l-16 -18l-124 101l-126 -101l-16 18l140 112h4z" />
    <glyph glyph-name="uniF685" unicode="&#xf685;" horiz-adv-x="257" 
d="M114 0v525h29v-525h-29zM7 666v24h242v-24h-242z" />
    <glyph glyph-name="uniF686" unicode="&#xf686;" horiz-adv-x="257" 
d="M138 -167l9 -19q-26 -14 -61 -14q-41 0 -73.5 21.5t-32.5 69.5q0 46 39.5 78.5t94.5 40.5v515h29v-525h-1q-51 0 -92.5 -29.5t-41.5 -73.5q0 -39 27 -56t56 -17q28 0 47 9z" />
    <glyph glyph-name="uniF688" unicode="&#xf688;" horiz-adv-x="285" 
d="M192 525v-411q0 -59 -24 -90t-82 -31q-45 0 -72 23l11 23q25 -17 57 -17q47 0 63.5 25t16.5 70v408h30zM173 732l138 -112l-16 -18l-124 101l-126 -101l-16 18l140 112h4z" />
    <glyph glyph-name="uniF689" unicode="&#xf689;" horiz-adv-x="508" 
d="M473 525l-275 -249l284 -276h-43l-281 274l273 251h42zM93 0v525h29v-525h-29zM224 -76l20 12q18 -2 29 -15.5t11 -34.5q0 -65 -70 -87l-8 15q50 20 50 66q0 37 -32 44z" />
    <glyph glyph-name="uniF68A" unicode="&#xf68a;" horiz-adv-x="448" 
d="M93 0v525h29v-496h310v-29h-339zM290 731l-116 -137l-16 15l114 142z" />
    <glyph glyph-name="uniF68B" unicode="&#xf68b;" horiz-adv-x="448" 
d="M93 0v525h29v-496h310v-29h-339zM305 525h28q9 -18 9 -42q0 -45 -18.5 -77t-46.5 -46l-12 15q50 32 50 105q0 27 -10 45z" />
    <glyph glyph-name="uniF68C" unicode="&#xf68c;" horiz-adv-x="448" 
d="M93 0v525h29v-496h310v-29h-339zM232 -76l20 12q18 -2 29 -15.5t11 -34.5q0 -65 -70 -87l-8 15q50 20 50 66q0 37 -32 44z" />
    <glyph glyph-name="uniF68D" unicode="&#xf68d;" horiz-adv-x="448" 
d="M93 0v525h29v-496h310v-29h-339zM311 287q0 8 7.5 15t17.5 7q9 0 16 -7t7 -15q0 -10 -7 -17.5t-16 -7.5q-10 0 -17.5 7.5t-7.5 17.5z" />
    <glyph glyph-name="uniF68E" unicode="&#xf68e;" horiz-adv-x="645" 
d="M552 0h-24l-407 475v-475h-28v525h23l408 -476v476h28v-525zM426 731l-116 -137l-16 15l114 142z" />
    <glyph glyph-name="uniF68F" unicode="&#xf68f;" horiz-adv-x="645" 
d="M552 0h-24l-407 475v-475h-28v525h23l408 -476v476h28v-525zM320 603l-130 112l15 17l117 -101l116 101l15 -17l-129 -112h-4z" />
    <glyph glyph-name="uniF690" unicode="&#xf690;" horiz-adv-x="645" 
d="M552 0h-24l-407 475v-475h-28v525h23l408 -476v476h28v-525zM283 -76l20 12q18 -2 29 -15.5t11 -34.5q0 -65 -70 -87l-8 15q50 20 50 66q0 37 -32 44z" />
    <glyph glyph-name="uniF692" unicode="&#xf692;" horiz-adv-x="647" 
d="M46 263q0 114 79.5 191t197.5 77q119 0 198.5 -76.5t79.5 -191.5t-79.5 -192.5t-198.5 -77.5q-118 0 -197.5 77t-79.5 193zM77 263q0 -103 71 -172.5t175 -69.5q107 0 177 69t70 173q0 103 -71 171.5t-176 68.5t-175.5 -68.5t-70.5 -171.5zM498 734l-117 -139l-16 11
l113 144zM351 736l-111 -141l-17 11l108 146z" />
    <glyph glyph-name="uniF693" unicode="&#xf693;" horiz-adv-x="647" 
d="M46 263q0 114 79.5 191t197.5 77q119 0 198.5 -76.5t79.5 -191.5t-79.5 -192.5t-198.5 -77.5q-118 0 -197.5 77t-79.5 193zM77 263q0 -103 71 -172.5t175 -69.5q107 0 177 69t70 173q0 103 -71 171.5t-176 68.5t-175.5 -68.5t-70.5 -171.5zM202 666v24h242v-24h-242z" />
    <glyph glyph-name="uniF695" unicode="&#xf695;" horiz-adv-x="502" 
d="M122 0h-29v525q17 0 65 1t58 1q198 0 198 -150q0 -55 -38 -95t-101 -52l199 -230h-38l-191 223h-123v-223zM217 499q-47 0 -95 -2v-246h108q59 0 106 36.5t47 89.5q0 122 -166 122zM323 731l-116 -137l-16 15l114 142z" />
    <glyph glyph-name="uniF696" unicode="&#xf696;" horiz-adv-x="502" 
d="M122 0h-29v525q17 0 65 1t58 1q198 0 198 -150q0 -55 -38 -95t-101 -52l199 -230h-38l-191 223h-123v-223zM217 499q-47 0 -95 -2v-246h108q59 0 106 36.5t47 89.5q0 122 -166 122zM214 603l-130 112l15 17l117 -101l116 101l15 -17l-129 -112h-4z" />
    <glyph glyph-name="uniF697" unicode="&#xf697;" horiz-adv-x="502" 
d="M122 0h-29v525q17 0 65 1t58 1q198 0 198 -150q0 -55 -38 -95t-101 -52l199 -230h-38l-191 223h-123v-223zM217 499q-47 0 -95 -2v-246h108q59 0 106 36.5t47 89.5q0 122 -166 122zM232 -76l20 12q18 -2 29 -15.5t11 -34.5q0 -65 -70 -87l-8 15q50 20 50 66q0 37 -32 44z
" />
    <glyph glyph-name="uniF698" unicode="&#xf698;" horiz-adv-x="462" 
d="M385 130q0 43 -33.5 71t-81.5 43l-95.5 30.5t-81 47t-33.5 80.5q0 57 46 93t130 36q46 0 92.5 -15.5t69.5 -40.5l-15 -21q-24 24 -66 36.5t-84 12.5q-64 0 -103 -27.5t-39 -73.5q0 -42 33.5 -68.5t81 -40.5t95.5 -30t81.5 -49t33.5 -85q0 -61 -51 -98.5t-124 -37.5
q-65 0 -117 19.5t-80 52.5l19 20q66 -64 178 -64q57 0 100.5 29t43.5 80zM339 731l-116 -137l-16 15l114 142z" />
    <glyph glyph-name="uniF699" unicode="&#xf699;" horiz-adv-x="462" 
d="M145 -178l10 17q38 -20 73 -20q36 0 58.5 15t22.5 39q0 54 -82 54h-6v67q-122 6 -177 71l19 20q66 -64 178 -64q57 0 100.5 29t43.5 80q0 43 -33.5 71t-81.5 43l-95.5 30.5t-81 47t-33.5 80.5q0 57 46 93t130 36q46 0 92.5 -15.5t69.5 -40.5l-15 -21q-24 24 -66 36.5
t-84 12.5q-64 0 -103 -27.5t-39 -73.5q0 -42 33.5 -68.5t81 -40.5t95.5 -30t81.5 -49t33.5 -85q0 -61 -51 -98.5t-124 -37.5h-1v-49q97 -1 97 -72q0 -33 -28.5 -53t-77.5 -20q-38 0 -86 23z" />
    <glyph glyph-name="uniF69A" unicode="&#xf69a;" horiz-adv-x="462" 
d="M385 130q0 43 -33.5 71t-81.5 43l-95.5 30.5t-81 47t-33.5 80.5q0 57 46 93t130 36q46 0 92.5 -15.5t69.5 -40.5l-15 -21q-24 24 -66 36.5t-84 12.5q-64 0 -103 -27.5t-39 -73.5q0 -42 33.5 -68.5t81 -40.5t95.5 -30t81.5 -49t33.5 -85q0 -61 -51 -98.5t-124 -37.5
q-65 0 -117 19.5t-80 52.5l19 20q66 -64 178 -64q57 0 100.5 29t43.5 80zM233 732l138 -112l-16 -18l-124 101l-126 -101l-16 18l140 112h4z" />
    <glyph glyph-name="uniF69B" unicode="&#xf69b;" horiz-adv-x="462" 
d="M385 130q0 43 -33.5 71t-81.5 43l-95.5 30.5t-81 47t-33.5 80.5q0 57 46 93t130 36q46 0 92.5 -15.5t69.5 -40.5l-15 -21q-24 24 -66 36.5t-84 12.5q-64 0 -103 -27.5t-39 -73.5q0 -42 33.5 -68.5t81 -40.5t95.5 -30t81.5 -49t33.5 -85q0 -61 -51 -98.5t-124 -37.5
q-65 0 -117 19.5t-80 52.5l19 20q66 -64 178 -64q57 0 100.5 29t43.5 80zM213 -76l20 12q18 -2 29 -15.5t11 -34.5q0 -65 -70 -87l-8 15q50 20 50 66q0 37 -32 44z" />
    <glyph glyph-name="uniF69D" unicode="&#xf69d;" horiz-adv-x="477" 
d="M8 497v28h461v-28h-216v-497h-29v497h-216zM238 603l-130 112l15 17l117 -101l116 101l15 -17l-129 -112h-4z" />
    <glyph glyph-name="uniF69E" unicode="&#xf69e;" horiz-adv-x="477" 
d="M8 497v28h461v-28h-216v-497h-29v497h-216zM221 -76l20 12q18 -2 29 -15.5t11 -34.5q0 -65 -70 -87l-8 15q50 20 50 66q0 37 -32 44z" />
    <glyph glyph-name="uniF69F" unicode="&#xf69f;" horiz-adv-x="607" 
d="M522 525v-305q0 -113 -60 -169.5t-152 -56.5q-100 0 -162.5 60t-62.5 171v300h29v-295q0 -98 54 -153t142 -55q82 0 132 51.5t50 153.5v298h30zM171 707l14 15q54 -68 121 -68q65 0 119 67l12 -14q-56 -77 -132 -77q-34 0 -64 15t-45 30t-25 32z" />
    <glyph glyph-name="uniF6A0" unicode="&#xf6a0;" horiz-adv-x="607" 
d="M522 525v-305q0 -113 -60 -169.5t-152 -56.5q-100 0 -162.5 60t-62.5 171v300h29v-295q0 -98 54 -153t142 -55q82 0 132 51.5t50 153.5v298h30zM479 734l-117 -139l-16 11l113 144zM332 736l-111 -141l-17 11l108 146z" />
    <glyph glyph-name="uniF6A1" unicode="&#xf6a1;" horiz-adv-x="607" 
d="M522 525v-305q0 -113 -60 -169.5t-152 -56.5q-100 0 -162.5 60t-62.5 171v300h29v-295q0 -98 54 -153t142 -55q82 0 132 51.5t50 153.5v298h30zM182 666v24h242v-24h-242z" />
    <glyph glyph-name="uniF6A2" unicode="&#xf6a2;" horiz-adv-x="607" 
d="M522 525v-305q0 -169 -133 -214q-95 -51 -95 -109q0 -39 27 -56t56 -17q28 0 47 9l9 -19q-26 -14 -61 -14q-41 0 -73.5 21.5t-32.5 69.5q0 38 23 62.5t62 43.5q-21 -3 -41 -3q-100 0 -162.5 60t-62.5 171v300h29v-295q0 -98 54 -153t142 -55q82 0 132 51.5t50 153.5v298
h30z" />
    <glyph glyph-name="uniF6A3" unicode="&#xf6a3;" horiz-adv-x="607" 
d="M522 525v-305q0 -113 -60 -169.5t-152 -56.5q-100 0 -162.5 60t-62.5 171v300h29v-295q0 -98 54 -153t142 -55q82 0 132 51.5t50 153.5v298h30zM205 655q0 40 28.5 68.5t69.5 28.5t70 -28.5t29 -68.5t-29 -68.5t-70 -28.5t-69.5 28t-28.5 69zM226 655q0 -33 22 -55.5
t55 -22.5q32 0 55 22.5t23 55.5q0 32 -23 55t-55 23q-33 0 -55 -22.5t-22 -55.5z" />
    <glyph glyph-name="uniF6AB" unicode="&#xf6ab;" horiz-adv-x="504" 
d="M48 497v28h416v-17l-387 -480h395v-28h-440v17l387 480h-371zM358 731l-116 -137l-16 15l114 142z" />
    <glyph glyph-name="uniF6AC" unicode="&#xf6ac;" horiz-adv-x="504" 
d="M48 497v28h416v-17l-387 -480h395v-28h-440v17l387 480h-371zM230 671q0 9 7 15t16 6q8 0 14.5 -6t6.5 -15q0 -10 -6 -16.5t-15 -6.5t-16 6.5t-7 16.5z" />
    <glyph glyph-name="uniF6AD" unicode="&#xf6ad;" horiz-adv-x="257" 
d="M114 0v525h29v-525h-29zM107 671q0 9 7 15t16 6q8 0 14.5 -6t6.5 -15q0 -10 -6 -16.5t-15 -6.5t-16 6.5t-7 16.5z" />
    <glyph glyph-name="uniF6BA" unicode="&#xf6ba;" horiz-adv-x="407" 
d="M93 340v27h221v-27h-221z" />
    <glyph glyph-name="uniF6BB" unicode="&#xf6bb;" horiz-adv-x="587" 
d="M97 341v26h392v-26h-392z" />
    <glyph glyph-name="uniF6BC" unicode="&#xf6bc;" horiz-adv-x="789" 
d="M97 341v26h595v-26h-595z" />
    <glyph glyph-name="uniF6C3" unicode="&#xf6c3;" horiz-adv-x="198" 
d="M78 -76l20 12q18 -2 29 -15.5t11 -34.5q0 -65 -70 -87l-8 15q50 20 50 66q0 37 -32 44z" />
    <glyph glyph-name="uniF6C9" unicode="&#xf6c9;" horiz-adv-x="296" 
d="M236 829l-167 -89l-9 18l165 94z" />
    <glyph glyph-name="uniF6CA" unicode="&#xf6ca;" horiz-adv-x="457" 
d="M227 742l-167 93l13 17l156 -85l154 85l14 -17l-166 -93h-4z" />
    <glyph glyph-name="uniF6CB" unicode="&#xf6cb;" horiz-adv-x="400" 
d="M60 796q0 9 7 15t17 6q9 0 16 -6t7 -15q0 -10 -7 -16t-16 -6q-24 0 -24 22zM294 796q0 9 7 15t17 6q9 0 15.5 -6t6.5 -15q0 -10 -6.5 -16t-15.5 -6q-24 0 -24 22z" />
    <glyph glyph-name="uniF6CE" unicode="&#xf6ce;" horiz-adv-x="296" 
d="M226 740l-166 89l11 23l165 -94z" />
    <glyph glyph-name="uniF6CF" unicode="&#xf6cf;" horiz-adv-x="465" 
d="M405 833l-160 -93l-13 14l156 98zM229 837l-156 -97l-13 14l148 98z" />
    <glyph glyph-name="uniF6D0" unicode="&#xf6d0;" horiz-adv-x="417" 
d="M60 785v24h297v-24h-297z" />
    <glyph glyph-name="uniF6D1" unicode="&#xf6d1;" horiz-adv-x="453" 
d="M60 845h28q21 -34 57.5 -55t82.5 -21q47 0 85.5 21.5t51.5 54.5h28q-12 -43 -60 -71t-105 -28q-59 0 -105 28t-63 71z" />
    <glyph glyph-name="uniF6D4" unicode="&#xf6d4;" horiz-adv-x="376" 
d="M60 687h25q0 -40 29 -66.5t76 -26.5q45 0 73 26.5t28 66.5h25q0 -50 -35.5 -83.5t-90.5 -33.5q-60 0 -95 32.5t-35 84.5z" />
    <glyph glyph-name="uniF6DC" unicode="&#xf6dc;" 
d="M159 584l152 123h18v-707h-28v664l-126 -102z" />
    <glyph glyph-name="uniF6DE" unicode="&#xf6de;" horiz-adv-x="591" 
d="M73 257v26h446v-26h-446z" />
    <glyph glyph-name="uniF6F4" unicode="&#xf6f4;" horiz-adv-x="386" 
d="M60 707l14 15q54 -68 121 -68q65 0 119 67l12 -14q-56 -77 -132 -77q-34 0 -64 15t-45 30t-25 32z" />
    <glyph glyph-name="uniF6F5" unicode="&#xf6f5;" horiz-adv-x="383" 
d="M190 603l-130 112l15 17l117 -101l116 101l15 -17l-129 -112h-4z" />
    <glyph glyph-name="uniF6F6" unicode="&#xf6f6;" horiz-adv-x="402" 
d="M204 732l138 -112l-16 -18l-124 101l-126 -101l-16 18l140 112h4z" />
    <glyph glyph-name="uniF6F7" unicode="&#xf6f7;" horiz-adv-x="164" 
d="M60 671q0 9 7 15t16 6q8 0 14.5 -6t6.5 -15q0 -10 -6 -16.5t-15 -6.5t-16 6.5t-7 16.5z" />
    <glyph glyph-name="uniF6F8" unicode="&#xf6f8;" horiz-adv-x="395" 
d="M335 734l-117 -139l-16 11l113 144zM188 736l-111 -141l-17 11l108 146z" />
    <glyph glyph-name="uniF6F9" unicode="&#xf6f9;" horiz-adv-x="448" 
d="M20 172v31l73 37v285h29v-270l127 66v-29l-127 -67v-196h310v-29h-339v210z" />
    <glyph glyph-name="uniF6FA" unicode="&#xf6fa;" horiz-adv-x="852" 
d="M471 0v32q-62 -39 -148 -39q-124 0 -200.5 74t-76.5 196q0 115 74.5 191.5t195.5 76.5q93 0 155 -38v32h311v-28h-281v-216h256v-28h-256v-225h289v-28h-319zM325 21q85 0 146 43v397q-59 42 -152 42q-108 0 -175 -68t-67 -172q0 -109 69 -175.5t179 -66.5z" />
    <glyph glyph-name="uniF6FB" unicode="&#xf6fb;" horiz-adv-x="287" 
d="M218 -167l9 -19q-26 -14 -61 -14q-41 0 -73.5 21.5t-32.5 69.5q0 53 50 87t112 34v-12q-51 0 -92.5 -29.5t-41.5 -73.5q0 -39 27 -56t56 -17q28 0 47 9z" />
    <glyph glyph-name="uniF6FC" unicode="&#xf6fc;" horiz-adv-x="317" 
d="M60 655q0 40 28.5 68.5t69.5 28.5t70 -28.5t29 -68.5t-29 -68.5t-70 -28.5t-69.5 28t-28.5 69zM81 655q0 -33 22 -55.5t55 -22.5q32 0 55 22.5t23 55.5q0 32 -23 55t-55 23q-33 0 -55 -22.5t-22 -55.5z" />
    <glyph glyph-name="uniF6FD" unicode="&#xf6fd;" horiz-adv-x="462" 
d="M385 130q0 43 -33.5 71t-81.5 43l-95.5 30.5t-81 47t-33.5 80.5q0 57 46 93t130 36q46 0 92.5 -15.5t69.5 -40.5l-15 -21q-24 24 -66 36.5t-84 12.5q-64 0 -103 -27.5t-39 -73.5q0 -42 33.5 -68.5t81 -40.5t95.5 -30t81.5 -49t33.5 -85q0 -61 -51 -98.5t-124 -37.5
q-65 0 -117 19.5t-80 52.5l19 20q66 -64 178 -64q57 0 100.5 29t43.5 80zM229 603l-130 112l15 17l117 -101l116 101l15 -17l-129 -112h-4z" />
    <glyph glyph-name="uniF6FE" unicode="&#xf6fe;" horiz-adv-x="410" 
d="M73 627l-13 15q51 46 93 46q24 0 56.5 -24t52.5 -24q31 0 76 41l12 -16q-50 -49 -91 -49q-22 0 -54.5 24t-55.5 24q-30 0 -76 -37z" />
    <glyph glyph-name="uniF6FF" unicode="&#xf6ff;" horiz-adv-x="504" 
d="M48 497v28h416v-17l-387 -480h395v-28h-440v17l387 480h-371zM249 603l-130 112l15 17l117 -101l116 101l15 -17l-129 -112h-4z" />
    <glyph glyph-name="uniF730" unicode="&#xf730;" horiz-adv-x="620" 
d="M57 250q0 106 69.5 182.5t183.5 76.5t183.5 -76.5t69.5 -182.5t-69.5 -182.5t-183.5 -76.5t-183.5 76.5t-69.5 182.5zM87 250q0 -95 61.5 -162.5t161.5 -67.5q101 0 162 67.5t61 162.5t-61.5 162.5t-161.5 67.5t-161.5 -67.5t-61.5 -162.5z" />
    <glyph glyph-name="uniF731" unicode="&#xf731;" horiz-adv-x="364" 
d="M55 392l150 116h18v-508h-30v469l-126 -101z" />
    <glyph glyph-name="uniF732" unicode="&#xf732;" horiz-adv-x="529" 
d="M56 0v23q56 22 108.5 49.5t110 67.5t92.5 91t35 104q0 66 -38 106t-112 40q-56 0 -104.5 -34t-58.5 -103l-21 12q10 72 65 113t117 41q91 0 136 -47.5t45 -123.5q0 -48 -26 -94.5t-61.5 -79.5t-83 -63.5t-80 -46t-62.5 -27.5h347v-28h-409z" />
    <glyph glyph-name="uniF733" unicode="&#xf733;" horiz-adv-x="534" 
d="M251 -209q-66 0 -119 30t-79 93l19 18q25 -58 74.5 -85t107.5 -27q79 0 127 48t48 121q0 68 -46.5 111.5t-113.5 43.5h-64v28h57q54 0 97 47t43 113q0 72 -41 110t-110 38q-117 0 -161 -104l-18 15q19 55 67 86.5t113 31.5q84 0 131.5 -46.5t47.5 -129.5
q0 -55 -30 -102.5t-83 -67.5v-3q64 -9 102 -58.5t38 -112.5q0 -89 -58 -143.5t-149 -54.5z" />
    <glyph glyph-name="uniF734" unicode="&#xf734;" horiz-adv-x="528" 
d="M354 -200v200h-327v16l317 484h32l-309 -472h287v228h28v-228h108v-28h-108v-200h-28z" />
    <glyph glyph-name="uniF735" unicode="&#xf735;" horiz-adv-x="520" 
d="M126 178l41 322h293v-28h-269l-34 -262q40 12 79 12q99 0 160.5 -57.5t61.5 -151.5q0 -99 -61 -160.5t-146 -61.5q-61 0 -114 28.5t-84 86.5l19 19q28 -52 77 -78.5t102 -26.5q76 0 127 54.5t51 137.5q0 79 -56 131.5t-145 52.5q-50 0 -102 -18z" />
    <glyph glyph-name="uniF736" unicode="&#xf736;" horiz-adv-x="547" 
d="M57 248q0 92 30 175t78.5 140.5t107 95t118.5 50.5l13 -22q-115 -26 -206 -128.5t-109 -264.5q22 57 73 95t123 38q94 0 149.5 -60t55.5 -156q0 -92 -60.5 -156t-140.5 -64q-111 0 -171.5 74t-60.5 183zM87 249q0 -95 52.5 -162t148.5 -67q71 0 122 55.5t51 133.5
q0 83 -48 137t-135 54q-77 0 -127.5 -46.5t-63.5 -104.5z" />
    <glyph glyph-name="uniF737" unicode="&#xf737;" horiz-adv-x="466" 
d="M37 472v28h391v-15l-274 -685h-32l269 672h-354z" />
    <glyph glyph-name="uniF738" unicode="&#xf738;" horiz-adv-x="588" 
d="M276 374h36q54 0 99 44.5t45 107.5q0 71 -49 112.5t-115 41.5q-65 0 -113 -42t-48 -112q0 -63 45.5 -107.5t99.5 -44.5zM310 346h-29q-72 0 -123.5 -46.5t-51.5 -114.5q0 -71 55.5 -118t131.5 -47q79 0 134 45.5t55 119.5q0 73 -50 117t-122 44zM294 -9q-88 0 -153 52
t-65 138q0 63 41 113t110 64v3q-53 14 -89 63t-36 103q0 81 55 131.5t136 50.5t137 -50.5t56 -131.5q0 -53 -34 -99.5t-92 -65.5v-3q67 -7 109 -56.5t42 -119.5q0 -87 -64.5 -139.5t-152.5 -52.5z" />
    <glyph glyph-name="uniF739" unicode="&#xf739;" horiz-adv-x="546" 
d="M489 251q0 -190 -94.5 -314t-242.5 -146l-11 23q133 23 219 125.5t97 264.5q-21 -55 -72 -89.5t-123 -34.5q-93 0 -150 62t-57 151q0 91 64.5 153.5t145.5 62.5q111 0 167.5 -73.5t56.5 -184.5zM459 250q0 96 -48.5 163t-143.5 67q-72 0 -127.5 -54.5t-55.5 -130.5
q0 -77 49 -132.5t135 -55.5q77 0 127.5 43t63.5 100z" />
    <glyph glyph-name="uniF760" unicode="&#xf760;" horiz-adv-x="252" 
d="M176 594l-116 137l18 20l114 -142z" />
    <glyph glyph-name="uniF761" unicode="&#xf761;" horiz-adv-x="560" 
d="M21 0l248 530h22l248 -530h-32l-88 189h-280l-88 -189h-30zM279 491l-128 -275h255z" />
    <glyph glyph-name="uniF762" unicode="&#xf762;" horiz-adv-x="502" 
d="M93 0v525q14 0 68.5 1t79.5 1q176 0 176 -129q0 -52 -34 -85t-85 -40v-1q142 -14 142 -127q0 -75 -54 -111t-145 -36q-25 0 -79 1t-69 1zM244 256h-122v-228q11 0 55 -1t64 -1q170 0 170 120q0 53 -43.5 81.5t-123.5 28.5zM240 499q-68 0 -118 -2v-215h126
q59 0 99.5 30.5t40.5 79.5q0 54 -35.5 80.5t-112.5 26.5z" />
    <glyph glyph-name="uniF763" unicode="&#xf763;" horiz-adv-x="530" 
d="M487 73l12 -23q-29 -27 -76.5 -42t-96.5 -15q-126 0 -203 74t-77 196q0 114 75 191t197 77q104 0 171 -48l-16 -22q-57 42 -154 42q-108 0 -175 -68t-67 -172q0 -109 69.5 -175.5t181.5 -66.5q92 0 159 52z" />
    <glyph glyph-name="uniF764" unicode="&#xf764;" horiz-adv-x="594" 
d="M93 0v525h9q20 0 61 1t69 1q159 0 237.5 -72t78.5 -185q0 -119 -84 -195.5t-239 -76.5q-21 0 -62.5 1t-64.5 1h-5zM230 499q-25 0 -58 -1t-50 -1v-469h30t28 -0.5t22.5 -1t16.5 -0.5h7q140 0 215.5 68.5t75.5 175.5q0 102 -71 165.5t-216 63.5z" />
    <glyph glyph-name="uniF765" unicode="&#xf765;" horiz-adv-x="474" 
d="M93 0v525h311v-28h-282v-216h258v-28h-258v-225h290v-28h-319z" />
    <glyph glyph-name="uniF766" unicode="&#xf766;" horiz-adv-x="441" 
d="M93 0v525h316v-28h-287v-231h262v-28h-262v-238h-29z" />
    <glyph glyph-name="uniF767" unicode="&#xf767;" horiz-adv-x="587" 
d="M332 220v27h201v-182q-36 -33 -96 -52.5t-115 -19.5q-124 0 -200 74t-76 196q0 114 76 191t196 77q105 0 172 -48l-14 -23q-59 43 -155 43q-109 0 -176.5 -68t-67.5 -172q0 -109 68 -175.5t178 -66.5q51 0 101 16t81 43v140h-173z" />
    <glyph glyph-name="uniF768" unicode="&#xf768;" horiz-adv-x="626" 
d="M504 0v254h-382v-254h-29v525h29v-243h382v243h29v-525h-29z" />
    <glyph glyph-name="uniF769" unicode="&#xf769;" horiz-adv-x="257" 
d="M114 0v525h29v-525h-29z" />
    <glyph glyph-name="uniF76A" unicode="&#xf76a;" horiz-adv-x="285" 
d="M192 525v-411q0 -59 -24 -90t-82 -31q-45 0 -72 23l11 23q25 -17 57 -17q47 0 63.5 25t16.5 70v408h30z" />
    <glyph glyph-name="uniF76B" unicode="&#xf76b;" horiz-adv-x="508" 
d="M473 525l-275 -249l284 -276h-43l-281 274l273 251h42zM93 0v525h29v-525h-29z" />
    <glyph glyph-name="uniF76C" unicode="&#xf76c;" horiz-adv-x="448" 
d="M93 0v525h29v-496h310v-29h-339z" />
    <glyph glyph-name="uniF76D" unicode="&#xf76d;" horiz-adv-x="710" 
d="M93 0v525h30l237 -297l228 297h29v-525h-30v481l-227 -295h-4l-234 292v-478h-29z" />
    <glyph glyph-name="uniF76E" unicode="&#xf76e;" horiz-adv-x="645" 
d="M552 0h-24l-407 475v-475h-28v525h23l408 -476v476h28v-525z" />
    <glyph glyph-name="uniF76F" unicode="&#xf76f;" horiz-adv-x="647" 
d="M46 263q0 114 79.5 191t197.5 77q119 0 198.5 -76.5t79.5 -191.5t-79.5 -192.5t-198.5 -77.5q-118 0 -197.5 77t-79.5 193zM77 263q0 -103 71 -172.5t175 -69.5q107 0 177 69t70 173q0 103 -71 171.5t-176 68.5t-175.5 -68.5t-70.5 -171.5z" />
    <glyph glyph-name="uniF770" unicode="&#xf770;" horiz-adv-x="466" 
d="M122 0h-29v525q16 0 66 1t65 1q107 0 152 -45t45 -113t-50 -114.5t-150 -46.5q-29 0 -99 4v-212zM227 499q-55 0 -105 -2v-257q68 -4 98 -4q83 0 126.5 37t43.5 96t-39.5 94.5t-123.5 35.5z" />
    <glyph glyph-name="uniF771" unicode="&#xf771;" horiz-adv-x="647" 
d="M46 263q0 114 79.5 191t197.5 77q119 0 198.5 -76.5t79.5 -191.5q0 -125 -92 -204l53 -59h-36l-38 43q-72 -50 -165 -50q-118 0 -197.5 77t-79.5 193zM77 263q0 -103 71 -172.5t175 -69.5q81 0 145 43l-49 56l20 18l51 -57q80 69 80 182q0 103 -71 171.5t-176 68.5
t-175.5 -68.5t-70.5 -171.5z" />
    <glyph glyph-name="uniF772" unicode="&#xf772;" horiz-adv-x="502" 
d="M122 0h-29v525q17 0 65 1t58 1q198 0 198 -150q0 -55 -38 -95t-101 -52l199 -230h-38l-191 223h-123v-223zM217 499q-47 0 -95 -2v-246h108q59 0 106 36.5t47 89.5q0 122 -166 122z" />
    <glyph glyph-name="uniF773" unicode="&#xf773;" horiz-adv-x="462" 
d="M385 130q0 43 -33.5 71t-81.5 43l-95.5 30.5t-81 47t-33.5 80.5q0 57 46 93t130 36q46 0 92.5 -15.5t69.5 -40.5l-15 -21q-24 24 -66 36.5t-84 12.5q-64 0 -103 -27.5t-39 -73.5q0 -42 33.5 -68.5t81 -40.5t95.5 -30t81.5 -49t33.5 -85q0 -61 -51 -98.5t-124 -37.5
q-65 0 -117 19.5t-80 52.5l19 20q66 -64 178 -64q57 0 100.5 29t43.5 80z" />
    <glyph glyph-name="uniF774" unicode="&#xf774;" horiz-adv-x="477" 
d="M8 497v28h461v-28h-216v-497h-29v497h-216z" />
    <glyph glyph-name="uniF775" unicode="&#xf775;" horiz-adv-x="607" 
d="M522 525v-305q0 -113 -60 -169.5t-152 -56.5q-100 0 -162.5 60t-62.5 171v300h29v-295q0 -98 54 -153t142 -55q82 0 132 51.5t50 153.5v298h30z" />
    <glyph glyph-name="uniF776" unicode="&#xf776;" horiz-adv-x="530" 
d="M518 525l-240 -530h-20l-246 530h33l224 -487l217 487h32z" />
    <glyph glyph-name="uniF777" unicode="&#xf777;" horiz-adv-x="767" 
d="M753 525l-165 -525h-24l-178 474l-174 -474h-25l-173 525h33l154 -472l173 472h25l177 -473l148 473h29z" />
    <glyph glyph-name="uniF778" unicode="&#xf778;" horiz-adv-x="530" 
d="M496 525l-212 -258l220 -267h-37l-203 244l-201 -244h-37l220 267l-211 258h37l193 -235l195 235h36z" />
    <glyph glyph-name="uniF779" unicode="&#xf779;" horiz-adv-x="462" 
d="M448 525l-203 -293v-232h-30v232l-201 293h36l181 -265l183 265h34z" />
    <glyph glyph-name="uniF77A" unicode="&#xf77a;" horiz-adv-x="504" 
d="M48 497v28h416v-17l-387 -480h395v-28h-440v17l387 480h-371z" />
    <glyph glyph-name="uniF7A8" unicode="&#xf7a8;" horiz-adv-x="337" 
d="M60 667q0 8 6.5 14t15.5 6q8 0 14 -6t6 -14q0 -9 -6 -15.5t-14 -6.5q-9 0 -15.5 6t-6.5 16zM235 667q0 8 6.5 14t15.5 6q8 0 14 -6t6 -14q0 -9 -6 -15.5t-14 -6.5q-9 0 -15.5 6t-6.5 16z" />
    <glyph glyph-name="uniF7AF" unicode="&#xf7af;" horiz-adv-x="362" 
d="M60 666v24h242v-24h-242z" />
    <glyph glyph-name="uniF7B4" unicode="&#xf7b4;" horiz-adv-x="252" 
d="M192 731l-116 -137l-16 15l114 142z" />
    <glyph glyph-name="uniF7B8" unicode="&#xf7b8;" horiz-adv-x="312" 
d="M60 -178l10 17q38 -20 73 -20q36 0 58.5 15t22.5 39q0 54 -82 54h-6v73h19v-56q97 -1 97 -72q0 -33 -28.5 -53t-77.5 -20q-38 0 -86 23z" />
    <glyph glyph-name="uniF7E0" unicode="&#xf7e0;" horiz-adv-x="560" 
d="M21 0l248 530h22l248 -530h-32l-88 189h-280l-88 -189h-30zM279 491l-128 -275h255zM305 594l-116 137l18 20l114 -142z" />
    <glyph glyph-name="uniF7E1" unicode="&#xf7e1;" horiz-adv-x="560" 
d="M21 0l248 530h22l248 -530h-32l-88 189h-280l-88 -189h-30zM279 491l-128 -275h255zM378 731l-116 -137l-16 15l114 142z" />
    <glyph glyph-name="uniF7E2" unicode="&#xf7e2;" horiz-adv-x="560" 
d="M21 0l248 530h22l248 -530h-32l-88 189h-280l-88 -189h-30zM279 491l-128 -275h255zM283 732l138 -112l-16 -18l-124 101l-126 -101l-16 18l140 112h4z" />
    <glyph glyph-name="uniF7E3" unicode="&#xf7e3;" horiz-adv-x="560" 
d="M21 0l248 530h22l248 -530h-32l-88 189h-280l-88 -189h-30zM279 491l-128 -275h255zM148 627l-13 15q51 46 93 46q24 0 56.5 -24t52.5 -24q31 0 76 41l12 -16q-50 -49 -91 -49q-22 0 -54.5 24t-55.5 24q-30 0 -76 -37z" />
    <glyph glyph-name="uniF7E4" unicode="&#xf7e4;" horiz-adv-x="560" 
d="M21 0l248 530h22l248 -530h-32l-88 189h-280l-88 -189h-30zM279 491l-128 -275h255zM171 667q0 8 6.5 14t15.5 6q8 0 14 -6t6 -14q0 -9 -6 -15.5t-14 -6.5q-9 0 -15.5 6t-6.5 16zM346 667q0 8 6.5 14t15.5 6q8 0 14 -6t6 -14q0 -9 -6 -15.5t-14 -6.5q-9 0 -15.5 6
t-6.5 16z" />
    <glyph glyph-name="uniF7E5" unicode="&#xf7e5;" horiz-adv-x="560" 
d="M21 0l248 530h22l248 -530h-32l-88 189h-280l-88 -189h-30zM279 491l-128 -275h255zM182 657q0 40 28.5 68.5t69.5 28.5t70 -28.5t29 -68.5t-29 -68.5t-70 -28.5t-69.5 28t-28.5 69zM203 657q0 -33 22 -55.5t55 -22.5q32 0 55 22.5t23 55.5q0 32 -23 55t-55 23
q-33 0 -55 -22.5t-22 -55.5z" />
    <glyph glyph-name="uniF7E6" unicode="&#xf7e6;" horiz-adv-x="783" 
d="M405 0v193h-222l-148 -193h-34l169 220l236 305h307v-28h-279v-216h254v-28h-254v-225h287v-28h-316zM405 481l-200 -260h200v260z" />
    <glyph glyph-name="uniF7E7" unicode="&#xf7e7;" horiz-adv-x="530" 
d="M214 -178l10 17q38 -20 73 -20q36 0 58.5 15t22.5 39q0 54 -82 54h-6v68q-111 11 -177.5 83t-66.5 185q0 114 75 191t197 77q104 0 171 -48l-16 -22q-57 42 -154 42q-108 0 -175 -68t-67 -172q0 -109 69.5 -175.5t181.5 -66.5q92 0 159 52l12 -23q-29 -27 -76.5 -42
t-96.5 -15q-3 0 -9 0.5t-8 0.5v-50q97 -1 97 -72q0 -33 -28.5 -53t-77.5 -20q-38 0 -86 23z" />
    <glyph glyph-name="uniF7E8" unicode="&#xf7e8;" horiz-adv-x="474" 
d="M93 0v525h311v-28h-282v-216h258v-28h-258v-225h290v-28h-319zM273 594l-116 137l18 20l114 -142z" />
    <glyph glyph-name="uniF7E9" unicode="&#xf7e9;" horiz-adv-x="474" 
d="M93 0v525h311v-28h-282v-216h258v-28h-258v-225h290v-28h-319zM353 731l-116 -137l-16 15l114 142z" />
    <glyph glyph-name="uniF7EA" unicode="&#xf7ea;" horiz-adv-x="474" 
d="M93 0v525h311v-28h-282v-216h258v-28h-258v-225h290v-28h-319zM255 732l138 -112l-16 -18l-124 101l-126 -101l-16 18l140 112h4z" />
    <glyph glyph-name="uniF7EB" unicode="&#xf7eb;" horiz-adv-x="474" 
d="M93 0v525h311v-28h-282v-216h258v-28h-258v-225h290v-28h-319zM136 667q0 8 6.5 14t15.5 6q8 0 14 -6t6 -14q0 -9 -6 -15.5t-14 -6.5q-9 0 -15.5 6t-6.5 16zM311 667q0 8 6.5 14t15.5 6q8 0 14 -6t6 -14q0 -9 -6 -15.5t-14 -6.5q-9 0 -15.5 6t-6.5 16z" />
    <glyph glyph-name="uniF7EC" unicode="&#xf7ec;" horiz-adv-x="257" 
d="M114 0v525h29v-525h-29zM146 594l-116 137l18 20l114 -142z" />
    <glyph glyph-name="uniF7ED" unicode="&#xf7ed;" horiz-adv-x="257" 
d="M114 0v525h29v-525h-29zM238 731l-116 -137l-16 15l114 142z" />
    <glyph glyph-name="uniF7EE" unicode="&#xf7ee;" horiz-adv-x="257" 
d="M114 0v525h29v-525h-29zM132 732l138 -112l-16 -18l-124 101l-126 -101l-16 18l140 112h4z" />
    <glyph glyph-name="uniF7EF" unicode="&#xf7ef;" horiz-adv-x="257" 
d="M114 0v525h29v-525h-29zM20 667q0 8 6.5 14t15.5 6q8 0 14 -6t6 -14q0 -9 -6 -15.5t-14 -6.5q-9 0 -15.5 6t-6.5 16zM195 667q0 8 6.5 14t15.5 6q8 0 14 -6t6 -14q0 -9 -6 -15.5t-14 -6.5q-9 0 -15.5 6t-6.5 16z" />
    <glyph glyph-name="uniF7F0" unicode="&#xf7f0;" horiz-adv-x="614" 
d="M8 256v27h104v242h9q20 0 62 1t71 1q158 0 236 -72.5t78 -184.5q0 -118 -83.5 -195t-236.5 -77q-24 0 -66 1t-64 1h-6v256h-104zM253 499q-26 0 -60 -1t-51 -1v-214h165v-27h-165v-228h30t28.5 -0.5t23 -1t16.5 -0.5h7q139 0 214.5 69t75.5 175q0 101 -70.5 165
t-213.5 64z" />
    <glyph glyph-name="uniF7F1" unicode="&#xf7f1;" horiz-adv-x="645" 
d="M552 0h-24l-407 475v-475h-28v525h23l408 -476v476h28v-525zM188 627l-13 15q51 46 93 46q24 0 56.5 -24t52.5 -24q31 0 76 41l12 -16q-50 -49 -91 -49q-22 0 -54.5 24t-55.5 24q-30 0 -76 -37z" />
    <glyph glyph-name="uniF7F2" unicode="&#xf7f2;" horiz-adv-x="647" 
d="M46 263q0 114 79.5 191t197.5 77q119 0 198.5 -76.5t79.5 -191.5t-79.5 -192.5t-198.5 -77.5q-118 0 -197.5 77t-79.5 193zM77 263q0 -103 71 -172.5t175 -69.5q107 0 177 69t70 173q0 103 -71 171.5t-176 68.5t-175.5 -68.5t-70.5 -171.5zM341 594l-116 137l18 20
l114 -142z" />
    <glyph glyph-name="uniF7F3" unicode="&#xf7f3;" horiz-adv-x="647" 
d="M46 263q0 114 79.5 191t197.5 77q119 0 198.5 -76.5t79.5 -191.5t-79.5 -192.5t-198.5 -77.5q-118 0 -197.5 77t-79.5 193zM77 263q0 -103 71 -172.5t175 -69.5q107 0 177 69t70 173q0 103 -71 171.5t-176 68.5t-175.5 -68.5t-70.5 -171.5zM425 731l-116 -137l-16 15
l114 142z" />
    <glyph glyph-name="uniF7F4" unicode="&#xf7f4;" horiz-adv-x="647" 
d="M46 263q0 114 79.5 191t197.5 77q119 0 198.5 -76.5t79.5 -191.5t-79.5 -192.5t-198.5 -77.5q-118 0 -197.5 77t-79.5 193zM77 263q0 -103 71 -172.5t175 -69.5q107 0 177 69t70 173q0 103 -71 171.5t-176 68.5t-175.5 -68.5t-70.5 -171.5zM327 732l138 -112l-16 -18
l-124 101l-126 -101l-16 18l140 112h4z" />
    <glyph glyph-name="uniF7F5" unicode="&#xf7f5;" horiz-adv-x="647" 
d="M46 263q0 114 79.5 191t197.5 77q119 0 198.5 -76.5t79.5 -191.5t-79.5 -192.5t-198.5 -77.5q-118 0 -197.5 77t-79.5 193zM77 263q0 -103 71 -172.5t175 -69.5q107 0 177 69t70 173q0 103 -71 171.5t-176 68.5t-175.5 -68.5t-70.5 -171.5zM192 627l-13 15q51 46 93 46
q24 0 56.5 -24t52.5 -24q31 0 76 41l12 -16q-50 -49 -91 -49q-22 0 -54.5 24t-55.5 24q-30 0 -76 -37z" />
    <glyph glyph-name="uniF7F6" unicode="&#xf7f6;" horiz-adv-x="647" 
d="M46 263q0 114 79.5 191t197.5 77q119 0 198.5 -76.5t79.5 -191.5t-79.5 -192.5t-198.5 -77.5q-118 0 -197.5 77t-79.5 193zM77 263q0 -103 71 -172.5t175 -69.5q107 0 177 69t70 173q0 103 -71 171.5t-176 68.5t-175.5 -68.5t-70.5 -171.5zM215 667q0 8 6.5 14t15.5 6
q8 0 14 -6t6 -14q0 -9 -6 -15.5t-14 -6.5q-9 0 -15.5 6t-6.5 16zM390 667q0 8 6.5 14t15.5 6q8 0 14 -6t6 -14q0 -9 -6 -15.5t-14 -6.5q-9 0 -15.5 6t-6.5 16z" />
    </font>
</defs>
</svg>
